<svg id="svg" xmlns="http://www.w3.org/2000/svg" viewBox="0 0 313.59872 84.33019"><defs><style>.cls-1{fill:none;}.cls-2{fill:#10b243;}</style></defs><path class="cls-1" d="M45.19507,58.945l-.482,3.671,2.608-.72c6.558-1.811,11.192-4.524,17.258-10.105l3.115-2.866-3.115,3.733a51.08978,51.08978,0,0,1-6.857,6.577,30.15073,30.15073,0,0,1-9.662,5.172c-1.2.444-.937.71705,1.764,1.828,11.023,4.536,19.357-2.641,23.62-20.341,1.348-5.597,1.306-6.017-.494-5.009a87.13661,87.13661,0,0,1-9.464,2.773C50.475,46.967,46.311,50.447,45.19507,58.945Z" transform="translate(0.00002 -0.00001)"/><path class="cls-1" d="M30.428,57.541a13.73489,13.73489,0,0,1-5.264-9.977l-.384-3.477-5.971-3.428a73.34744,73.34744,0,0,1-7.144-4.489c-1.703-1.54206-2.053-.15406-2.053,8.165,0,14.588,5.122,22.514,14.581,22.564,5.408.02905,5.471-.459.636-4.981a35.06382,35.06382,0,0,1-7.015-9.038c-3.099-5.896-3.321-7.199-.459-2.685,4.12,6.497,13.109,14.61,14.936,13.481C33.819,62.732,32.82306,59.452,30.428,57.541Z" transform="translate(0.00002 -0.00001)"/><path class="cls-1" d="M49.82306,47.305c2.3-1.863,1.17-6.959-3.252-14.666-1.763-3.071-3.871-6.853-4.685-8.405a21.628,21.628,0,0,1-1.889-5.236l-.408-2.413-3.698,5.474c-12.999,19.241-12.898,31.389.318,38.071,3.312,1.674,3.938,1.456,2.698-.94-2.728-5.276-3.864-15.777-2.523-23.316.526-2.953.571-2.8.653,2.18.102,6.178,2.058,14.538,4.547,19.435l1.725,3.395.81806-3.94306A16.15123,16.15123,0,0,1,49.82306,47.305Z" transform="translate(0.00002 -0.00001)"/><path class="cls-2" d="M33.01105.977C.608,8.011-11.176,48.589,12.407,71.93c26.734,26.46,71.985,7.786,71.985-29.707C84.392,15.363,59.35-4.74,33.01105.977Zm-.72,62.699c-1.827,1.129-10.816-6.984-14.936-13.481-2.862-4.514-2.64-3.211.459,2.685a35.06382,35.06382,0,0,0,7.015,9.038c4.835,4.522,4.772,5.01-.636,4.981-9.459-.05-14.581-7.97595-14.581-22.564,0-8.319.35-9.707,2.053-8.165a73.34744,73.34744,0,0,0,7.144,4.489l5.971,3.428.384,3.477a13.73489,13.73489,0,0,0,5.264,9.977C32.82306,59.452,33.819,62.732,32.29108,63.676ZM43.309,60.884l-1.725-3.395c-2.489-4.897-4.445-13.257-4.547-19.435-.082-4.98-.127-5.133-.653-2.18-1.341,7.539-.205,18.04,2.523,23.316,1.24,2.396.614,2.614-2.698.94-13.216-6.682-13.317-18.83-.318-38.071l3.698-5.474.408,2.413a21.628,21.628,0,0,0,1.889,5.236c.814,1.552,2.922,5.334,4.685,8.405,4.422,7.707,5.552,12.803,3.252,14.666a16.15123,16.15123,0,0,0-5.696,9.636ZM73.444,45.894c-4.263,17.7-12.597,24.877-23.62,20.341-2.701-1.111-2.964-1.384-1.764-1.828a30.15073,30.15073,0,0,0,9.662-5.172,51.08978,51.08978,0,0,0,6.857-6.577l3.115-3.733-3.115,2.866c-6.066,5.581-10.7,8.294-17.258,10.105l-2.608.72.482-3.671c1.116-8.498,5.28-11.978,18.291-15.287a87.13661,87.13661,0,0,0,9.464-2.773C74.75006,39.877,74.79205,40.297,73.444,45.894Z" transform="translate(0.00002 -0.00001)"/><path class="cls-2" d="M236.60205,25.645l-5.029,7.901c-2.766,4.346-5.241,7.918-5.499,7.937-.258.019-2.772-3.616-5.587-8.078l-5.119-8.113h-6.108V59.86h5.61l.193-12.116.193-12.116,5.203,7.871c2.861,4.328,5.519,7.67395,5.906,7.435.65-.402,11.594-16.875,15.306-23.038l1.618-2.688-3.344.218Z" transform="translate(0.00002 -0.00001)"/><path class="cls-2" d="M240.124,38.997l-2.646,3.811V59.86h5.644V47.514c0-6.79-.079-12.342-.176-12.337A42.21,42.21,0,0,0,240.124,38.997Z" transform="translate(0.00002 -0.00001)"/><rect class="cls-2" x="103.32308" y="54.21593" width="26.10297" height="5.64398"/><rect class="cls-2" x="103.32308" y="40.30096" width="23.28101" height="4.93799"/><rect class="cls-2" x="103.32304" y="25.68" width="26.10297" height="5.64398"/><rect class="cls-2" x="250.96563" y="54.10395" width="26.10297" height="5.64398"/><rect class="cls-2" x="250.96563" y="40.18898" width="23.28101" height="4.93799"/><rect class="cls-2" x="250.96563" y="25.56802" width="26.10297" height="5.64398"/><path class="cls-2" d="M185.47589,53.57854a11.52922,11.52922,0,0,1,0-22.36462v-5.7547a17.167,17.167,0,0,0,0,33.874Z" transform="translate(0.00002 -0.00001)"/><path class="cls-2" d="M191.11987,25.45922v5.7547a11.52924,11.52924,0,0,1,0,22.36462v5.7547a17.167,17.167,0,0,0,0-33.874Z" transform="translate(0.00002 -0.00001)"/><path class="cls-2" d="M155.97716,31.21846c-15.402,0-15.402,23.103,0,23.103v5.644c-22.92729,0-22.92729-34.391,0-34.391Z" transform="translate(0.00002 -0.00001)"/><rect class="cls-2" x="155.97718" y="25.57627" width="9.51697" height="5.64398"/><rect class="cls-2" x="155.97718" y="54.32145" width="9.51697" height="5.64398"/><path class="cls-2" d="M296.4032,25.57358c22.92734,0,22.92734,34.391,0,34.391v-5.644c15.402,0,15.402-23.103,0-23.103Z" transform="translate(0.00002 -0.00001)"/><rect class="cls-2" x="286.88624" y="25.57537" width="9.51697" height="5.64398"/><rect class="cls-2" x="286.88624" y="54.32055" width="9.51697" height="5.64398"/></svg>