<svg id="svg" xmlns="http://www.w3.org/2000/svg" viewBox="0 0 313.95431 84.33019"><defs><style>.cls-1{fill:#10b243;fill-rule:evenodd;}</style></defs><g id="svgg"><path id="path0" class="cls-1" d="M33.01106.977c-32.403,7.034-44.187,47.612-20.604,70.953,26.734,26.46,71.985,7.786,71.985-29.707,0-26.86-25.042-46.963-51.381-41.246m8.875,23.257c.814,1.552,2.922,5.334,4.685,8.405,4.422,7.707,5.552,12.803,3.252,14.666a16.15153,16.15153,0,0,0-5.696,9.636l-.818,3.943-1.725-3.395c-2.489-4.897-4.445-13.257-4.547-19.435-.082-4.98-.127-5.133-.653-2.18-1.341,7.539-.205,18.04,2.523,23.316,1.24,2.396.614,2.614-2.698.94-13.216-6.682-13.317-18.83-.318-38.071l3.698-5.474.408,2.413a21.62962,21.62962,0,0,0,1.889,5.236m59.437,3.88v2.822h26.103V25.292h-26.103v2.822m50.441-2.162c-21.697,5.282-15.62,33.756,7.231,33.877l5.82.031V54.216l-5.82-.011c-19.101-.038-19.564-22.416-.478-23.163l6.298-.246V25.292l-5.467.072a48.47135,48.47135,0,0,0-7.584.588m31.216.347c-13.903,4.961-15.064,27.102-1.684,32.103,4.715,1.763,4.683,1.771,4.683-1.269,0-2.11-.324-2.924-1.284-3.229-8.806-2.795-9.057-19.001-.347-22.313,1.341-.51,2.729-6.491,1.455-6.268-.097.017-1.368.456-2.823.976m8.643,1.746c0,2.277.368,2.897,2.59,4.36,7.681,5.058,7.713,16.667.057,20.753-3.273,1.747-4.199,7.265-1.06,6.318,16.821-5.073,17.099-28.726.394-33.517-1.921-.551-1.981-.488-1.981,2.086m17.637,14.531V59.86h5.61l.193-12.116.193-12.116,5.203,7.871c2.861,4.328,5.519,7.674,5.906,7.435.65-.402,11.594-16.875,15.306-23.038l1.618-2.688-3.344.218-3.343.219-5.029,7.901c-2.766,4.346-5.241,7.918-5.499,7.937s-2.772-3.616-5.587-8.078l-5.119-8.113h-6.108V42.576m41.387-16.813a6.07555,6.07555,0,0,0-.47,2.821v2.352h26.102V25.292H263.69806c-6.919,0-12.792.212-13.051.471m36.92,2.281v2.752l6.298.246c9.432.369,13.112,3.618,13.089,11.554-.023,7.933-3.675,11.146-13.089,11.514l-6.298.247v5.667l6.878-.3c27.1-1.183,25.444-34.432-1.715-34.432h-5.163v2.752M18.80906,40.659l5.971,3.428.384,3.477a13.73493,13.73493,0,0,0,5.264,9.977c2.395,1.911,3.391,5.191,1.863,6.135-1.827,1.129-10.816-6.984-14.936-13.481-2.862-4.514-2.64-3.211.459,2.685a35.06213,35.06213,0,0,0,7.015,9.038c4.835,4.522,4.772,5.01-.636,4.981-9.459-.05-14.581-7.976-14.581-22.564,0-8.319.35-9.707,2.053-8.165a73.33514,73.33514,0,0,0,7.144,4.489m221.315-1.662-2.646,3.811V59.86h5.644V47.514c0-6.79-.079-12.342-.176-12.337a42.2035,42.2035,0,0,0-2.822,3.82m-166.68,6.897c-4.263,17.7-12.597,24.877-23.62,20.341-2.701-1.111-2.964-1.384-1.764-1.828a30.15205,30.15205,0,0,0,9.662-5.172,51.08722,51.08722,0,0,0,6.857-6.577l3.115-3.733-3.115,2.866c-6.066,5.581-10.7,8.294-17.258,10.105l-2.608.72.482-3.671c1.116-8.498,5.28-11.978,18.291-15.287a87.14,87.14,0,0,0,9.464-2.773c1.8-1.008,1.842-.588.494,5.009m27.879-3.318v2.469h23.281V40.107h-23.281v2.469m148.854,0v2.469h23.28V40.107h-23.28v2.469m-148.854,14.462V59.86h26.103V54.216h-26.103v2.822m148.854,0V59.86h26.102V54.216h-26.102v2.822" transform="translate(-0.00001 0)"/></g></svg>