<svg id="_лой_1" data-name="‘лой_1" xmlns="http://www.w3.org/2000/svg" viewBox="0 0 2979.62988 1486.96432"><defs><style>.cls-1{fill:#ebf3fa;}.cls-2{fill:#dfebfd;}.cls-3{fill:#cde0fb;}.cls-4{fill:#c0d8fb;}.cls-12,.cls-30,.cls-4,.cls-6{opacity:0.5;}.cls-5,.cls-6{fill:#afcdfb;}.cls-7{fill:#f99746;}.cls-8{fill:#ef7e29;}.cls-9{fill:#fcecdb;}.cls-10{fill:#f7e0cb;}.cls-11,.cls-12{fill:#efcbab;}.cls-13{fill:#d8661a;}.cls-14{fill:#f9c29d;}.cls-15{fill:#91cecf;}.cls-16{fill:#233862;}.cls-17{fill:#2b478b;}.cls-18{fill:#ffb27d;}.cls-19{fill:#abddda;}.cls-20{fill:#ed985f;}.cls-21{fill:#2c3a64;}.cls-22{fill:#6bb7bf;}.cls-23{fill:#f0b371;}.cls-24{fill:#eb9342;}.cls-25{fill:#e58435;}.cls-26{fill:#f1a34f;}.cls-27{fill:#ce732e;}.cls-28{fill:#699ff0;}.cls-29{fill:#e9f3fe;opacity:0.4;}.cls-30{fill:#ffe2cc;}.cls-31{fill:#ed975d;}.cls-32{fill:#aec3ff;}.cls-33{fill:#8fadef;}.cls-34{fill:#5a98e2;}.cls-35{fill:#7babef;}.cls-36{fill:#eac3a2;}.cls-37{fill:#f9ddbf;}.cls-38{fill:#2e3552;}</style></defs><path class="cls-1" d="M239.5503,1735.5098c.6494-11.4034-253.7739-379.9053,12.4477-738.5391C518.21969,638.3369,829.52388,831.5923,893.38568,579.2451c79.8365-315.4697,476.91262-404.227,673.05672-246.0742,259.7363,209.4268,658.8603-68.8843,1021.8349,70.5254,595.8965,228.8706,173.587,679.0566,308.0899,744.4111,134.5039,65.3545,298.0088,204.8477,121.7627,583.5303Z" transform="translate(-130.51272 -256.51808)"/><path class="cls-2" d="M1437.9063,698.77c-42.0352-62.1513-150.3096-1.1191-150.3096-1.1191s-37.4112,146.7983-59.2696,157.4795c-21.8588,10.6811,7.4781-131.7544,7.4781-131.7544-45.7139,10.8823-139.88283,103.7646-139.88283,103.7646S1150.998,964.5708,1127.1826,969.543c-23.8149,4.9721-42.5576-124.1758-42.5576-124.1758-38.417,27.521-61.26032,91.1733-61.26032,91.1733-22.07268,98.4771,105.52012,121.7368,105.52012,121.7368s18.059,48.0391,7.1635,113.9756l-.0014.002s-3.2412,12.5957-4.1309,32.4219l11.6738-4.001c-.1196-3.457-.1054-6.8428.0625-10.1465a.073.073,0,0,1,.0044-.0605c.0025-.0479.0064-.0948.0083-.1436.1817-2.0772.4512-5.0381.8116-8.6563l.0019-.0136c-.0024-.0069.0049-.0098.0025-.0176,1.1733-8.2031,1.8154-14.1865,2.0629-18.4326a.1462.1462,0,0,0,0-.0391c3.1753-25.5781,8.7832-59.4101,16.9981-68.918a23.92821,23.92821,0,0,1-4.3335-4.498q2.0727,2.1504,4.3335,4.498c34.6577,35.9708,137.0146,8.8653,188.7666-21.6308,51.751-30.4961,22.106-37.8809-16.6006-53.0899-38.7065-15.2089-99.206,13.0313-121.1851,9.3995-21.979-3.6319,1.7154-22.917,39.8038-32.7813,38.0883-9.8638,69.3618,20.8867,131.2651,6.0508,61.9038-14.8359,68.9326-143.2466,68.9326-143.2466-36.9892,27.0317-119.0356,29.6318-126.7822,16.3374-7.7461-13.2949,102.6455-49.5337,118.3057-59.686C1461.708,805.4492,1479.9414,760.9214,1437.9063,698.77Z" transform="translate(-130.51272 -256.51808)"/><path class="cls-2" d="M2589.6318,1667.959c40.6299-43.7149-26.0722-116.6817-26.0722-116.6817s-120.4658-2.6816-132.6602-17.706c-12.1953-15.0254,103.4424-17.8193,103.4424-17.8193-16.627-33.4756-105.4824-89.8038-105.4824-89.8038s-96.6299,67.3116-104.751,49.7471c-8.1221-17.5635,88.6006-55.2353,88.6006-55.2353-28.2119-24.8379-81.6328-31.1319-81.6328-31.1319-80.2715.5449-75.4268,103.5908-75.4268,103.5908s-33.9912,22.6045-87.041,25.9786h-.002a138.85966,138.85966,0,0,0-25.8662,2.6093l5.1934,8.3291c2.6582-.7119,5.2842-1.3076,7.874-1.7695a.05659.05659,0,0,1,.0479-.0078c.0371-.0068.0752-.0127.1123-.0195,1.6435-.2315,3.9853-.5528,6.8545-.9219l.0097-.001c.0059-.0039.0088.002.0147-.0019,6.5674-.5616,11.3193-1.1358,14.6543-1.7051a.10359.10359,0,0,0,.0303-.0069c20.3906-2.123,47.6132-3.8408,56.4541.8204a19.0083,19.0083,0,0,1,2.7089-4.1641q-1.2948,1.99215-2.7089,4.1641c-21.6631,33.3046,17.6865,107.7675,50.5947,142.4062s33.3183,10.3418,38.167-22.3789c4.8486-32.7217-27.8799-74.543-29.0049-92.2266-1.124-17.6836,18.0683-2.7783,32.5381,24.9698,14.4707,27.748-3.7549,57.4951,18.8369,102.8076s123.3633,27.7451,123.3633,27.7451c-27.5782-23.8193-44.2979-86.9355-35.3828-95.3213,8.914-8.3857,56.7822,70.667,67.456,80.9824C2511.2275,1705.5234,2549.002,1711.6729,2589.6318,1667.959Z" transform="translate(-130.51272 -256.51808)"/><path class="cls-3" d="M705.71,855.1689c24.02388-45.7309,102.76218-12.2255,102.76218-12.2255s36.7905,97.5927,52.561,103.2348c15.771,5.6421-15.1621-89.5815-15.1621-89.5815,32.10892,3.9609,103.624,60.3349,103.624,60.3349s-27.2065,98.2344-10.5322,99.8204c16.6743,1.5859,19.6523-88.2105,19.6523-88.2105,28.3843,15.9019,48.8677,57.7139,48.8677,57.7139,22.6113,65.6987-62.9194,91.3413-62.9194,91.3413s-8.6944,34.2471,3.7881,78.5332l.0009.001A120.16964,120.16964,0,0,1,953.65138,1178l-8.293-1.8467q-.2724-3.5625-.81638-6.9385a.05057.05057,0,0,0-.00782-.041c-.0049-.0332-.0113-.0644-.0166-.0976-.2822-1.4082-.6924-3.4131-1.2149-5.8614l-.0024-.0087c.001-.0049-.0044-.0069-.0029-.0118-1.4283-5.5244-2.3238-9.5693-2.81738-12.455a.133.133,0,0,1-.00252-.0274c-4.123-17.2588-10.53948-39.9805-16.8852-45.8603a16.44616,16.44616,0,0,0,2.6221-3.4082q-1.25475,1.63035-2.6221,3.4082c-20.9717,27.2548-93.0747,16.5127-130.8101-.4082-37.7358-16.9209-18.0141-24.2344,7.3106-37.5918,25.32522-13.3575,68.874,1.3525,83.63622-2.8086,14.76168-4.1602-2.92142-15.5498-29.73492-19.3946-26.8134-3.8457-45.86708,19.5801-89.3549,14.1475-43.4878-5.4316-58.0874-92.7588-58.0874-92.7588,27.3701,15.6758,83.7075,11.1997,87.9946,1.5122,4.28662-9.687-74.0103-26.0669-85.5-31.8193C697.55758,929.9775,681.68649,900.8999,705.71,855.1689Z" transform="translate(-130.51272 -256.51808)"/><path class="cls-4" d="M2294.8945,1726.8486l-167.5947-.0517-88.6523-.0235a62.75776,62.75776,0,0,1-62.5342-62.5986l.1953-619.2891a62.71689,62.71689,0,0,1,62.5684-62.538l78.6191.0263,177.6279.0489a62.73529,62.73529,0,0,1,62.5362,62.583l-.1807,619.291A62.761,62.761,0,0,1,2294.8945,1726.8486Z" transform="translate(-130.51272 -256.51808)"/><path class="cls-5" d="M2330.4375,1551.2744l-4.4463-32.5947h0l-4.4482-32.6055a30.64143,30.64143,0,0,0-34.3877-26.1318c-.9199.125-1.8194.3066-2.708.5107a30.25678,30.25678,0,0,0,5.25-14.4355,30.51939,30.51939,0,0,0,57.8593-18.834l-7.6543-31.9932h0l-7.6582-32.0049a30.54008,30.54008,0,0,0-59.4033,14.2139l11.5362,48.2119a30.22187,30.22187,0,0,0-24.0889-12.9726,30.60831,30.60831,0,0,0,3.3896-31.9629,30.64562,30.64562,0,0,0-9.7363-32.4463l-50.7226-41.9219a30.52734,30.52734,0,0,0-41.6211,44.5156,30.20475,30.20475,0,0,0-8.1348,1.0469l-31.7422,8.6846h0l-31.7305,8.6807a30.59937,30.59937,0,0,0-21.5849,22.2519l-3.3321-7.9785h0l-12.6796-30.3545a30.54,30.54,0,0,0-56.3604,23.543l12.6797,30.3545h0l8.125,19.4531a30.608,30.608,0,0,0-19.292,26.8203l-1.6611,32.8545h-.001l-1.6621,32.8662a30.43027,30.43027,0,0,0,39.2656,30.7529,30.7953,30.7953,0,0,0-2.4238,20.6387,30.31445,30.31445,0,0,0-12.9483,14.707l-12.5654,30.4024h0l-12.5693,30.4131a30.51134,30.51134,0,0,0,50.6679,32.3095,30.272,30.272,0,0,0,9.4903,12.2871,30.622,30.622,0,0,0,42.8144-5.6875l19.9951-26.122h0l20.003-26.1309a30.20585,30.20585,0,0,0,5.4433-11.6318,30.36675,30.36675,0,0,0,20.3496-5.2012l5.2403-3.6133-7.2559,9.4785h0l-19.9951,26.1221a30.54007,30.54007,0,0,0,48.502,37.126l19.9951-26.1221h0l20.0019-26.1308c.2578-.337.4707-.6924.7129-1.0362a30.4317,30.4317,0,0,0,5.8535,6.8867l-7.1201,9.3028a30.53967,30.53967,0,0,0,48.501,37.126l39.998-52.253a30.43489,30.43489,0,0,0-12.9834-46.914c.3711-.0362.7393-.043,1.1123-.0938A30.62122,30.62122,0,0,0,2330.4375,1551.2744Zm-275.2139-29.1435.5674-11.2071a29.3132,29.3132,0,0,0,11.3721,11.041l-13.9902,9.6485A30.23,30.23,0,0,0,2055.2236,1522.1309Zm205.7998-27.8008,5.9805,43.8349a30.6167,30.6167,0,0,0-31.706-16.8017,30.21549,30.21549,0,0,0,8.3164-7.4434l17.1689-22.4287C2260.8223,1492.4326,2260.8945,1493.3789,2261.0234,1494.3301Zm-69.4629-118.416,7.6963,6.3613-7.9199,5.4619A30.20186,30.20186,0,0,0,2191.5605,1375.9141Zm6.6397,96.8466a30.511,30.511,0,0,0-5.4111-12.9619,30.2552,30.2552,0,0,0,6.5722-3.3984l24.0684-16.5986Zm19.9746,57.1475a30.7516,30.7516,0,0,0-23.0225-6.9443l.6504-8.2237a30.17349,30.17349,0,0,0,27.8936,10.7998A30.37608,30.37608,0,0,0,2218.1748,1529.9082Zm-61.5254-115.5859a30.62325,30.62325,0,0,0,.2315,34.2763c.1337.1934.2871.3643.4248.5537a30.67018,30.67018,0,0,0-6.2784,3.2549,30.572,30.572,0,0,0-10.4619-33.5957c-.0302-.0224-.0625-.04-.0927-.0635Zm-30.3994,73.4345,11.7793-15.3877c-.167.9493-.2998,1.9122-.377,2.8916l-2.2324,28.253a30.58781,30.58781,0,0,0-15.5136-7.4688l6.3437-8.2881Zm-55.1436,129.083,3.4571-8.3652a30.29611,30.29611,0,0,0,1.4648-18.5771c.6992-.4034,1.3965-.8125,2.0713-1.2784l54.1719-37.3593c.3486-.2403.6601-.5127.9961-.7657a30.47394,30.47394,0,0,0,3.4433,8.3575l-9.6435,6.6504a30.37586,30.37586,0,0,0-12.3369,18.2216,30.5659,30.5659,0,0,0-27.2813,11.7657Zm143.6963-37.6484,1.6914,7.0645a30.28348,30.28348,0,0,0-8.4609-2.3955Zm64.5108,7.1318-2.3545-9.8388h0l-.4473-1.8721a30.83368,30.83368,0,0,0,12.4785,9.165A30.8185,30.8185,0,0,0,2279.3135,1586.3232Zm-184.9922-157.3418-16.5723,21.6495h0l-19.9951,26.122c-.0918.1192-.1641.2471-.2539.3682l1.0479-20.7109c.0263-.5313,0-1.0518-.001-1.5782.9404-.289,1.875-.6191,2.8008-1.0058a30.64346,30.64346,0,0,0,18.6484-30.5674A30.76083,30.76083,0,0,0,2094.3213,1428.9814Z" transform="translate(-130.51272 -256.51808)"/><path class="cls-6" d="M2127.2998,1726.7969l-88.6523-.0235a62.75776,62.75776,0,0,1-62.5342-62.5986l.1953-619.2891a62.71689,62.71689,0,0,1,62.5684-62.538l78.6191.0263a76.66629,76.66629,0,0,1,10.2607,38.6836l-.206,699.4893Q2127.5523,1723.711,2127.2998,1726.7969Z" transform="translate(-130.51272 -256.51808)"/><path class="cls-7" d="M2353.5508,1011.6211l-238.0264-.0732-135.0928-.0499a12.17914,12.17914,0,0,1-12.1572-12.1699l.0147-58.3193a12.19813,12.19813,0,0,1,12.1699-12.1577l134.9023.0385.0293.004,238.1895.0664a12.19706,12.19706,0,0,1,12.1572,12.1699l-.0146,58.3193A12.20483,12.20483,0,0,1,2353.5508,1011.6211Z" transform="translate(-130.51272 -256.51808)"/><path class="cls-8" d="M2115.5244,1011.5479l-135.0928-.0499a12.17914,12.17914,0,0,1-12.1572-12.1699l.0147-58.3193a12.19813,12.19813,0,0,1,12.1699-12.1577l134.9023.0385.0293.004a12.19985,12.19985,0,0,1,12.1289,12.166l-.0156,58.3193A12.204,12.204,0,0,1,2115.5244,1011.5479Z" transform="translate(-130.51272 -256.51808)"/><path class="cls-9" d="M1204.4331,954.3643v402.2666a45.018,45.018,0,0,1-44.8867,44.8867H920.44728a44.364,44.364,0,0,1-18.0157-3.8018,45.03907,45.03907,0,0,1-26.8711-41.0849V954.3643a45.018,45.018,0,0,1,44.8868-44.8868H1159.5464A45.01078,45.01078,0,0,1,1204.4331,954.3643Z" transform="translate(-130.51272 -256.51808)"/><path class="cls-10" d="M1098.51807,1060.748a48.85986,48.85986,0,1,1,62.91653-28.5664A48.85572,48.85572,0,0,1,1098.51807,1060.748Z" transform="translate(-130.51272 -256.51808)"/><path class="cls-11" d="M1161.4346,1032.1816l-91.48292-34.3505a48.8597,48.8597,0,1,1,91.48292,34.3505Z" transform="translate(-130.51272 -256.51808)"/><path class="cls-10" d="M933.40228,1052.8555a48.85972,48.85972,0,1,1,68.7481-6.9502A48.856,48.856,0,0,1,933.40228,1052.8555Z" transform="translate(-130.51272 -256.51808)"/><path class="cls-11" d="M1002.15038,1045.9053l-75.6987-61.7974a48.86,48.86,0,0,1,75.6987,61.7974Z" transform="translate(-130.51272 -256.51808)"/><path class="cls-10" d="M1098.51807,1358.8027a48.85986,48.85986,0,1,1,62.91653-28.5664A48.85579,48.85579,0,0,1,1098.51807,1358.8027Z" transform="translate(-130.51272 -256.51808)"/><path class="cls-11" d="M1161.4346,1333.5566l-91.48292-34.3505a48.8597,48.8597,0,1,1,91.48292,34.3505Z" transform="translate(-130.51272 -256.51808)"/><path class="cls-10" d="M933.40228,1350.9102a48.86011,48.86011,0,1,1,68.7481-6.9512A48.85673,48.85673,0,0,1,933.40228,1350.9102Z" transform="translate(-130.51272 -256.51808)"/><path class="cls-11" d="M1002.15038,1347.2793l-75.6987-61.7969a48.85988,48.85988,0,0,1,75.6987,61.7969Z" transform="translate(-130.51272 -256.51808)"/><path class="cls-10" d="M1136.6182,1213.7344a48.85988,48.85988,0,1,1,23.227-65.0781A48.85635,48.85635,0,0,1,1136.6182,1213.7344Z" transform="translate(-130.51272 -256.51808)"/><path class="cls-11" d="M1159.8452,1148.6563l-88.3042,41.8505a48.85974,48.85974,0,0,1,88.3042-41.8505Z" transform="translate(-130.51272 -256.51808)"/><path class="cls-10" d="M918.93948,1151.4258a48.85979,48.85979,0,1,1,27.20552,63.5176A48.85607,48.85607,0,0,1,918.93948,1151.4258Z" transform="translate(-130.51272 -256.51808)"/><path class="cls-11" d="M946.145,1214.9434l36.31148-90.7227a48.85983,48.85983,0,0,1-36.31148,90.7227Z" transform="translate(-130.51272 -256.51808)"/><path class="cls-12" d="M1204.4331,1009.416v350.0488c0,23.1241-18.477,42.0528-41.0737,42.0528H944.57278a39.80146,39.80146,0,0,1-16.4849-3.5615V1057.874a48.86671,48.86671,0,0,1,15.0503-35.3525,47.54284,47.54284,0,0,1,11.561-8.1807,45.98788,45.98788,0,0,1,20.7173-4.9248Z" transform="translate(-130.51272 -256.51808)"/><path class="cls-9" d="M899.20019,1093.25979h402.2676a44.8877,44.8877,0,0,1,44.8877,44.8877v239.09912a44.8872,44.8872,0,0,1-44.8872,44.8872H899.20119a44.8877,44.8877,0,0,1-44.8877-44.8877V1138.14649A44.8867,44.8867,0,0,1,899.20019,1093.25979Z" transform="translate(2227.51857 -99.15577) rotate(90)"/><path class="cls-10" d="M1158.8555,1162.9502a48.85986,48.85986,0,1,1,62.9165-28.5664A48.85583,48.85583,0,0,1,1158.8555,1162.9502Z" transform="translate(-130.51272 -256.51808)"/><path class="cls-11" d="M1221.772,1134.3838l-91.4829-34.3506a48.85971,48.85971,0,1,1,91.4829,34.3506Z" transform="translate(-130.51272 -256.51808)"/><path class="cls-10" d="M993.73968,1155.0586a48.86007,48.86007,0,1,1,68.7476-6.9512A48.85643,48.85643,0,0,1,993.73968,1155.0586Z" transform="translate(-130.51272 -256.51808)"/><path class="cls-11" d="M1062.48728,1148.1074l-75.6987-61.7969a48.85988,48.85988,0,1,1,75.6987,61.7969Z" transform="translate(-130.51272 -256.51808)"/><path class="cls-10" d="M1158.8555,1461.0049a48.85986,48.85986,0,1,1,62.9165-28.5664A48.85583,48.85583,0,0,1,1158.8555,1461.0049Z" transform="translate(-130.51272 -256.51808)"/><path class="cls-11" d="M1221.772,1435.7588l-91.4829-34.3506a48.85971,48.85971,0,1,1,91.4829,34.3506Z" transform="translate(-130.51272 -256.51808)"/><path class="cls-10" d="M993.73968,1453.1123a48.85968,48.85968,0,1,1,68.7476-6.9512A48.85632,48.85632,0,0,1,993.73968,1453.1123Z" transform="translate(-130.51272 -256.51808)"/><path class="cls-11" d="M1062.48728,1449.4814l-75.6987-61.7968a48.85984,48.85984,0,0,1,75.6987,61.7968Z" transform="translate(-130.51272 -256.51808)"/><path class="cls-10" d="M1196.9556,1315.9365a48.85988,48.85988,0,1,1,23.227-65.0781A48.857,48.857,0,0,1,1196.9556,1315.9365Z" transform="translate(-130.51272 -256.51808)"/><path class="cls-11" d="M1220.1826,1250.8584l-88.3047,41.8506a48.86,48.86,0,0,1,88.3047-41.8506Z" transform="translate(-130.51272 -256.51808)"/><path class="cls-10" d="M979.27638,1253.6289a48.85985,48.85985,0,1,1,27.206,63.5166A48.85622,48.85622,0,0,1,979.27638,1253.6289Z" transform="translate(-130.51272 -256.51808)"/><path class="cls-11" d="M1006.48238,1317.1455l36.3115-90.7226a48.85979,48.85979,0,0,1-36.3115,90.7226Z" transform="translate(-130.51272 -256.51808)"/><rect class="cls-8" x="721.71966" y="915.61572" width="375.52982" height="560.4336"/><rect class="cls-7" x="774.02828" y="915.61282" width="375.5308" height="560.4365"/><polygon class="cls-13" points="774.028 948.136 756.032 976.125 721.72 976.125 721.72 915.616 774.025 915.616 774.028 948.136"/><polygon class="cls-7" points="741.947 959.767 689.642 959.767 721.72 915.616 774.025 915.616 741.947 959.767"/><polygon class="cls-12" points="967.712 1477.835 774.028 1477.835 774.028 941.154 967.712 959.767 967.712 1477.835"/><polygon class="cls-8" points="1149.559 959.767 1119.089 976.125 792.131 976.125 774.028 948.136 774.028 915.613 1149.559 959.767"/><polygon class="cls-7" points="1176.083 959.767 800.554 959.767 774.025 915.616 1149.555 915.616 1176.083 959.767"/><path class="cls-14" d="M2506.5801,1152.7021a7.88641,7.88641,0,0,0-1.9883-3.7402c-1.1309-2.2861-2.333-5.0596-2.3838-6.6201-.0967-2.9717-3.4248-4.1328-4.7851-1.6602a6.05719,6.05719,0,0,0-.7139,2.7618c-5.3223-2.4229-13.4961-4.6006-26.0869-5.4571,0,0-9.6963-1.0703-3.4121,7.1465,4.2002,5.4932,7.8349,5.5274,13.8798,13.1758,6.045,7.6484,15.127,11.8672,22.0352,9.8535l8.0713.9639,5.2461-12.8711Z" transform="translate(-130.51272 -256.51808)"/><path class="cls-15" d="M2766.6797,1067.4824s-7.9522,87.5196-121.1895,124.4737c-30.5722,9.9765-144.9218-20.6622-144.9218-20.6622s.6484-15.0595,9.9326-18.8408c0,0,107.125-6.5791,116.1435-2.1582,8,3.9219,76.4034-66.5058,98.5059-77.8496C2747.2529,1061.1016,2766.6797,1067.4824,2766.6797,1067.4824Z" transform="translate(-130.51272 -256.51808)"/><path class="cls-16" d="M2906.4453,1669.7656s13.5537,12.3692,10.9092,21.1582c-2.6445,8.7891-14.877,14.6485-16.5303,25.3916-1.6523,10.7422-8.2637,16.6016-14.2148,16.6016h-28.3701s-4.3809-7.5596,6.1982-9.8379c10.5791-2.2793,14.5684-14.9023,13.9063-26.6211-.6602-11.7187.9921-27.3437.9921-27.3437l22.4805-5.208Z" transform="translate(-130.51272 -256.51808)"/><path class="cls-17" d="M2906.4473,1662.0068c-2.4785,7.3311-29.7608,18.0684-29.7608,18.0684s-14.8701-23.4316-62.4814-107.4248c-4.0957-7.2363-8.3809-15.1729-12.7891-23.6299-46.75-89.8096-107.2158-239.0644-107.2158-239.0644l115.5498-32.2198s5.4492,46.3809,6.4424,69.8223c.6055,14.3213,8.75,44.9238,19.0986,71.6562,6.584,17.0088,14.0664,32.4473,21.0664,41.1309C2888.2373,1499.8779,2906.4473,1662.0068,2906.4473,1662.0068Z" transform="translate(-130.51272 -256.51808)"/><path class="cls-16" d="M2835.291,1419.2148c-7.2646,36.836-20.5937,98.5225-33.875,129.8057-46.75-89.8096-107.2158-239.0644-107.2158-239.0644l115.5498-32.2198s5.4492,46.3809,6.4424,69.8223C2816.7979,1361.8799,2824.9424,1392.4824,2835.291,1419.2148Z" transform="translate(-130.51272 -256.51808)"/><path class="cls-16" d="M2740.1553,1701.7588s2.4326,28.1514-3.5176,31.081l-76.1553-.1562s0-8.7891,12.2324-10.7422c12.2315-1.9531,33.7207-9.1152,37.3565-25.0654C2713.708,1680.9258,2740.1553,1701.7588,2740.1553,1701.7588Z" transform="translate(-130.51272 -256.51808)"/><path class="cls-17" d="M2675.8594,1304.0986s4.0166,49.3457,8.7383,108.6621c6.416,80.5772,14.1328,179.5518,14.8964,198.3018,1.3194,32.5586,6.6153,84.6387,6.6153,84.6387s12.5556,12.373,37.6875,7.1582c0,0,22.3945-74.3457,28.792-153.0078.0986-1.2891.1982-2.5879.2968-3.8868,5.9512-80.0781,15.2041-248.7021,15.2041-248.7021Z" transform="translate(-130.51272 -256.51808)"/><path class="cls-18" d="M2780.9805,1037.0518s-70.7891,21.5742-62.461,10.9921c-1.0898-6.3173-4.2431-23.2705-4.7285-27.9189a152.04269,152.04269,0,0,1-1.331-16.8086l21.0644-16.5679L2753.5,970.8936C2751.9258,1015.4756,2780.9805,1037.0518,2780.9805,1037.0518Z" transform="translate(-130.51272 -256.51808)"/><path class="cls-19" d="M2844.9473,1397.4766c-57.4395,38.7851-173.5098,27.707-174.3799,26.9599-1.9297-24.6806-3.0264-65.3847-3.6319-103.0537-.748-46.7969-.7578-88.9014-.7001-89.791,0,0,.038-1.4189.0947-3.8125.1885-7.6055.6523-25.0391,1.1533-38.0273.0859-2.4317.1807-4.6924.2744-6.7168.0098-.1133.0098-.2178.0195-.3311.3594-5.8271,3.9258-21.4258,8.9483-39.5977,7.3603-26.6386,17.8223-58.7822,25.8535-73.7294,4.124-7.6719,17.9736-29.8731,17.9736-29.8731,9.7813,1.9297,16.8282-.9551,27.1494-5.9883,11.295-5.4482,23.46-11.332,25.418-9.8379,14.7764,10.8028,24.7656,35.0762,30.0908,66.0948C2806.248,1107.6328,2847.7852,1395.5566,2844.9473,1397.4766Z" transform="translate(-130.51272 -256.51808)"/><path class="cls-20" d="M2753.8633,987.9404s-13.8008,25.1514-40.0723,32.1846a152.04269,152.04269,0,0,1-1.331-16.8086l21.0644-16.5679Z" transform="translate(-130.51272 -256.51808)"/><path class="cls-18" d="M2702.8555,1002.5908s52.084,8.5196,56.9746-23.5c4.8887-32.0195,14.9043-52.4848-18.1446-59.2788-33.0478-6.7934-41.3896,4.4658-45.6611,14.7627C2691.752,944.8711,2689.4326,999.5488,2702.8555,1002.5908Z" transform="translate(-130.51272 -256.51808)"/><path class="cls-21" d="M2778.7598,915.9785c.4736-.542,1.5634-.9795,3.9902-1.1118a9.845,9.845,0,0,0-4.5332-1.2773c-.5078-3.375-2.3037-9.3482-8.1123-10.8003a7.28076,7.28076,0,0,1,3.5303,5.2519c-6.7276-6.9092-21.1436-11.938-61.0606-8.7871-52.6064,4.1524-35.2685,37.8345-28.458,41.8496,6.8106,4.0152,23.9541-6.9927,36.6426-5.9858,12.6894,1.0073,15.1025,19.3427,19.4072,21.8589,4.3047,2.5161,2.6123-1.9327,8.4356-4.5655,5.8242-2.6328,6.3789,7.0181,4.6963,13.2935-1.6817,6.2749,6.3212,14.5517,6.3212,14.5517l8.086-8.7094c8.0869-8.7095,15.709-45.5991,12.0322-53.4629C2779.4131,917.3892,2779.0918,916.6855,2778.7598,915.9785Z" transform="translate(-130.51272 -256.51808)"/><path class="cls-15" d="M2666.9355,1321.3828c-.748-46.7969-.7578-88.9014-.7001-89.791,0,0,.038-1.4189.0947-3.8125,45.0371-55.7363,103.0537-113.6201,103.0537-113.6201S2781.9551,1277.6514,2666.9355,1321.3828Z" transform="translate(-130.51272 -256.51808)"/><path class="cls-15" d="M2728.0322,1104.6426c-.6152,1.0029-14.8799,85.2041-51.4795,86.1406a28.91251,28.91251,0,0,1-9.082-1.0312c.0859-2.4317.1807-4.6924.2754-6.7168.0088-.1133.0088-.2178.0185-.3311.3594-5.8271,3.9258-21.4258,8.9483-39.5977C2691.6787,1140.0313,2709.1982,1126.3057,2728.0322,1104.6426Z" transform="translate(-130.51272 -256.51808)"/><path class="cls-22" d="M2773.2412,1023.6777s-4.3428-12.6201-7.8799-14.0429c0,0-49.1806,11.3466-65.5859,65.7002C2699.7754,1075.335,2718.915,1041.9824,2773.2412,1023.6777Z" transform="translate(-130.51272 -256.51808)"/><path class="cls-23" d="M2674.9111,1430.5176l-97.9306,13.6201-51.8018,7.207a37.02312,37.02312,0,0,1-41.6377-31.4824l-50.3281-361.8701a37.00027,37.00027,0,0,1,31.4658-41.6377l45.9395-6.3887,103.7929-14.4394A37.011,37.011,0,0,1,2656.0488,1027l50.336,361.8711A37.02589,37.02589,0,0,1,2674.9111,1430.5176Z" transform="translate(-130.51272 -256.51808)"/><path class="cls-24" d="M2681.3789,1325.0332l-5.2529-18.6826h0l-5.2549-18.6895a18.07791,18.07791,0,0,0-22.2217-12.4677c-.5273.1474-1.0381.3271-1.541.5185a17.836,17.836,0,0,0,1.8926-8.8623,18.00509,18.00509,0,0,0,32.2734-15.7178l-7.0791-18.0703h0l-7.081-18.0771a18.01736,18.01736,0,1,0-33.5518,13.1445l10.667,27.2305a17.82769,17.82769,0,0,0-15.1318-5.6172,18.06148,18.06148,0,0,0-.6221-18.9531,18.07879,18.07879,0,0,0-8.333-18.1651l-33.0518-20.3642a18.0096,18.0096,0,0,0-20.6924,29.4013,17.80469,17.80469,0,0,0-4.6689,1.2744l-17.8399,7.6592h0l-17.833,7.6573a18.05085,18.05085,0,0,0-10.7998,14.7597l-2.5966-4.3906h0l-9.8809-16.7031a18.01742,18.01742,0,0,0-31.0147,18.3466l9.8809,16.7032h0l6.333,10.7051a18.05811,18.05811,0,0,0-9.0889,17.2431l1.7061,19.332h0l1.7051,19.3399a17.95091,17.95091,0,0,0,25.4482,14.7695,18.16023,18.16023,0,0,0,.2647,12.2578,17.88312,17.88312,0,0,0-6.3682,9.6485l-4.8652,18.7871h0l-4.8672,18.7939a18.00049,18.00049,0,0,0,32.2373,14.752,17.84605,17.84605,0,0,0,6.5459,6.4062,18.06355,18.06355,0,0,0,24.5527-6.8105l9.5557-16.8916h0l9.5596-16.8975a17.79884,17.79884,0,0,0,2.2334-7.2402,17.91424,17.91424,0,0,0,11.4668-4.6963l2.7675-2.5381-3.4677,6.1299h0l-9.5557,16.8906a18.01763,18.01763,0,0,0,31.3643,17.7432l9.5556-16.8916h0l9.5586-16.8985c.1231-.2168.2188-.4423.332-.663a17.97377,17.97377,0,0,0,3.9815,3.5468l-3.4033,6.0157a18.01757,18.01757,0,1,0,31.3642,17.7431l19.1143-33.79a17.95371,17.95371,0,0,0-11.4063-26.3545c.2139-.0518.4278-.0859.6416-.1455A18.06566,18.06566,0,0,0,2681.3789,1325.0332Zm-163.1826,5.3887-.582-6.5957a17.28783,17.28783,0,0,0,7.5439,5.5254l-7.3887,6.7773A17.83457,17.83457,0,0,0,2518.1963,1330.4219Zm117.9853-33.0078,7.0645,25.1259a18.06082,18.06082,0,0,0-19.8945-7.2343,17.84378,17.84378,0,0,0,4.2539-5.0264l8.2041-14.5039C2635.9092,1296.3223,2636.0283,1296.8691,2636.1816,1297.4141Zm-50.2324-63.5332,5.0147,3.0898-4.1826,3.8369A17.84025,17.84025,0,0,0,2585.9492,1233.8809Zm11.7676,56.0478a18.00635,18.00635,0,0,0-4.2178-7.1338,17.8855,17.8855,0,0,0,3.5635-2.5205l12.7109-11.6592Zm16.3262,31.7647a18.13989,18.13989,0,0,0-14.0176-2.1827l-.29-4.8584a17.7947,17.7947,0,0,0,17.1777,4.0391A17.89614,17.89614,0,0,0,2614.043,1321.6934Zm-45.3643-62.5264a18.06651,18.06651,0,0,0,2.9268,20.0088c.0937.1025.1972.1894.2929.289a18.07278,18.07278,0,0,0-3.4023,2.4131,18.03819,18.03819,0,0,0-8.8496-18.7773c-.0195-.0117-.0401-.0186-.0596-.0303Zm-11.7812,45.3838,5.6289-9.9502c-.0205.5683-.0196,1.1416.0146,1.7207l.9971,16.6904a18.03563,18.03563,0,0,0-9.6729-3.1015l3.0323-5.3594Zm-21.7071,79.916,1.3389-5.1699a17.879,17.879,0,0,0-.6572-10.9737c.375-.2929.749-.5888,1.1064-.916l28.6094-26.2412c.1836-.1689.3437-.3535.5195-.5283a18.00224,18.00224,0,0,0,2.6924,4.6025l-5.0928,4.6719a17.9167,17.9167,0,0,0-5.7246,11.6514A18.03352,18.03352,0,0,0,2543,1370.6602Zm80.8955-33.7031,1.5645,3.9912a17.90236,17.90236,0,0,0-5.1387-.7119Zm38.2754-1.0869-2.1767-5.5567h0l-.4141-1.0576a18.19515,18.19515,0,0,0,8.0381,4.3389A18.18764,18.18764,0,0,0,2654.3613,1349.6768Zm-120.9082-76.8682-7.9199,14h0l-9.5547,16.8916c-.0449.0771-.0762.1582-.1191.2363l-1.0742-12.1865c-.0274-.3125-.086-.6152-.1289-.9229.5253-.2451,1.0449-.5146,1.5546-.8154a18.07816,18.07816,0,0,0,8.4063-19.3799A18.1494,18.1494,0,0,0,2533.4531,1272.8086Z" transform="translate(-130.51272 -256.51808)"/><path class="cls-19" d="M2650.9277,1007.8281l-139.0859,19.3448-78.9395,10.9746a7.18443,7.18443,0,0,1-8.0937-6.1211l-4.7422-34.0777a7.19616,7.19616,0,0,1,6.1211-8.0947l78.8271-10.9653h.0176l139.1807-19.3623a7.19588,7.19588,0,0,1,8.0947,6.1206l4.7412,34.0776A7.19949,7.19949,0,0,1,2650.9277,1007.8281Z" transform="translate(-130.51272 -256.51808)"/><path class="cls-14" d="M2557.4883,1219.25a7.88167,7.88167,0,0,0-2.9404-3.0469c-1.7168-1.8877-3.6368-4.2226-4.1153-5.709-.9121-2.8291-4.4306-3.0283-5.0576-.2773a6.0508,6.0508,0,0,0,.0752,2.8516c-5.7842-.8643-14.2412-.7061-26.582,1.9375,0,0-9.6162,1.6406-1.3116,7.8105,5.5498,4.1231,9.0538,3.1563,16.9707,8.8438,7.918,5.6875,17.8106,7.2421,23.8965,3.4043l8.0254-1.2969,1.499-13.8184Z" transform="translate(-130.51272 -256.51808)"/><path class="cls-19" d="M2784.0635,1065.6992s16.457,86.3262-82.2266,153.0342c-26.6416,18.0098-145.0078,20.0459-145.0078,20.0459s-3.5244-14.6563,4.3604-20.8477c0,0,101.1709-35.8252,111.0576-34.0586,8.7724,1.5674,55.1357-84.9736,73.2597-101.9667C2763.6309,1064.9141,2784.0635,1065.6992,2784.0635,1065.6992Z" transform="translate(-130.51272 -256.51808)"/><path class="cls-20" d="M653.43459,1208.8848c-7.439-23.8877-39.7881-28.3662-52.8037-6.9991a26.52072,26.52072,0,0,0-3.9512,13.3155c-.7168,28.0068,54.5181,136.4131,61.8496,146.0029,13.34771,17.457,93.91449,59.4395,93.91449,59.4395l17.1207-2.4952a126.8645,126.8645,0,0,1-19.7017-16.0879c-20.7007-20.666-50.8774-54.2636-56.40578-58.9169C683.97019,1335.1572,667.55909,1254.2373,653.43459,1208.8848Z" transform="translate(-130.51272 -256.51808)"/><rect class="cls-9" x="593.10686" y="1173.36962" width="450.29982" height="300.9746" rx="41.0791"/><path class="cls-10" d="M862.06048,1526.8184a44.71461,44.71461,0,1,1-26.143-57.5791A44.711,44.711,0,0,1,862.06048,1526.8184Z" transform="translate(-130.51272 -256.51808)"/><path class="cls-11" d="M835.91748,1469.2393l-31.4361,83.7226a44.71494,44.71494,0,0,1,31.4361-83.7226Z" transform="translate(-130.51272 -256.51808)"/><circle class="cls-10" cx="820.19946" cy="1649.6499" r="44.71462" transform="translate(-1139.78086 1610.20378) rotate(-70.3303)"/><path class="cls-11" d="M848.47658,1615.0117l-56.5542,69.2764a44.71464,44.71464,0,1,1,56.5542-69.2764Z" transform="translate(-130.51272 -256.51808)"/><path class="cls-10" d="M1134.8301,1526.8184a44.7149,44.7149,0,1,1-26.1431-57.5791A44.71184,44.71184,0,0,1,1134.8301,1526.8184Z" transform="translate(-130.51272 -256.51808)"/><path class="cls-11" d="M1108.6978,1469.2393l-31.43662,83.7226a44.715,44.715,0,0,1,31.43662-83.7226Z" transform="translate(-130.51272 -256.51808)"/><path class="cls-10" d="M1127.6045,1677.9258a44.68649,44.68649,0,0,1-60.91072,7.8877c-.6816-.4746-1.3422-.9912-2.0029-1.5283a44.71353,44.71353,0,1,1,56.55422-69.2735c.6504.5371,1.2803,1.0742,1.8999,1.6416A44.71094,44.71094,0,0,1,1127.6045,1677.9258Z" transform="translate(-130.51272 -256.51808)"/><path class="cls-11" d="M1123.145,1616.6533l-56.45122,69.1602c-.6816-.4746-1.3422-.9912-2.0029-1.5283a44.71353,44.71353,0,1,1,56.55422-69.2735C1121.8955,1615.5488,1122.5254,1616.0859,1123.145,1616.6533Z" transform="translate(-130.51272 -256.51808)"/><path class="cls-10" d="M1002.06838,1491.9502a44.71513,44.71513,0,1,1-59.5567-21.2568A44.71154,44.71154,0,0,1,1002.06838,1491.9502Z" transform="translate(-130.51272 -256.51808)"/><path class="cls-11" d="M942.51168,1470.6934l38.2998,80.8134a44.71488,44.71488,0,1,1-38.2998-80.8134Z" transform="translate(-130.51272 -256.51808)"/><path class="cls-10" d="M945.04638,1691.1631a44.71486,44.71486,0,1,1,58.1284-24.8975A44.71191,44.71191,0,0,1,945.04638,1691.1631Z" transform="translate(-130.51272 -256.51808)"/><path class="cls-11" d="M1003.17478,1666.2656l-83.0264-33.2314a44.715,44.715,0,1,1,83.0264,33.2314Z" transform="translate(-130.51272 -256.51808)"/><path class="cls-17" d="M676.81879,1071.8604c.4473-1.7979-39.0815,17.8652-41.0859,20.0888-18.5386,20.5635-13.2524,47.3994-2.6445,47.6572,6.8032.1651,5.4848,11.4756,5.4848,11.4756l75.79059-32.0615S705.23828,1065.8066,676.81879,1071.8604Z" transform="translate(-130.51272 -256.51808)"/><path class="cls-17" d="M686.15089,1076.0117s2.7085-29.5254-30.2798-29.5254c0,0,9.9961,2.7119,15.167,8.1348,0,0-21.0405-12.3525-43.9375,6.6279-22.897,18.9805-8.6699,66.583-15.6328,75.6211s-34.0782,10.8457-30.7637,40.0694c3.314,29.2246,86.0557,65.8271,80.7422,90.0058,0,0,32.42529-47.665,9.2392-69.418,0,0,11.3013,10.6446,12.4527,23.2989,0,0,3.0669-24.7051-12.6538-32.6065-13.9116-6.9931-25.3072-32.5674-24.1021-37.1377C647.58739,1146.5107,686.15089,1076.0117,686.15089,1076.0117Z" transform="translate(-130.51272 -256.51808)"/><path class="cls-17" d="M593.49019,1714.418l-16.4013-2.4102s-55.146-43.8232-63.35889-125.5957c-.83741-8.3213-7.14021-37.582-13.08741-47.2226-5.8628-9.4961-15.8955-27.4522-26.9341-47.6016-19.8843-36.2861-43.0347-79.6816-50.9761-93.5049-25.3012-44.0527-13.10539-73.6738-13.10539-73.6738s70.583-6.9776,89.92519-23.8975l6.9654,10.7373s15.2929,67.7031,14.5698,68.0166q1.12935,3.4527,2.2954,7.0313c12.0693,37.25,25.95221,83.8095,33.5205,121.7285,4.2539,21.3359,5.38671,63.6113,6.5435,71.8545C570.27979,1628.4697,593.49019,1714.418,593.49019,1714.418Z" transform="translate(-130.51272 -256.51808)"/><path class="cls-16" d="M627.89359,1735.1689h-68.4263s-1.6402-10.4287,1.9341-18.3398c3.4248-7.5928,8.3061-7.834.6235-19.7344,4.34811,4.4766,18.3252,6.3291,28.2173,4.9981,1.2124,1.9648,7.8144,15.1484,11.8633,18.0576C606.57709,1723.3633,626.51659,1722.2188,627.89359,1735.1689Z" transform="translate(-130.51272 -256.51808)"/><path class="cls-16" d="M473.70849,1491.5879c-19.8843-36.2861-43.0347-79.6816-50.9761-93.5049-25.3012-44.0527-13.10539-73.6738-13.10539-73.6738s34.21329-11.291,53.55509-28.21C463.18209,1296.1992,478.98829,1433.9277,473.70849,1491.5879Z" transform="translate(-130.51272 -256.51808)"/><path class="cls-17" d="M475.39309,1329.5l.23191-12.7988c-25.498,3.2158-87.918-30.4688-87.918-30.4688s-26.67571,17.7422-30.32711,68.4102c-1.7827,24.7314-13.0586,129.3213-14.3057,160.5527-.4551,11.3184-11.5913,39.1006-15.55419,46.4688-38.9082,72.3906-18.56151,170.7558-18.56151,170.7558l9.0352-2.2978s32.8994-101.9698,54.40031-146.0772c3.64949-7.4814,26.34769-43.164,34.75049-63.2324,15.8833-37.9414,31.3037-88.0078,42.3018-126.7734C450.22219,1394.1807,475.39309,1329.5,475.39309,1329.5Z" transform="translate(-130.51272 -256.51808)"/><path class="cls-18" d="M624.60689,1244.0859c-41.6836-9.5664-15.0532-68.1406-12.6377-67.1103,5.7749-1.1768,18.46-11.3174,29.8067-31.1231l1.5332,1.3301,25.6015,22.4453s-5.9184,8.7305-10.8969,17.2813c-3.88969,6.6943-7.1968,13.29-6.6714,15.5537C653.40329,1204.084,635.72509,1246.6406,624.60689,1244.0859Z" transform="translate(-130.51272 -256.51808)"/><path class="cls-15" d="M650.92579,1200.5762s7.3286,14.4629,11.2388,26.9902c3.9101,12.5283,13.6933,52.3731,13.6933,52.3731s-20.1767,23.0253-48.2456,21.6816c0,0-15.09229-23.625-9.7739-44.96C623.15719,1235.3271,650.92579,1200.5762,650.92579,1200.5762Z" transform="translate(-130.51272 -256.51808)"/><path class="cls-20" d="M668.91019,1169.6348s-5.9205,8.7197-10.897,17.2802c-15.917-9.8125-15.9341-29.5185-14.708-39.7265Z" transform="translate(-130.51272 -256.51808)"/><path class="cls-18" d="M669.61959,1180.877s-38.6484-21.5059-24.8852-45.3682,18.0439-42.709,43.3017-29.9863c25.25829,12.7216,24.75829,24.5673,22.10209,33.6494C707.48138,1148.2549,680.02779,1185.8555,669.61959,1180.877Z" transform="translate(-130.51272 -256.51808)"/><path class="cls-17" d="M716.66648,1125.2549c-1.77-10.5947-7.1519-11.6065-10.9043-10.8994-14.27339-23.6035-37.59179-14.3916-37.59179-14.3916a52.62077,52.62077,0,0,1-30.4619,18.2968s4.4858,8.3448,22.9639,13.5108c5.6445,1.5771,12.0512.6221,18.2295-1.458a103.1704,103.1704,0,0,1-26.2276,9.8867c24.3516,2.2285,47.521-20.0342,49.92339-22.416,1.124,3.4502,3.0942,10.6728,1.9145,15.9541-1.603,7.1758-7.9731,20.1738-4.084,21.8555C700.42818,1155.5938,719.32128,1141.1436,716.66648,1125.2549Z" transform="translate(-130.51272 -256.51808)"/><path class="cls-16" d="M363.37209,1735.1689H294.9463s-1.6401-10.4287,1.9341-18.3398c3.42429-7.5928,8.78849-11.043,7.50439-20.2285,4.3476,4.4765,11.434,9.4902,21.3266,8.1592,1.2119,1.9648,7.8238,12.4814,11.87261,15.3906C342.05569,1723.3633,361.99509,1722.2188,363.37209,1735.1689Z" transform="translate(-130.51272 -256.51808)"/><path class="cls-19" d="M629.51319,1290.5215c-8.8057,3.0703-21.15919,4.7588-33.7993,6.1289-17.9937,1.9658-36.5718,3.3037-46.3018,7.1914a61.72941,61.72941,0,0,0-12.98,7.085v.0107a3.82622,3.82622,0,0,0-.3823.2871,41.60292,41.60292,0,0,0-5.3643,4.6309,29.32719,29.32719,0,0,0-6.2773,9.3154c-3.5693,8.8164,1.1577,33.2578,4.1851,46.6201a12.14045,12.14045,0,0,1-6.2144,13.4688q-10.26045,5.30565-20.17089,9.7939c-.35061.1592-.69041.3076-1.041.4668.06349-1.3594.085-2.708.085-4.0254a124.39832,124.39832,0,0,0-1.15781-16.8887c-1.6254,9.3047-7.7544,19.3526-13.4687,27.086-91.8276,36.8476-155.9849,20.8301-154.9331,2.4746,3.6221-63.7324,46.59861-117.9365,46.59861-117.9365,80.15429-93.208,242.28909-117.7451,242.28909-117.7451s7.7646-.9346,17.1333,10.3242c13.4795,16.2197,14.1484,20.4472,14.1484,20.4472S655.42039,1281.4824,629.51319,1290.5215Z" transform="translate(-130.51272 -256.51808)"/><path class="cls-15" d="M595.70749,1296.6494c-17.9922,1.9639-36.5688,3.3076-46.3003,7.1885-3.9765-59.4238,24.0659-104.1211,24.0659-104.1211S591.76709,1274.1621,595.70749,1296.6494Z" transform="translate(-130.51272 -256.51808)"/><path class="cls-18" d="M614.60449,1188.2197s-45.0942,4.4551-48.70949,33.7559c-3.61521,29.3008,43.23289,148.6455,49.94239,159.4521,12.2144,19.6739,84.13819,87.1123,84.13819,87.1123l13.2563-8.0341s-51.01659-86.3663-58.91549-94.4493C641.91549,1353.3682,629.87349,1198.3691,614.60449,1188.2197Z" transform="translate(-130.51272 -256.51808)"/><path class="cls-19" d="M637.70849,1244.1963s4.6318-75.5479-53.1929-57.2813c-57.8247,18.2676,8.9746,148.211,8.9746,148.211s33.938-1.6768,45.9737-31.2881Z" transform="translate(-130.51272 -256.51808)"/><path class="cls-15" d="M528.59329,1371.791a12.14045,12.14045,0,0,1-6.2144,13.4688q-10.26045,5.30565-20.17089,9.7939c-.35061-1.126-.66941-2.3057-.956-3.5586a61.98791,61.98791,0,0,1-1.15781-16.8887c1.5293-28.2128,20.7447-49.5732,30.5913-58.7509a29.32719,29.32719,0,0,0-6.2773,9.3154C520.83889,1333.9873,525.56589,1358.4287,528.59329,1371.791Z" transform="translate(-130.51272 -256.51808)"/><path class="cls-15" d="M620.58009,1168.4854s7.0591-8.9249,11.8305-8.6368c0,0,19.2959,27.0127,19.4512,39.4082C651.86179,1199.2568,627.79489,1167.2314,620.58009,1168.4854Z" transform="translate(-130.51272 -256.51808)"/><path class="cls-20" d="M805.69818,1429.8838s-10.26018.1826-12.4751-.1358c-2.1728-.3125-5.07908-1.2578-8.0009-1.3613-2.8726-.1054-5.5127.8252-8.211,1.3799a6.11148,6.11148,0,0,1-1.2221.1172h-17.0166s-1.7071-.8154-3.5757-3.8203c-.8052-1.3008-.9155-4.3975-2.753-5.4199-10.3032-5.751,17.1207-2.4952,17.1207-2.4952s17.2168-.3125,18.8066.8741C791.19968,1421.1494,806.33788,1429.0684,805.69818,1429.8838Z" transform="translate(-130.51272 -256.51808)"/><path class="cls-20" d="M758.77338,1429.8877s10.4468,3.0156,13.2857,4.9512l2.998,1.8925s1.73392-1.9355-.9975-4.0859c-1.4414-1.1348-5.42-4.4521-5.5493-8.2598C768.38128,1420.5791,756.58638,1423.9043,758.77338,1429.8877Z" transform="translate(-130.51272 -256.51808)"/><path class="cls-18" d="M713.23188,1460.5059s7.4659,6.6328,13.14412,8.0341c5.67818,1.4004,12.13028,17.6602,13.16258,19.9834,1.0327,2.3233-5.4199-1.0322-8.001-4.9902-2.58058-3.957-4.3438-5.5059-5.0972-4.6455-.7529.8603.4517,11.7002,4.7534,17.7227,4.3013,6.0224,6.8824,11.3564,3.78522,11.0126-3.09722-.3447-21.50832-4.8183-25.29352-16.0019-3.7856-11.1846-1.0087-11.5772-9.7099-23.0811C691.27439,1457.0352,713.23188,1460.5059,713.23188,1460.5059Z" transform="translate(-130.51272 -256.51808)"/><path class="cls-21" d="M1496.7158,921.165c-.0727-1.9931-1.6152-23.4741-34.3349-24.5962,0,0,16.0898,1.9185,18.8696,8.9917,0,0-10.9556-8.7402-19.877-5.9292-8.9218,2.8111-14.1621,18.4419-14.2143,23.5835-.0523,5.1407,4.9038,21.7139,10.5664,23.1231a17.27289,17.27289,0,0,0,6.8579.0088,77.12007,77.12007,0,0,0-4.3945,7.8447c-13.0557,26.8008.4087,52.9932,11.4614,50.0986,7.0889-1.8554,9.0942,10.2403,9.0942,10.2403l68.8687-55.7539S1524.3184,906.4346,1496.7158,921.165Z" transform="translate(-130.51272 -256.51808)"/><path class="cls-19" d="M1614.6055,1205.7441a99.10016,99.10016,0,0,1-8.25,15.4756c-3.8086,5.7315-8.8174,11.5303-14.7437,14.5186-4.5498-2.1973-12.7514-5.4287-16.227-7.5674-12.5762-7.6836-30.5122-29.4668-45.1577-52.8213-2.2359-3.5644-4.3941-7.1572-6.4439-10.75a16.92475,16.92475,0,0,1-1.1133-1.9922c-5.2138-9.2949-9.4219-18.541-11.8633-26.997l26.6163-56.8838c.0976.0976,8.2695,4.9267,15.4755,25.6494,10.7217,30.834,28.1099,74.6152,40.1778,88.0107,2.812,3.1153,11.0625,7.8408,21.041,12.8594v.0098C1614.332,1205.5781,1614.498,1205.7441,1614.6055,1205.7441Z" transform="translate(-130.51272 -256.51808)"/><path class="cls-15" d="M1606.3555,1221.2197c-3.8086,5.7315-8.8174,11.5303-14.7437,14.5186-4.5498-2.1973-12.7514-5.4287-16.227-7.5674-12.5762-7.6836-30.5122-29.4668-45.1577-52.8213.5468-7.3428,38.977,30.3652,43.8588,37.1992C1577.7666,1217.7041,1596.7866,1220.2627,1606.3555,1221.2197Z" transform="translate(-130.51272 -256.51808)"/><path class="cls-17" d="M1670.6191,1669.5693l-5.3691,49.669a18.01789,18.01789,0,0,1-19.792,15.9346l-49.668-5.3604a18.03132,18.03132,0,0,1-15.9345-19.8008l5.3603-49.6689a18.0269,18.0269,0,0,1,17.4287-16.0323,17.65921,17.65921,0,0,1,2.3721.0977l49.6592,5.3604A18.03194,18.03194,0,0,1,1670.6191,1669.5693Z" transform="translate(-130.51272 -256.51808)"/><path class="cls-16" d="M1642.666,1668.1641c-35.1494,1.9521-42.3262,62.1367-46.876,61.6484a18.03132,18.03132,0,0,1-15.9345-19.8008l5.3603-49.6689a18.0269,18.0269,0,0,1,17.4287-16.0323C1633.6055,1655.5977,1660.3281,1667.1777,1642.666,1668.1641Z" transform="translate(-130.51272 -256.51808)"/><path class="cls-10" d="M1797.6855,1061.5791l-66.9404,377.3799-37.7666,212.8994a23.72321,23.72321,0,0,1-25.9033,19.4297l-60.9844-6.5811-13.7671-1.4843a32.92072,32.92072,0,0,1-29.3398-34.2803l9.793-207.0401,18.0922-382.6523,127.4952,13.7666Z" transform="translate(-130.51272 -256.51808)"/><path class="cls-12" d="M1718.3643,1053.0166l-64.9971,371.3359-39.5635,226.0411a25.39744,25.39744,0,0,1-7.7129,14.3134l-13.7671-1.4843a32.92072,32.92072,0,0,1-29.3398-34.2803l9.793-207.0401,18.0922-382.6523Z" transform="translate(-130.51272 -256.51808)"/><polygon class="cls-25" points="1669.955 779.285 1667.173 805.061 1587.852 796.499 1460.356 782.732 1463.139 756.956 1591.444 770.81 1669.955 779.285"/><path class="cls-26" d="M1730.7451,1438.959l-38.0107,214.2754a22.22485,22.22485,0,0,1-24.2627,18.2099l-57.4307-6.2002-23.9404-2.5869a27.32161,27.32161,0,0,1-24.3609-28.4619l10.0372-212.293,81.7426,8.8262Z" transform="translate(-130.51272 -256.51808)"/><path class="cls-24" d="M1654.5195,1430.7285l-39.9248,225.0938a27.1534,27.1534,0,0,1-3.5537,9.4218l-23.9404-2.5869a27.32161,27.32161,0,0,1-24.3609-28.4619l10.0372-212.293Z" transform="translate(-130.51272 -256.51808)"/><polygon class="cls-27" points="1591.444 770.81 1587.852 796.499 1460.356 782.732 1463.139 756.956 1591.444 770.81"/><path class="cls-17" d="M1520.6943,1710.7158l-14.6284,5.4473s-63.5381-88.124-71.3608-165.6572c-1.3975-13.8418,1.4687-43.1856.3823-49.4551-.502-2.9268-1.1226-6.4492-1.8276-10.4863-2.066-11.836-4.9082-28.0303-8.1568-46.4698-7.4765-42.4336-17.1621-96.6787-24.686-136.5556l3.9409-1.2657,42.6484-13.7588,8.814-27.9941,31.7559-8.3603s7.0942,13.8779,13.436,79.4326c1.1704,8.5986,2.2329,18.082,3.0337,28.3642a561.36923,561.36923,0,0,1-3.0215,114.8321c-1.457,11.3935-7.5005,56.1797-6.7959,70.0449C1497.4292,1612.2148,1520.6943,1710.7158,1520.6943,1710.7158Z" transform="translate(-130.51272 -256.51808)"/><path class="cls-16" d="M1504.0459,1363.957l-68.9585,137.0938c-.502-2.9268-1.1226-6.4492-1.8276-10.4863-2.066-11.836-4.9082-28.0303-8.1568-46.4698-7.4765-42.4336-17.1621-96.6787-24.686-136.5556l3.9409-1.2657,42.6484-13.7588,8.814-27.9941,31.7559-8.3603s7.0942,13.8779,13.436,79.4326C1502.1826,1344.1914,1503.2451,1353.6748,1504.0459,1363.957Z" transform="translate(-130.51272 -256.51808)"/><path class="cls-17" d="M1473.709,1273.7539l-1.5957-13.6904c-26.7451,7.1045-98.2031-19.8496-98.2031-19.8496s-25.9092,22.7744-22.5079,77.3672c1.6607,26.6464,4.6934,139.875,7.8614,173.3808,1.1445,12.1436-6.7364,43.3936-9.9043,51.8262-31.0908,82.8496,4.789,184.8808,4.789,184.8808l9.3106-3.7529s58.9053-213.5644,64.9809-236.1885c11.4834-42.7744,20.7271-98.4189,26.8785-141.3691C1456.1665,1346.3975,1473.709,1273.7539,1473.709,1273.7539Z" transform="translate(-130.51272 -256.51808)"/><path class="cls-18" d="M1494.0015,1114.9229c-45.98,2.5205-35.8765-66.0206-33.0699-65.6739,5.625-2.9385,15.729-17.2099,21.5689-41.084l1.9824.92,33.1777,15.5976s-3.5229,10.7959-6.1269,21.127c-2.0298,8.0849-3.4873,15.8955-2.2691,18.081,2.6158,1.0635,4.1802,1.7324,4.1802,1.7324a.09066.09066,0,0,0,.0117.0352C1513.791,1066.5068,1506.2671,1114.2539,1494.0015,1114.9229Z" transform="translate(-130.51272 -256.51808)"/><path class="cls-20" d="M1517.6616,1024.6895s-3.5278,10.7851-6.1264,21.1269c-19.3926-5.4111-25.2818-25.7969-27.0542-36.7246Z" transform="translate(-130.51272 -256.51808)"/><path class="cls-18" d="M1521.7451,1036.1094s-46.3965-10.7373-39.2651-39.5283c7.1318-28.7906,5.9468-49.5665,35.8711-43.9278,29.9253,5.6382,32.937,18.0449,32.894,28.2334C1551.2021,991.0757,1533.998,1038.1611,1521.7451,1036.1094Z" transform="translate(-130.51272 -256.51808)"/><path class="cls-21" d="M1553.854,964.541c-4.9878-10.435-10.8579-9.8784-14.5303-8.0283-21.8008-20.1709-43.1841-3.6919-43.1841-3.6919a56.65835,56.65835,0,0,1-26.0673,28.0068s7.1269,7.2984,27.7851,7.1382c6.3106-.0493,12.6553-2.9468,18.4282-6.9389a111.08886,111.08886,0,0,1-24.1918,18.0429c25.8598-4.9487,43.2011-34.8872,44.9775-38.0669,2.1904,3.2354,6.3808,10.1216,6.7339,15.937.4795,7.9029-2.2398,23.2491,2.2856,23.8306C1546.0908,1000.7705,1561.335,980.1909,1553.854,964.541Z" transform="translate(-130.51272 -256.51808)"/><path class="cls-16" d="M1408.2793,1735.2754h-73.6777s-1.7662-11.2295,2.0825-19.7481c3.6875-8.1748,9.4634-11.8906,8.0805-21.7812,4.6812,4.8213,12.3116,10.2187,22.9629,8.7861,1.3052,2.1162,8.4248,13.4395,12.7842,16.5713C1385.3267,1722.5635,1406.7964,1721.3301,1408.2793,1735.2754Z" transform="translate(-130.51272 -256.51808)"/><path class="cls-16" d="M1566.4741,1735.2754h-73.6772s-2.7549-11.751,2.0825-19.7481c4.2817-7.0752,2.6406-11.1064-.5303-16.9589a28.64835,28.64835,0,0,0,12.4092,2.3369c3.6709-.2119,7.5522-1.877,10.9565-3.8545,3.1714,3.6152,16.7491,19.0039,20.9922,22.0527C1543.522,1722.5635,1564.9912,1721.3301,1566.4741,1735.2754Z" transform="translate(-130.51272 -256.51808)"/><path class="cls-19" d="M1537.4229,1078.7266l-12.0777,162.2451-7.3911,99.3467c-11.3652,3.5341-22.1836,6.2968-32.4453,8.416a121.13664,121.13664,0,0,0-3.3682-18.2871c.1172,5.2226-5.9951,15.2207-9.6177,20.6601-94.3471,15.1143-138.5771-26.04-138.5771-26.04,3.6714-36.4287,19.5669-110.1162,38.5962-171.8916,3.9643-12.8496,8.0552-25.1807,12.2051-36.5557,9.4316-25.8642,15.4267-39.3672,20.5136-49.834,9.6758-19.8994,52.9292-18.6494,52.9292-18.6494,8.3287,30.0235,31.2242,48.7412,31.2242,48.7412,12.205-7.167,21.2949-32.3672,21.2949-32.3672Z" transform="translate(-130.51272 -256.51808)"/><path class="cls-18" d="M1613.1406,1248.6602c-6.0976-.0284-15.7153-.4463-21.2783-2.5782,0,0,17.7666-.2539,13.9902-5.8681-.6875-1.0215-9.519-.2481-19.3794-.2481-4.0429,0-14.0371,5.5401-13.5219,5.7979-7.1436-.9444-13.6397-2.3282-15.7398-2.7823a3.40467,3.40467,0,0,1-.7739-.2216l-6.3105,18.3769s1.3286.3311,3.6528.7744a247.55156,247.55156,0,0,1,29.3369,8.9678c15.9414,6.3096,27.6685-1.5351,32.9897-7.085,3.3731-3.5185,6.0313-8.1875,5.8467-11.5751C1621.751,1248.5078,1616.8574,1248.6777,1613.1406,1248.6602Z" transform="translate(-130.51272 -256.51808)"/><path class="cls-22" d="M1467.7275,1042.5898s-7.8496.5274-9.5332,5.5469c0,0,10.2432,41.2305,31.2168,48.7363Z" transform="translate(-130.51272 -256.51808)"/><path class="cls-22" d="M1489.4111,1096.873s19.5723-32.5585,19.4947-37.4462c0,0,8.0864,3.1445,7.5844,8.1591C1516.4902,1067.5859,1499.6108,1094.6201,1489.4111,1096.873Z" transform="translate(-130.51272 -256.51808)"/><path class="cls-15" d="M1435.6846,1082.2031c.5659,1.9522,71.2002,114.7246,72.7412,137.1807,1.5415,22.457-29.7027,9.7637-30.1909,6.835C1477.7466,1223.2891,1435.6846,1082.2031,1435.6846,1082.2031Z" transform="translate(-130.51272 -256.51808)"/><path class="cls-15" d="M1525.3452,1240.9717l-7.3911,99.3467c-101.0454-29.1065-106.6011-242.3272-106.6011-242.3272l62.4492,112.7422,50.9961,29.4766S1524.9937,1240.4736,1525.3452,1240.9717Z" transform="translate(-130.51272 -256.51808)"/><path class="cls-18" d="M1570.2783,1250.0713l-3.8764,14.167s-4.8721-.8877-12.6246-2.3233c-2.3237-.4492-3.6518-.7812-3.6518-.7812-6.1997-1.2109-13.6109-2.8701-21.6948-4.6475h-.1172c-13.8355-3.3203-29.3306-7.3037-42.3946-11.7363-1.1718-.4102-2.3237-.8203-3.4462-1.2305-7.7237-2.8506,7.2055-42.0527,13.9619-37.1797,1.7866,1.2979,3.7099,2.6358,5.7217,4.0127,11.1992,7.6055,25.4541,16.0811,38.1176,23.2178,6.2002,3.5449,12.0679,6.7568,16.94,9.4121C1565.0737,1247.2988,1570.2783,1250.0713,1570.2783,1250.0713Z" transform="translate(-130.51272 -256.51808)"/><path class="cls-19" d="M1502.1563,1210.3525s.8134,26.7686-24.2471,39.7871c-28.9658-10.4541-44.461-53.6513-56.4214-83.3242-1.6597-4.0908-3.2124-8.1914-4.7549-12.1748a302.4112,302.4112,0,0,1-12.6245-42.0722,119.29106,119.29106,0,0,1-2.9878-20.0352,48.21294,48.21294,0,0,1-.1074-5.6436c.2148-32.1035,22.9155-35.4228,25.9033-31.7714,3.7593,4.54,7.7427,11.9511,11.8433,20.9238,6.3076,14.2744,12.9472,32.7666,19.1469,51.1426,3.4371,10.0761,6.7564,20.1523,10.0762,29.4472,1.8843,5.6436,3.7691,10.9551,5.5361,15.8272,3.4371,9.3047,6.5318,16.833,9.295,21.5879,1.7768,3.1054,6.8642,7.4199,13.6206,12.2929C1498.2212,1207.6377,1500.1445,1208.9756,1502.1563,1210.3525Z" transform="translate(-130.51272 -256.51808)"/><path class="cls-19" d="M1614.752,1205.5684q-.04395.17565-.1465.1757.0585-.1317.0879-.205C1614.7813,1205.3633,1614.8008,1205.3633,1614.752,1205.5684Z" transform="translate(-130.51272 -256.51808)"/><path class="cls-17" d="M922.749,1706.8447a25.803,25.803,0,0,1-25.71432,25.7149H775.60938a25.71048,25.71048,0,0,1,0-51.4209h121.4253A25.78832,25.78832,0,0,1,922.749,1706.8447Z" transform="translate(-130.51272 -256.51808)"/><path class="cls-28" d="M860.11038,1706.8447a25.78881,25.78881,0,0,1-25.7061,25.7149h-58.7949a25.71048,25.71048,0,0,1,0-51.4209h58.7949A25.78119,25.78119,0,0,1,860.11038,1706.8447Z" transform="translate(-130.51272 -256.51808)"/><path class="cls-29" d="M652.75626,1430.32172h115.8224a3.644,3.644,0,0,1,3.644,3.644v.8208a3.6446,3.6446,0,0,1-3.6446,3.6446H652.75736a3.6446,3.6446,0,0,1-3.6446-3.6446v-.8213A3.6435,3.6435,0,0,1,652.75626,1430.32172Z"/><path class="cls-8" d="M819.13328,1634.0156a27.3555,27.3555,0,0,1-12.1587,36.5869l-115.08979,57.6748a27.25767,27.25767,0,0,1-24.4234-48.7382l115.08939-57.6739A27.34014,27.34014,0,0,1,819.13328,1634.0156Z" transform="translate(-130.51272 -256.51808)"/><path class="cls-7" d="M759.76268,1663.7676a27.33973,27.33973,0,0,1-12.1504,36.583l-55.72749,27.9267a27.25767,27.25767,0,0,1-24.4234-48.7382l55.72709-27.9258A27.33208,27.33208,0,0,1,759.76268,1663.7676Z" transform="translate(-130.51272 -256.51808)"/><path class="cls-30" d="M791.06008,1633.9775l-109.77839,55.0137a3.87444,3.87444,0,0,1-5.1845-1.7236l-.39019-.7783a3.87454,3.87454,0,0,1,1.72269-5.1846l109.77879-55.0127a3.87377,3.87377,0,0,1,5.1841,1.7226l.3906.7784A3.87468,3.87468,0,0,1,791.06008,1633.9775Z" transform="translate(-130.51272 -256.51808)"/><path class="cls-18" d="M2155.7373,1108.5762a7.855,7.855,0,0,1,1.4014,8.4043.06517.06517,0,0,1-.0215.042c-2.0274,5.6025-8.7256,11.8593-16.5059,18.1074-.9941.8027-1.8789,1.5322-2.6484,2.208-.2031.1777-.4053.3545-.5957.5332-.1563.1377-.3076.2812-.457.4131-7.2559,6.6885-4.5254,8.2207-17.5596,21.792-14.8623,15.4638-25.0957,15.7422-28.0068,14.334-2.4629-1.2012,2.541-9.4034,8.0859-18.6211.2685-.4444.5312-.8946.8066-1.3438.7393-1.2256,1.4727-2.4697,2.2051-3.7021,6.4981-11.0948,4.8291-16.2998,3.2891-32.8106-1.252-13.417-20.8731-74.957-20.8731-74.957l28.4815-4.9072s8.5781,49.0039,18.0283,56.5507c5.0537,4.0235,10.7099,4.0733,15.5674,7.0557q.51405.3105,1.0097.6377A37.37765,37.37765,0,0,1,2155.7373,1108.5762Z" transform="translate(-130.51272 -256.51808)"/><path class="cls-16" d="M2155.7373,1108.5762a7.855,7.855,0,0,1,1.4014,8.4043.06517.06517,0,0,1-.0215.042c-2.4824,5.5976-9.0127,11.8222-16.5332,18.0498-.9824.8164-1.8496,1.5654-2.6211,2.2656-.2031.1777-.4053.3545-.5957.5332-.1563.1377-.3076.2812-.457.4131-7.2559,6.6885-4.5254,8.2207-17.5596,21.792-14.8623,15.4638-25.0957,15.7422-28.0068,14.334-2.4629-1.2012,2.541-9.4034,8.0859-18.6211a63.34665,63.34665,0,0,0,26.4922-19.5215c8.9502-11.4199,14.9179-26.0938,21.0127-34.5928q.51405.3105,1.0097.6377A37.37765,37.37765,0,0,1,2155.7373,1108.5762Z" transform="translate(-130.51272 -256.51808)"/><path class="cls-18" d="M1926.0752,1090.7871c-1.7588,8.792-14.29,7.3252-28.292,3.9043-14.001-3.4219-10.6728.6455-30.5996-1.5605-19.9268-2.2061-25.9629-9.6358-26.5713-12.5987-.5439-2.6289,9.3018-3.5566,19.8633-4.7724,1.3281-.1494,2.6621-.3135,3.9961-.4785,11.9238-1.4961,20.6562-9.1895,31.4863-15.5088,10.2588-5.9854,25.5693-30.3721,25.5693-30.3721l27.3272,2.165s-14.3399,21.7813-19.8867,31.251c-3.2627,5.5703-3.0889,12.9356-2.6826,18.6231A35.07377,35.07377,0,0,1,1926.0752,1090.7871Z" transform="translate(-130.51272 -256.51808)"/><path class="cls-16" d="M1897.7832,1094.6914c-14.001-3.4219-10.6728.6455-30.5996-1.5605-19.9268-2.2061-25.9629-9.6358-26.5713-12.5987-.5439-2.6289,9.3018-3.5566,19.8633-4.7724l.0986.2031a56.17865,56.17865,0,0,0,28.5371,8.8701c13.5196.3281,27.8379-3.5449,37.1739-3.3935a35.07377,35.07377,0,0,1-.21,9.3476C1924.3164,1099.5791,1911.7852,1098.1123,1897.7832,1094.6914Z" transform="translate(-130.51272 -256.51808)"/><path class="cls-16" d="M2030.8018,916.0479l25.5459,68.7421,33.3525,89.7569a54.01968,54.01968,0,0,0,17.7178-1.6192c7.9804-2.3066,17.1367-8.3408,17.1367-8.3408s-9.2617-96.3735-26.5371-151.6958c-4.4268-14.2007-9.3897-25.6865-14.8643-32.1518C2056.3711,849.0884,2030.8018,916.0479,2030.8018,916.0479Z" transform="translate(-130.51272 -256.51808)"/><path class="cls-17" d="M2056.7754,806.8765c16.7363-5.3985,64.4707,1.5332,112.4209,10.9194l10.04-16.5596,103.5713-8.0884s34.1778,75.7916,15.4668,124.0845c-2.751,7.0977-8.2148,11.6504-17.5303,11.7998-.0039.0044-1.5078-.0039-1.5117,0,0,0-61.6445-.0361-81.6601-.0361-51.5078,0-109.0078-35.4063-116.4473-36.8936-12.1748-2.4355-17.0449,21.9151-29.2197,47.4825-12.1748,25.5678-114.4463,113.2285-114.4463,113.2285s-15.7178.1562-22.211-2.2793c-6.9824-2.6182-9.538-6.0196-9.538-6.0196S2019.0322,819.0518,2056.7754,806.8765Z" transform="translate(-130.51272 -256.51808)"/><path class="cls-16" d="M2150.3818,657.2407c32.6651,26.563,111.3623,72.5982,111.794,72.3999,0,0,25.209,15.104,42.4101,7.6929,28.667-12.3516,50.6827-55.5942,11.0284-103.4356-19.7764-23.8598-36.1748-31.7207-32.3252-63.4418,4.1718-34.3697-11.3477-77.5806-50.9063-79.3946-3.3066-.1518-23.3379-2.8271-37.6357,1.6607C2158.3115,504.1582,2097.3809,639.6406,2150.3818,657.2407Z" transform="translate(-130.51272 -256.51808)"/><path class="cls-19" d="M2289.8828,804.3867c-2.1328,5.8867-58.1308,11.1338-89.9912,9.0186-10.1172-.6558-17.8242-2.0821-20.5625-4.4434-11.3633-9.8716-10.2314,11.8389-11.79-92.04-.7539-50.669,42.9951-95.7949,42.9951-95.7949s3.4931,21.6445,46.8808-4.1163c1.5411-.9018,18.628,24.3999,35.0743,55.5557C2310.6084,706.9849,2292.0635,798.3359,2289.8828,804.3867Z" transform="translate(-130.51272 -256.51808)"/><path class="cls-17" d="M2056.3477,984.79l33.3525,89.7569a54.01968,54.01968,0,0,0,17.7178-1.6192c7.9804-2.3066,17.1367-8.3408,17.1367-8.3408s-9.2617-96.3735-26.5371-151.6958Z" transform="translate(-130.51272 -256.51808)"/><path class="cls-19" d="M2210.5313,621.1187s-39.6133,9.7192-49.8848,26.79c-12.5117,20.792-74.9072,114.5376-74.9072,114.5376s61.5107,21.7583,71.9941,11.2744c10.4844-10.4844,36.4814-97.2715,36.4814-97.2715Z" transform="translate(-130.51272 -256.51808)"/><path class="cls-18" d="M2257.5137,617.0757c.1679.0224-15.9844,14.8965-27.8164,19.1953-4.6338,1.6914-12.3321,3.5425-12.3321,3.5425s-6.1777-6.2515-6.2675-6.336c-5.4942-5.1264.0244-6.6064-.8038-16.3012-.0449-.459-.0781-.9292-.1337-1.3994a175.09118,175.09118,0,0,0-4.4454-23.4976.09036.09036,0,0,1-.0107-.0337l38.3311-10.96-1.2344,2.1172C2245.1621,603.2964,2252.3076,616.4932,2257.5137,617.0757Z" transform="translate(-130.51272 -256.51808)"/><path class="cls-31" d="M2244.0352,581.2856c-3.7168,11.1392-13.8575,26.087-34.5352,29.3111a182.16078,182.16078,0,0,0-3.7852-18.3174.09036.09036,0,0,1-.0107-.0337Z" transform="translate(-130.51272 -256.51808)"/><path class="cls-18" d="M2199.3281,603.7891s51.667-3.4361,49.0323-35.5787c-2.6358-32.143,2.2587-54.2338-30.8409-53.3994-33.0996.835-38.4961,13.6245-40.2256,24.5674C2175.5645,550.3208,2185.8203,603.8545,2199.3281,603.7891Z" transform="translate(-130.51272 -256.51808)"/><path class="cls-16" d="M2190.04,514.2358s12.8389,37.668,43.3184,42.0469c22.2344,3.1944,31.0654-2.8169,31.0654-2.8169a87.26044,87.26044,0,0,1-19.1367-29.9341,15.71048,15.71048,0,0,0-12.3047-10.1093C2217.1533,510.9795,2196.7236,500.5024,2190.04,514.2358Z" transform="translate(-130.51272 -256.51808)"/><path class="cls-16" d="M2200.9912,520.9058s-9.2236,3.726-15.6592,17.4995c-3.5156,7.5263-6.0595,25.4487-3.8896,32.8359,0,0-14.8555-34.3686-4.0986-49.8603C2188.75,504.9536,2200.9912,520.9058,2200.9912,520.9058Z" transform="translate(-130.51272 -256.51808)"/><path class="cls-22" d="M2210.2939,617.1763s3.1582,19.0757,7.0713,22.6372c0,0-9.9043-3.6621-14.6103-16.4693C2202.7549,623.3442,2206.2207,617.6118,2210.2939,617.1763Z" transform="translate(-130.51272 -256.51808)"/><path class="cls-15" d="M2173.4346,682.0513s-28.8526,34.6123-25.2998,47.1479c3.5537,12.5357,23.5322,12.5357,23.5322,12.5357s-3.7295-26.7066,0-40.605C2175.3975,687.2314,2177.7402,681.231,2173.4346,682.0513Z" transform="translate(-130.51272 -256.51808)"/><path class="cls-15" d="M2257.5146,772.2568s22.2569-15.8061,21.712-30.5219c-.545-14.7159.0205-41.7203,3.916-37.938,3.8965,3.7827,16.2226,34.1177,15.0371,42.706-1.1865,8.5889-10.7774,34.1114-15.8643,35.2012S2257.5146,772.2568,2257.5146,772.2568Z" transform="translate(-130.51272 -256.51808)"/><path class="cls-19" d="M2175.752,828.8945s31.2802,97.7886,110.6318,109.416c0,0,28.1689-27.6152,25.6758-90.1123C2309.5664,785.7012,2175.752,828.8945,2175.752,828.8945Z" transform="translate(-130.51272 -256.51808)"/><path class="cls-32" d="M2445.3877,857.2964l-15.1631,41.7832a20.83654,20.83654,0,0,1-26.6943,12.478L2003.7842,766.4858a310.72264,310.72264,0,0,1-53.0049-25.1245l-54.0449-32.1928-70.0332-41.7139a223.60227,223.60227,0,0,0-38.1973-18.1104l-89.4971-32.4795a6.39022,6.39022,0,0,1,4.3604-12.0136l73.1074,26.5317a408.04959,408.04959,0,0,0,74.5166,19.3159l63.2783,10.1519,65.6768,10.5312a272.49827,272.49827,0,0,1,49.8213,12.9161l403.1426,146.3042A20.83646,20.83646,0,0,1,2445.3877,857.2964Z" transform="translate(-130.51272 -256.51808)"/><path class="cls-3" d="M2445.3877,857.2964l-15.1631,41.7832a20.83654,20.83654,0,0,1-26.6943,12.478L2003.7842,766.4858a310.72264,310.72264,0,0,1-53.0049-25.1245l-54.0449-32.1928a67.33093,67.33093,0,0,1,17.5351-48.3179l65.6768,10.5312a272.49827,272.49827,0,0,1,49.8213,12.9161l403.1426,146.3042A20.83646,20.83646,0,0,1,2445.3877,857.2964Z" transform="translate(-130.51272 -256.51808)"/><path class="cls-7" d="M2445.3877,857.2964l-15.1631,41.7832a20.83654,20.83654,0,0,1-26.6943,12.478l-43.2793-15.706,29.3799-80.9561,43.2793,15.7066A20.83646,20.83646,0,0,1,2445.3877,857.2964Z" transform="translate(-130.51272 -256.51808)"/><rect class="cls-33" x="2071.18296" y="750.5672" width="116.87238" height="30.88761" transform="translate(258.5582 -937.06936) rotate(19.94648)"/><path class="cls-17" d="M1746.6338,620.5532l-4.3594,12.0137-43.2676-15.7022a6.39022,6.39022,0,0,1,4.3604-12.0136Z" transform="translate(-130.51272 -256.51808)"/><path class="cls-18" d="M1989.54,762.9546s-1.1796-17.3037,5.3604-16.6226c8.0244.8365,16.5508,19.8706,12.6357,23.5503C2003.6211,773.562,1989.6191,767.2217,1989.54,762.9546Z" transform="translate(-130.51272 -256.51808)"/><path class="cls-19" d="M2257.418,617.0176s40.9912,2.6826,51.2392,18.6704c10.2491,15.9878,43.1631,107.0576,37.834,134.9336-5.3291,27.8764-79.8848,74.7568-79.8848,74.7568l-7.9257-17.062s43.6142-71.8608,39.499-81.8135C2282.9756,709.7397,2257.418,617.0176,2257.418,617.0176Z" transform="translate(-130.51272 -256.51808)"/><path class="cls-18" d="M2268.4414,834.1621l-9.7607-5.8457s-6.0479-2.418-9.6143-1.9072c-3.5664.5102-12.0312-.9868-12.2978.397-.2666,1.3842,8.7353,7.3012,8.7353,7.3012l.3242-.0674c-5.0556,7.7525-24.2871,9.5059-25.6787,12.4258-1.6885,3.5396,6.582,6.8643,11.0694,8.7876,4.4873,1.9238,15.9628,3.6826,22.5849-1.3506,4.8408-3.6792,12.8027-8.5244,12.8027-8.5244Z" transform="translate(-130.51272 -256.51808)"/><path class="cls-22" d="M2249.4531,608.2354s-22.6972,28.5439-32.0879,31.5781c0,0,26.67,0,45.5-22.2622C2262.8652,617.5513,2256.5713,608.3271,2249.4531,608.2354Z" transform="translate(-130.51272 -256.51808)"/><path class="cls-34" d="M2044.6436,1410.9883v275.5088a49.59493,49.59493,0,0,1-49.5977,49.6084h-132.54a49.60394,49.60394,0,0,1-49.6075-49.6084V1410.9883a49.59437,49.59437,0,0,1,49.6075-49.6201,12.75186,12.75186,0,0,0,12.7988-12.7881v-25.9776a9.43261,9.43261,0,0,1,.6201-3.4326,9.82938,9.82938,0,0,1,9.2129-6.4219h88.5478a8.56557,8.56557,0,0,1,8.5723,8.5723v27.2598a12.78148,12.78148,0,0,0,12.7881,12.7881A49.598,49.598,0,0,1,2044.6436,1410.9883Z" transform="translate(-130.51272 -256.51808)"/><path class="cls-35" d="M2044.6436,1410.9883v275.5088a49.59493,49.59493,0,0,1-49.5977,49.6084h-88.374a49.60406,49.60406,0,0,1-49.6084-49.6084V1410.9883a49.5959,49.5959,0,0,1,49.6084-49.6201,12.75557,12.75557,0,0,0,12.7988-12.7881v-25.9776a9.665,9.665,0,0,1,.6191-3.4326,9.83047,9.83047,0,0,1,9.2129-6.4219h44.3828a8.56557,8.56557,0,0,1,8.5723,8.5723v27.2598a12.78148,12.78148,0,0,0,12.7881,12.7881A49.598,49.598,0,0,1,2044.6436,1410.9883Z" transform="translate(-130.51272 -256.51808)"/><path class="cls-7" d="M1753.501,1048.84132h85.6826a18.085,18.085,0,0,1,18.085,18.085v23.2441a0,0,0,0,1,0,0H1735.417a0,0,0,0,1,0,0v-23.2451A18.084,18.084,0,0,1,1753.501,1048.84132Z"/><rect class="cls-17" x="1682.38668" y="1197.71142" width="231.7461" height="101.3545"/><path class="cls-36" d="M2389.249,1665.7832a34.19259,34.19259,0,0,1-31.2851,34.0264l-378.7754,32.1728a34.12554,34.12554,0,0,1-33.1641-18.2168h-.0127a34.1801,34.1801,0,0,1-2.6269-25.0019c.1162-.4512.2451-.8887.3994-1.3135a32.505,32.505,0,0,1,2.7168-6.2441,34.17074,34.17074,0,0,1,26.9072-17.3165l378.7754-32.1728a34.15156,34.15156,0,0,1,36.3057,26.9336,32.287,32.287,0,0,1,.6308,4.21C2389.1973,1663.8389,2389.249,1664.8174,2389.249,1665.7832Z" transform="translate(-130.51272 -256.51808)"/><path class="cls-36" d="M1965.1172,1700.0283a13.23746,13.23746,0,0,1-5.832,10.9434,13.04924,13.04924,0,0,1-6.2569,2.2012l-7.0039.5927h-.0127l-27.9121,2.3682a13.20723,13.20723,0,0,1-12.8867-7.1572,12.826,12.826,0,0,1-1.3906-4.8799,13.2134,13.2134,0,0,1,12.0507-14.2774l27.2676-2.3173.6436-.0518,7.0039-.5918c.3984-.0391.7851-.0518,1.1719-.0518a13.20829,13.20829,0,0,1,13.1054,12.0889A11.14706,11.14706,0,0,1,1965.1172,1700.0283Z" transform="translate(-130.51272 -256.51808)"/><path class="cls-37" d="M2388.4893,1658.6504a34.14963,34.14963,0,0,1-30.0098,24.8603l-378.7764,32.1856a34.16078,34.16078,0,0,1-36.3183-26.9326c-.0899-.4121-.1797-.8369-.2442-1.2617l.6436-.0518a32.505,32.505,0,0,1,2.7168-6.2441,34.17074,34.17074,0,0,1,26.9072-17.3165l378.7754-32.1728A34.15156,34.15156,0,0,1,2388.4893,1658.6504Z" transform="translate(-130.51272 -256.51808)"/><path class="cls-37" d="M1953.4014,1692.8184a13.237,13.237,0,0,1-10.377,12.8877,15.01912,15.01912,0,0,1-1.7119.2568l-34.9287,2.9619c-.3984.0381-.7842.0518-1.1709.0518a12.826,12.826,0,0,1-1.3906-4.8799,13.2134,13.2134,0,0,1,12.0507-14.2774l27.2676-2.3173.6436-.0518a32.505,32.505,0,0,1,2.7168-6.2441,13.24921,13.24921,0,0,1,5.459,5.6005,12.8385,12.8385,0,0,1,1.3896,4.8789A11.16079,11.16079,0,0,1,1953.4014,1692.8184Z" transform="translate(-130.51272 -256.51808)"/><path class="cls-16" d="M2515.0693,1652.3027a39.88723,39.88723,0,0,1-36.3701,40.2588l-125.666,10.6856-1.3262-79.667.4375-.0381,119.8223-10.1836a39.855,39.855,0,0,1,40.7725,26.251,38.83487,38.83487,0,0,1,2.1884,9.9902C2515.0049,1650.501,2515.0439,1651.4023,2515.0693,1652.3027Z" transform="translate(-130.51272 -256.51808)"/><path class="cls-17" d="M2512.7393,1639.6094a39.83525,39.83525,0,0,1-34.0401,26.3144l-125.666,10.6866-.8887-53.0684,119.8223-10.1836A39.855,39.855,0,0,1,2512.7393,1639.6094Z" transform="translate(-130.51272 -256.51808)"/><path class="cls-7" d="M2335.6602,1713.3691l-8.1895-96.3886a19.58934,19.58934,0,0,1,17.8613-21.1778l2.5821-.2187a19.58916,19.58916,0,0,1,21.1777,17.8603l8.1895,96.3887a19.58989,19.58989,0,0,1-17.8614,21.1777l-2.582.2198A19.58989,19.58989,0,0,1,2335.6602,1713.3691Z" transform="translate(-130.51272 -256.51808)"/><path class="cls-38" d="M61.00638,1475.05712h2914.5195a4.104,4.104,0,0,1,4.104,4.104v3.6997a4.1035,4.1035,0,0,1-4.1035,4.1035H61.00538a4.1035,4.1035,0,0,1-4.1035-4.1035v-3.6992A4.1045,4.1045,0,0,1,61.00638,1475.05712Z"/></svg>