<?xml version="1.0" encoding="utf-8"?>
<!-- Generator: Adobe Illustrator 17.0.0, SVG Export Plug-In . SVG Version: 6.00 Build 0)  -->
<!DOCTYPE svg PUBLIC "-//W3C//DTD SVG 1.1//EN" "http://www.w3.org/Graphics/SVG/1.1/DTD/svg11.dtd" [
	<!ENTITY ns_flows "http://ns.adobe.com/Flows/1.0/">
	<!ENTITY ns_extend "http://ns.adobe.com/Extensibility/1.0/">
	<!ENTITY ns_ai "http://ns.adobe.com/AdobeIllustrator/10.0/">
	<!ENTITY ns_graphs "http://ns.adobe.com/Graphs/1.0/">
	<!ENTITY ns_vars "http://ns.adobe.com/Variables/1.0/">
	<!ENTITY ns_imrep "http://ns.adobe.com/ImageReplacement/1.0/">
	<!ENTITY ns_sfw "http://ns.adobe.com/SaveForWeb/1.0/">
	<!ENTITY ns_custom "http://ns.adobe.com/GenericCustomNamespace/1.0/">
	<!ENTITY ns_adobe_xpath "http://ns.adobe.com/XPath/1.0/">
]>
<svg version="1.1" id="Layer_1" xmlns:x="&ns_extend;" xmlns:i="&ns_ai;" xmlns:graph="&ns_graphs;"
	 xmlns="http://www.w3.org/2000/svg" xmlns:xlink="http://www.w3.org/1999/xlink" xmlns:a="http://ns.adobe.com/AdobeSVGViewerExtensions/3.0/"
	 x="0px" y="0px" width="2047.7px" height="2048px" viewBox="0 0 2047.7 2048" style="enable-background:new 0 0 2047.7 2048;"
	 xml:space="preserve">
<style type="text/css">
	.st0{opacity:0.6;fill:#89CEEB;}
	.st1{fill:#FFFFFF;}
	.st2{fill:#DD675B;}
	.st3{fill:#BBDA96;stroke:#FFFFFF;stroke-width:10;stroke-linecap:round;stroke-linejoin:round;stroke-miterlimit:10;}
	.st4{fill:none;stroke:#FFFFFF;stroke-width:10;stroke-linecap:round;stroke-linejoin:round;stroke-miterlimit:10;}
	.st5{fill:#F5EAEE;}
	.st6{fill:#F29D20;}
	.st7{fill-rule:evenodd;clip-rule:evenodd;fill:#F29D20;}
	.st8{fill:#935A9F;}
	.st9{fill:#03B3DA;}
	.st10{fill:none;stroke:#FFFFFF;stroke-width:6;stroke-linecap:round;stroke-linejoin:round;stroke-miterlimit:10;}
	.st11{fill-rule:evenodd;clip-rule:evenodd;fill:#B7DB9B;}
	.st12{fill:#01A0C0;}
	.st13{fill-rule:evenodd;clip-rule:evenodd;fill:#E9F2FB;}
	.st14{fill:#FFFFFF;stroke:#000000;stroke-width:7;stroke-linecap:round;stroke-linejoin:round;stroke-miterlimit:10;}
	.st15{fill:#FCCF40;}
	.st16{fill:#5BBD8F;}
	.st17{stroke:#000000;stroke-width:5;stroke-linecap:round;stroke-linejoin:round;stroke-miterlimit:10;}
	.st18{fill:#CFECF3;}
</style>
<metadata>
	<sfw  xmlns="&ns_sfw;">
		<slices></slices>
		<sliceSourceBounds  width="16383" height="16383" y="-7962" x="-7936" bottomLeftOrigin="true"></sliceSourceBounds>
	</sfw>
</metadata>
<g>
	<path class="st0" d="M1222.6,441.9c-119.6-5.4-233.5-55.6-342.2-110.6S664,215.4,547.3,186.3c-75.1-18.7-160.9-21.4-221.4,31
		c-58.2,50.3-77,137.4-87.1,218.1c-7.6,60.8-12.1,124.7,8.7,181.5c14.5,39.5,40.2,72.7,58,110.5c61.8,131.6,18.2,293.9-48.9,422.4
		c-31.4,60.3-67.9,117.8-92.1,181.9c-24.2,64.2-35.5,137.7-14.3,203.1c21,64.9,71.2,113.6,125.4,147.9
		c110.3,69.6,240.2,89.5,366.9,100.8c280.5,25,562.5,14.2,843.7,3.3c104.1-4,208.6-8.1,311-29c56.8-11.6,115.5-30.1,156.8-74.7
		c52.4-56.6,65.4-152.4,30.3-223.3c-58.8-119-221.7-148.5-262.9-276.3c-22.7-70.3,0.6-148.6,33.5-213.9
		c70.6-139.9,189.1-262.6,195.3-422.4c4.3-109.8-52.6-219.8-140.6-271.7c-92.3-54.5-220.2-47.6-288.3,42.5
		C1451.4,411,1328.2,446.7,1222.6,441.9z"/>
	<polygon class="st1" points="1028.2,489.8 961.5,489.8 961.5,426.4 904,426.4 904,489.8 837.4,489.8 837.4,547.3 904,547.3 
		904,617.2 961.5,617.2 961.5,547.3 1028.2,547.3 	"/>
	<polygon class="st2" points="1782.1,1628.8 1715.5,1628.8 1715.5,1565.3 1658,1565.3 1658,1628.8 1591.3,1628.8 1591.3,1686.3 
		1658,1686.3 1658,1756.1 1715.5,1756.1 1715.5,1686.3 1782.1,1686.3 	"/>
	<g>
		<path class="st3" d="M1253.3,668.1c0,0,93.4-120.1,237.4-138s294.7,59,294.7,59s-2.5,130.6-137,197.6S1298.2,813.9,1253.3,668.1z"
			/>
		<path class="st4" d="M1253.9,663.5c0,0-3-231-84.2-197.8s86,204.6,86,204.6"/>
		<path class="st4" d="M1785.7,589c0,0,66.8-221.1-20.7-214c-87.5,7.2,20.3,221,20.3,221"/>
	</g>
	<g>
		<path class="st2" d="M1239.1,1007.3c18.4,12.2,36,25.5,52.7,44.2c16.6,18.6,20.6,39.5,10.1,53.3c-11.6,15.3-34.5,12-49.7,7.6
			c-20.5-5.9-42.4-19.8-62.9-34.5C1185.8,1035.4,1217.4,1015.7,1239.1,1007.3z"/>
		<path class="st5" d="M1125.8,965.3c2.5-1.3,7.6-3.8,10.7-4.4c24.4-4.2,57.4,17.6,79.7,31.7c7.8,4.9,15.4,9.7,23,14.7
			c-21.7,8.4-53.3,28.1-49.9,70.6c-8.2-5.9-16.2-11.9-23.8-17.6c-14.4-10.8-30.5-21.4-41.8-35.1
			C1103.6,1001,1103.5,977,1125.8,965.3z"/>
	</g>
	<g>
		<path class="st2" d="M1283.2,888.4c17.9-3.8,36-6.4,56.6-5.4c20.6,1,35.2,10.8,37.3,25c2.3,15.7-12.9,27.3-24.4,33.7
			c-15.4,8.7-36.3,13.5-56.8,17.1C1268.9,936.1,1275.6,906.1,1283.2,888.4z"/>
		<path class="st5" d="M1192.7,930.8c0.7-2.2,2.2-6.7,3.6-8.8c11.7-16.8,43.7-23.6,64.9-28.6c7.4-1.7,14.7-3.4,22-5
			c-7.6,17.7-14.3,47.7,12.6,70.4c-8.2,1.4-16.4,2.6-24.2,3.8c-14.7,2.2-30.3,5.5-44.9,4.3C1200.9,964.6,1186.7,950.7,1192.7,930.8z
			"/>
	</g>
	<g>
		<g>
			<g>
				<path class="st6" d="M852,952c-132.4,42-264.4,93.5-396,154.4c4.2,21.3,16.3,47,24.6,70.4c24.2,68.5,49.9,137.1,77.2,204.6
					c8.8,21.7,18.5,44.6,28.2,67.7c16.9,40.5,29.1,77.9,46.3,117.5l25.4,76.8c1.2,5.3,3.1,10.3,5.9,15c5.1,8.5,17.5,22.2,34.2,27.6
					c14.4,4.7,31.5,2,49.2,0.3c81.9-7.7,155.7-29.8,231.5-73.6c25.9-14.9,64.2-36.5,83.3-73.5c9.3-18,10.4-34.3,4.5-48.1l0.1,0
					l-51.6-130.1c0,0,0,0.1,0,0.1C1007.2,1341.6,873.4,999.1,852,952z"/>
				<path class="st7" d="M779.9,796.8C813.7,813,825,841,807.4,875c-19.1,37-57.4,58.6-83.3,73.5c-75.8,43.8-149.6,65.9-231.5,73.6
					c-17.7,1.7-34.8,4.3-49.2-0.3c-16.7-5.4-29-19.2-34.2-27.6c-14.5-23.9-6.5-58.4,21.2-91.9c9.2-11.2,23.7-20.9,37.6-30.5
					c35.1-24.2,80.5-45.6,117.4-58.4c52-18.1,112.5-35.3,168.6-25.2C762,789.7,770.7,792.4,779.9,796.8z"/>
				<path class="st8" d="M844.9,989.4c9.3-18,10.5-34.3,4.5-48.1l0.1,0l-34.9-106.1c2.6,11.9,0.3,25.3-7.2,39.9
					c-19.1,37-57.4,58.6-83.3,73.5c-75.8,43.8-149.6,65.9-231.5,73.6c-17.7,1.7-34.8,4.3-49.2-0.3c-16.7-5.4-29-19.2-34.2-27.6
					c-1.8-3-3.3-6.1-4.4-9.4l36,108.8c1.1,5.3,3.1,10.3,5.9,15c5.1,8.5,17.5,22.2,34.2,27.6c14.4,4.7,31.5,2,49.2,0.3
					c81.9-7.7,155.7-29.8,231.5-73.6C787.5,1048,825.8,1026.4,844.9,989.4z"/>
			</g>
			<path class="st9" d="M545,1271c0,0,183.9,11.5,350.2-133.6l62,169.2c0,0-160.7,175.7-352.6,122.5"/>
		</g>
		<line class="st10" x1="443.1" y1="1036.9" x2="470.5" y2="1114.2"/>
		<line class="st10" x1="505.8" y1="1044.1" x2="533.3" y2="1121.4"/>
		<line class="st10" x1="568.8" y1="1031.4" x2="596.2" y2="1108.7"/>
		<line class="st10" x1="629.5" y1="1014.1" x2="656.9" y2="1091.3"/>
		<line class="st10" x1="683.6" y1="988.2" x2="711" y2="1065.4"/>
		<line class="st10" x1="735.4" y1="960.5" x2="762.8" y2="1037.7"/>
		<line class="st10" x1="779.5" y1="930" x2="807" y2="1007.3"/>
		<line class="st10" x1="812.2" y1="888.8" x2="839.6" y2="966.1"/>
		<path class="st1" d="M797,1234.4c0,0,62.5-30.7,90.8-62.3l44.6,128c0,0-58.9,55.8-86.4,64.5"/>
		<g>
			<g>
				<g>
					<path class="st1" d="M602.3,1322c0.1-4.6,0-8.9,2.4-13c-0.9,0.4-1.9,0.8-2.8,1.1c9.4,2.1,23.1,13.2,32.4,5.3
						c5.7-4.8,10.6-8.9,18.5-8.5c8.5,0.4,14.8-2.8,22.8-5.4c7.6-2.4,15.6-3.3,23.3-5.3c8.4-2.3,16.6-5.2,24.5-8.5
						c3.1-1.3,6.5-2.5,9.4-4.4c0.8-0.5,1.5-1.1,2.3-1.7c1.4-1.1,2.4-0.3,4,0.3c7.3,2.8,12.2,0.4,19.1-2.4c3-1.2,1.7-6-1.3-4.8
						c-2.9,1.1-5.6,2.5-8.6,3.4c-3.8,1.2-6.7-0.8-10.2-1.8c-4.6-1.3-8.4,3.3-12.3,5.1c-8,3.7-16.3,6.6-24.7,9.2
						c-7.8,2.3-15.7,3.5-23.5,5.4c-8.1,1.9-14.8,6.4-23.4,6.2c-6.6-0.2-11.5,1.2-17.2,4.7c-2.4,1.5-4.2,3.2-6.1,5.2
						c-2.1,2.2-7,0.9-9.5,0.2c-6.3-1.7-11.8-5.4-18.1-6.8c-1.1-0.3-2.2,0.2-2.8,1.1c-3,4.9-3,10-3.1,15.5
						C597.2,1325.2,602.2,1325.2,602.3,1322L602.3,1322z"/>
				</g>
			</g>
			<g>
				<g>
					<path class="st1" d="M620.6,1373.9c-2.4-7.1-1.6-14.7,2.1-21.2c-0.9,0.4-1.9,0.8-2.8,1.1c6.3,2.4,12.8,14.1,20.4,7.5
						c-1,0.1-2,0.3-3,0.4c4.4,2.1,8.2,5.3,12.5,7.7c0.7,0.4,1.8,0.5,2.5,0c3.3-2.5,5.6-5.8,8.4-8.7c-1,0.1-2,0.3-3,0.4
						c3.2,2.3,5.7,5.4,8.5,8.2c1.2,1.2,3.1,0.8,3.9-0.5c3.4-5.2,7.2-13.9,14.7-10.8c0.8,0.3,1.9,0,2.4-0.6
						c3.9-4.4,6.7-10.7,11.7-13.8c8-4.9,18.9-2.2,27.6-5.7c2.9-1.2,1.7-6-1.3-4.8c-9.2,3.8-19.8,1.4-28.8,6.2
						c-5.6,3-8.7,10-12.8,14.6c0.8-0.2,1.6-0.4,2.4-0.6c-10.1-4.1-15.7,5.9-20.4,13.1c1.3-0.2,2.6-0.3,3.9-0.5
						c-3.1-3.1-5.9-6.4-9.5-9c-0.9-0.6-2.3-0.4-3,0.4c-2.5,2.6-4.5,5.8-7.4,8c0.8,0,1.7,0,2.5,0c-4.3-2.4-8.1-5.6-12.5-7.7
						c-1.1-0.5-2.1-0.4-3,0.4c-2.9,2.6-12.2-7.5-15.5-8.8c-1-0.4-2.3,0.2-2.8,1.1c-4.2,7.7-5.4,16.8-2.6,25.1
						C616.8,1378.2,621.6,1376.9,620.6,1373.9L620.6,1373.9z"/>
				</g>
			</g>
			<g>
				<g>
					<path class="st1" d="M751.1,1331.9c1.5-2.6,3.3-4.7,5.5-6.7c-1,0.1-2,0.3-3,0.4c2.2,1.5,4.1,3.4,6.5,4.6
						c1.2,0.6,2.8,0.4,3.4-0.9c2.3-4.4,8.2-5.1,12.4-6.6c3-1.1,1.7-5.9-1.3-4.8c-5.6,2-12.4,3.1-15.4,8.9c1.1-0.3,2.3-0.6,3.4-0.9
						c-2.4-1.1-4.3-3.1-6.5-4.6c-1-0.6-2.2-0.3-3,0.4c-2.5,2.3-4.6,4.8-6.3,7.7C745.2,1332.2,749.5,1334.7,751.1,1331.9
						L751.1,1331.9z"/>
				</g>
			</g>
			<g>
				<g>
					<path class="st1" d="M635.4,1406.9c0.3-0.8,0.6-1.4,0.6-2.4c-0.4,0.7-0.8,1.4-1.2,2.2c0,0,4.7,0.4,5.4,0.3
						c3.3-0.6,6.4-1.9,9.7-2.7c6-1.5,10.7-0.4,15-5.6c-1,0.1-2,0.3-3,0.4c3.4,1.6,6.8,5.7,10.9,5.2c1.5-0.2,2.6-0.5,3.8-1.3
						c1.9-1.3,2.7-2.1,5.6-1.6c0.8,0.1,1.9,0.5,2.7,0.4c4.7-0.6,8.6-3.9,12.3-6.5c6-4.2,11.9-4.9,19-4.3c5.6,0.5,11.1,1.1,16.6-0.6
						c4.6-1.4,8.4-5,12.1-8c2.9-2.4,5.9-2.6,9.5-3.2c5.8-1,11.5-2.3,16.9-4.7c3-1.3,0.4-5.6-2.5-4.3c-5,2.1-10.4,3.2-15.7,4.2
						c-2.8,0.5-6,0.7-8.6,2.1c-3.5,1.9-6.3,5.2-9.7,7.4c-5.2,3.3-11.1,2.9-16.9,2.3c-5.3-0.5-10.3-0.7-15.5,0.8
						c-4.8,1.3-8.7,4.9-12.8,7.5c-2.5,1.6-4.4,2.3-7.3,1.9c-1.5-0.2-3.4-0.2-4.8,0.4c-2.4,1.1-4.3,3.2-7.1,1.9c-2.2-1-3.8-2.8-6-3.9
						c-1-0.5-2.3-0.5-3,0.4c-2.7,3.3-5.6,3.3-9.5,3.8c-3,0.3-5.8,1.2-8.7,2.2c-1.6,0.5-3.2,0.9-4.9,1.1c-1.6,0.2-3.1-1-4.7-0.5
						c-1.7,0.5-2.1,2.1-2.3,2.7C629.8,1407.3,634.1,1409.9,635.4,1406.9L635.4,1406.9z"/>
				</g>
			</g>
		</g>
	</g>
	<g>
		<path class="st11" d="M1854.8,945.4c8.9,9.1,0.7,21.7-5.2,33.2c-15.5,30.2-33.6,58.1-52.6,86.3c-26.2,39-52.3,74.3-78,112.9
			c-26,39.2-54.2,77.4-76.6,113.9c-11.6,19-21.6,37.2-28.2,59.4c-6.4,21.2-9.5,43-14.9,63c-11.5,42.5-37.4,80.3-66.3,116.7
			c-32.1,40.3-58.6,70.7-90.3,109.6c-44.8,55.1-82.9,110.1-133.5,165.5c-26.9,29.5-63.8,67.2-101.2,58.8
			c-34.7-7.8-80.4-49.7-74.9-94.6c2.2-17.7,14.6-41.2,24.6-58.2c32.9-55.8,77.1-109.7,115.5-162.1c26.7-36.4,53.7-74.8,77.2-108.2
			c24.6-34.9,50.9-74,87.5-105.4c20.6-17.7,44.8-28.8,70.9-42.3c24.5-12.7,44.5-30.4,61.8-47.5c33.3-32.9,61.3-70.7,90.5-104.6
			c29.9-34.7,58-70,88.5-105.1c19.8-22.8,47.6-53.4,72.6-77c4.6-4.3,22.5-23,30.7-15.9C1853.6,944.3,1854,944.6,1854.8,945.4z"/>
		<path class="st12" d="M1747.9,1075.8c6,4.6,11.9,9.4,17.2,13.5c2.3,1.8,5.7,4.8,9.7,8.1c7.4-10.6,14.8-21.3,22.2-32.4
			c18.9-28.2,37.1-56.1,52.6-86.3c5.9-11.5,14.1-24.1,5.2-33.2c-0.7-0.8-1.2-1.1-1.8-1.6c-8.2-7.2-26.1,11.5-30.7,15.9
			c-25,23.6-52.8,54.2-72.6,77c-7.2,8.3-14.3,16.7-21.3,25c0.9,0.4,1.8,0.8,2.6,1.3C1735.9,1065.8,1742.1,1071.4,1747.9,1075.8z"/>
		<path class="st12" d="M1133.1,1770.1c-5.5,44.9,40.2,86.8,74.9,94.6c37.4,8.4,74.3-29.3,101.2-58.8c23.5-25.8,44.3-51.5,64.4-77.2
			c-12.4-5-24.3-9.1-36-15.2c-12.8-6.6-27.1-15.5-42.2-26.8c-19.3-14.5-40.6-32.5-59.5-54.1c-4-4.6-9.1-10.5-12.8-15.9
			c-23.4,31.2-46.2,62.9-65.4,95.3C1147.7,1729,1135.3,1752.4,1133.1,1770.1z"/>
		<path class="st13" d="M1507.9,1432.8c0,0,2.8,2.7,4,5.5c4.9,11.6-3.2,28.2-8.9,38.8c-6.7,12.6-12.8,20.9-22.2,35.2
			c-7,10.7-15.5,25.6-22.2,35.2c-6.9,10-18.6,27.9-31.5,31c-10.9,2.7-25.8-7.7-34.7-13.8c-11.5-7.9-25.2-16.8-29-31
			c-2.9-10.9,7.8-25.1,14.8-36.1c14.5-23,31.1-45.1,49-67c8.1-9.8,19.3-27.1,30.2-30.3c9.5-2.8,19.5,6.6,26.5,11.6
			C1493.3,1418.7,1500.6,1422.8,1507.9,1432.8z"/>
	</g>
	<g>
		<line class="st14" x1="439.1" y1="379.8" x2="331.2" y2="287.3"/>
		<g>
			<path class="st1" d="M407.1,384l1.5,1.3l0.4,0.4l-11.7,13.5l15.9,16.5l1,1l1.6,1.7L403,433.2l349.3,270l25.4-31.2l170.6,134.1
				l-13.6,17.3c8.2,6.5,20.1,5,26.6-3.2l22.3-28.4c6.5-8.2,5-20.1-3.2-26.6l-13.3,17L796.9,648.4l28.4-34.8L479.4,345l-9.2,10.6
				l-0.6-0.4l-9.2-7.2l-11-8.7l-12.2,14l-0.4-0.4l-8.1-7l-13-11.3l-28.7,32.1L407.1,384z"/>
			<polygon class="st15" points="809.1,613.7 750.6,687.3 452.3,460.1 419.4,435.1 480.3,362.5 480.5,362.6 			"/>
		</g>
	</g>
	<g>
		
			<rect x="497.3" y="1519.3" transform="matrix(0.4176 -0.9086 0.9086 0.4176 -1192.3116 1544.9077)" class="st16" width="223.5" height="366.5"/>
		<circle class="st1" cx="540.6" cy="1662.1" r="59.8"/>
		<line class="st17" x1="515.7" y1="1609" x2="572" y2="1712.8"/>
		<circle class="st1" cx="685.8" cy="1730.2" r="59.8"/>
		<line class="st17" x1="660.9" y1="1677.1" x2="717.2" y2="1780.9"/>
	</g>
	<g>
		<path class="st1" d="M1379.4,1323l-315.6,129.7c-21.1,8.7-45.2-1.4-53.8-22.5l-14.5-35.2c-8.7-21.1,1.4-45.2,22.5-53.8
			l315.6-129.7c21.1-8.7,45.2,1.4,53.8,22.5l14.5,35.2C1410.5,1290.2,1400.4,1314.3,1379.4,1323z"/>
		
			<rect x="1119.9" y="1288.5" transform="matrix(0.9249 -0.3802 0.3802 0.9249 -418.6002 552.5803)" class="st18" width="139.1" height="94.8"/>
		<g>
			<g>
				<circle cx="1030.9" cy="1365.2" r="6.8"/>
				<circle cx="1070.3" cy="1381.3" r="6.8"/>
				<circle cx="1054.4" cy="1419.4" r="6.8"/>
			</g>
		</g>
		<g>
			<g>
				<circle cx="1331.3" cy="1241.7" r="6.8"/>
				<circle cx="1314.7" cy="1280.9" r="6.8"/>
				<circle cx="1352.7" cy="1296.8" r="6.8"/>
			</g>
		</g>
	</g>
</g>
</svg>
