<svg id="Layer_1" data-name="Layer 1" xmlns="http://www.w3.org/2000/svg" viewBox="0 0 1864.93304 1706.53168"><defs><style>.cls-1{fill:#89ceeb;isolation:isolate;opacity:0.6;}.cls-2{fill:#fff;}.cls-3{fill:#dd675b;}.cls-4{fill:#bbda96;}.cls-11,.cls-4,.cls-5{stroke:#fff;}.cls-11,.cls-15,.cls-18,.cls-4,.cls-5{stroke-linecap:round;stroke-linejoin:round;}.cls-4,.cls-5{stroke-width:10px;}.cls-11,.cls-15,.cls-18,.cls-5{fill:none;}.cls-6{fill:#f5eaee;}.cls-7,.cls-8{fill:#f29d20;}.cls-12,.cls-14,.cls-8{fill-rule:evenodd;}.cls-9{fill:#935a9f;}.cls-10{fill:#03b3da;}.cls-11{stroke-width:6px;}.cls-12{fill:#b7db9b;}.cls-13{fill:#01a0c0;}.cls-14{fill:#e9f2fb;}.cls-15,.cls-18{stroke:#000;}.cls-15{stroke-width:7px;}.cls-16{fill:#fccf40;}.cls-17{fill:#5bbd8f;}.cls-18{stroke-width:5px;}.cls-19{fill:#cfecf3;}</style></defs><path class="cls-1" d="M1222.6,441.9c-119.6-5.4-233.5-55.6-342.2-110.6S664,215.4,547.3,186.3c-75.1-18.7-160.9-21.4-221.4,31-58.2,50.3-77,137.4-87.1,218.1-7.6,60.8-12.1,124.7,8.7,181.5,14.5,39.5,40.2,72.7,58,110.5,61.8,131.6,18.2,293.9-48.9,422.4-31.4,60.30005-67.9,117.80005-92.1,181.9C140.3,1395.9,129,1469.4,150.2,1534.80005c21,64.9,71.2,113.6,125.4,147.9,110.3,69.6,240.2,89.5,366.9,100.8,280.5,25,562.5,14.2,843.7,3.30005,104.1-4,208.6-8.1,311-29,56.80005-11.6,115.5-30.1,156.80005-74.69995,52.4-56.6,65.4-152.4,30.30005-223.30005-58.80005-119-221.69995-148.5-262.9-276.29993-22.69995-70.3.6-148.6,33.5-213.9,70.6-139.9,189.1-262.6,195.30005-422.4,4.3-109.8-52.6-219.8-140.6-271.7-92.30005-54.5-220.2-47.6-288.30005,42.5C1451.4,411,1328.2,446.7,1222.6,441.9Z" transform="translate(-139.02213 -174.03939)"/><polygon class="cls-2" points="889.178 315.761 822.478 315.761 822.478 252.361 764.978 252.361 764.978 315.761 698.378 315.761 698.378 373.261 764.978 373.261 764.978 443.161 822.478 443.161 822.478 373.261 889.178 373.261 889.178 315.761"/><polygon class="cls-3" points="1643.078 1454.761 1576.478 1454.761 1576.478 1391.261 1518.978 1391.261 1518.978 1454.761 1452.278 1454.761 1452.278 1512.261 1518.978 1512.261 1518.978 1582.061 1576.478 1582.061 1576.478 1512.261 1643.078 1512.261 1643.078 1454.761"/><path class="cls-4" d="M1253.30005,668.1s93.4-120.1,237.4-138,294.70008,59,294.70008,59-2.5,130.6-137,197.6S1298.2,813.9,1253.30005,668.1Z" transform="translate(-139.02213 -174.03939)"/><path class="cls-5" d="M1253.9,663.5s-3-231-84.19995-197.8,86,204.6,86,204.6" transform="translate(-139.02213 -174.03939)"/><path class="cls-5" d="M1785.7,589S1852.5,367.9,1765,375c-87.5,7.2,20.30005,221,20.30005,221" transform="translate(-139.02213 -174.03939)"/><path class="cls-3" d="M1239.1,1007.3c18.4,12.2,36,25.50006,52.69995,44.2,16.6,18.6,20.6,39.5,10.1,53.30005-11.6,15.30005-34.5,12-49.69995,7.6-20.5-5.9-42.4-19.8-62.9-34.5C1185.80005,1035.4,1217.4,1015.7,1239.1,1007.3Z" transform="translate(-139.02213 -174.03939)"/><path class="cls-6" d="M1125.80005,965.3c2.5-1.3,7.6-3.8,10.69995-4.4,24.4-4.2,57.4,17.6,79.69995,31.7,7.80005,4.9,15.4,9.7,23,14.7-21.69995,8.4-53.30005,28.1-49.9,70.6-8.19995-5.9-16.19995-11.9-23.8-17.6-14.4-10.80005-30.5-21.4-41.80005-35.1C1103.6,1001,1103.5,977,1125.80005,965.3Z" transform="translate(-139.02213 -174.03939)"/><path class="cls-3" d="M1283.2,888.4c17.9-3.8,36-6.4,56.6-5.4s35.2,10.8,37.30005,25c2.3,15.7-12.9,27.3-24.4,33.7-15.4,8.7-36.30005,13.5-56.80005,17.1C1268.9,936.1,1275.6,906.1,1283.2,888.4Z" transform="translate(-139.02213 -174.03939)"/><path class="cls-6" d="M1192.7,930.8c.69995-2.2,2.19995-6.7,3.6-8.8,11.7-16.8,43.7-23.6,64.9-28.6,7.4-1.7,14.69995-3.4,22-5-7.6,17.7-14.30005,47.7,12.6,70.4-8.19995,1.4-16.4,2.6-24.19995,3.8-14.7,2.2-30.30005,5.5-44.9,4.3C1200.9,964.6,1186.7,950.7,1192.7,930.8Z" transform="translate(-139.02213 -174.03939)"/><path class="cls-7" d="M852,952q-198.6,63-396,154.4c4.2,21.30005,16.3,47,24.6,70.4,24.2,68.5,49.9,137.1,77.2,204.6,8.8,21.7,18.5,44.6,28.2,67.7,16.9,40.5,29.1,77.9,46.3,117.5l25.4,76.8a51.00541,51.00541,0,0,0,5.9,15c5.1,8.5,17.5,22.2,34.2,27.6,14.4,4.69995,31.5,2,49.2.30005,81.9-7.69995,155.7-29.80005,231.5-73.6,25.9-14.9,64.2-36.5,83.3-73.5,9.30005-18,10.4-34.30005,4.5-48.1h.1l-51.6-130.1v.1C1007.2,1341.6,873.4,999.1,852,952Z" transform="translate(-139.02213 -174.03939)"/><path class="cls-8" d="M779.9,796.8C813.7,813,825,841,807.4,875c-19.1,37-57.4,58.6-83.3,73.5-75.8,43.8-149.6,65.9-231.5,73.6-17.7,1.7-34.8,4.3-49.2-.3-16.7-5.4-29-19.2-34.2-27.6-14.5-23.9-6.5-58.4,21.2-91.9,9.2-11.2,23.7-20.9,37.6-30.5,35.1-24.2,80.5-45.6,117.4-58.4,52-18.1,112.5-35.3,168.6-25.2A104.68866,104.68866,0,0,1,779.9,796.8Z" transform="translate(-139.02213 -174.03939)"/><path class="cls-9" d="M844.9,989.4c9.3-18,10.5-34.3,4.5-48.1h.1l-34.9-106.1c2.6,11.9.3,25.3-7.2,39.9-19.1,37-57.4,58.6-83.3,73.5-75.8,43.8-149.6,65.9-231.5,73.6-17.7,1.7-34.8,4.3-49.2-.3-16.7-5.4-29-19.2-34.2-27.6a47.31549,47.31549,0,0,1-4.4-9.4l36,108.8a48.40574,48.40574,0,0,0,5.9,15c5.1,8.5,17.5,22.19995,34.2,27.6,14.4,4.69995,31.5,2,49.2.30005,81.9-7.7,155.7-29.80005,231.5-73.6C787.5,1048,825.8,1026.4,844.9,989.4Z" transform="translate(-139.02213 -174.03939)"/><path class="cls-10" d="M545,1271s183.9,11.5,350.2-133.6l62,169.2s-160.7,175.69995-352.6,122.5" transform="translate(-139.02213 -174.03939)"/><line class="cls-11" x1="304.07788" y1="862.86063" x2="331.47787" y2="940.16056"/><line class="cls-11" x1="366.77786" y1="870.06058" x2="394.27786" y2="947.36063"/><line class="cls-11" x1="429.77786" y1="857.36063" x2="457.17789" y2="934.66056"/><line class="cls-11" x1="490.47787" y1="840.06058" x2="517.8779" y2="917.26065"/><line class="cls-11" x1="544.57785" y1="814.16062" x2="571.97787" y2="891.36063"/><line class="cls-11" x1="596.3779" y1="786.46061" x2="623.77786" y2="863.66056"/><line class="cls-11" x1="640.47787" y1="755.96061" x2="667.97787" y2="833.26059"/><line class="cls-11" x1="673.17789" y1="714.76059" x2="700.57785" y2="792.06058"/><path class="cls-2" d="M797,1234.4s62.5-30.69995,90.8-62.3l44.6,128s-58.9,55.8-86.4,64.5" transform="translate(-139.02213 -174.03939)"/><path class="cls-2" d="M602.3,1322c.1-4.6,0-8.9,2.4-13-.9.4-1.9.80005-2.8,1.1,9.4,2.1,23.1,13.19995,32.4,5.3,5.7-4.8,10.6-8.9,18.5-8.5,8.5.4,14.8-2.8,22.8-5.4,7.6-2.4,15.6-3.30005,23.3-5.30005a202.4029,202.4029,0,0,0,24.5-8.5c3.1-1.30005,6.5-2.5,9.4-4.4.8-.5,1.5-1.1,2.3-1.69995,1.4-1.1,2.4-.30005,4,.3,7.3,2.80005,12.2.4,19.1-2.4,3-1.19995,1.7-6-1.3-4.80005-2.9,1.1-5.6,2.5-8.6,3.4-3.8,1.19995-6.7-.80005-10.2-1.80005-4.6-1.3-8.4,3.30005-12.3,5.1a198.07659,198.07659,0,0,1-24.7,9.2c-7.8,2.3-15.7,3.5-23.5,5.4-8.1,1.9-14.8,6.4-23.4,6.19995a28.55542,28.55542,0,0,0-17.2,4.69995,30.51324,30.51324,0,0,0-6.1,5.19995c-2.1,2.2-7,.9-9.5.2-6.3-1.7-11.8-5.4-18.1-6.80005a2.56447,2.56447,0,0,0-2.8,1.1c-3,4.9-3,10-3.1,15.5C597.2,1325.2,602.2,1325.2,602.3,1322Z" transform="translate(-139.02213 -174.03939)"/><path class="cls-2" d="M620.6,1373.9a25.83068,25.83068,0,0,1,2.1-21.19995c-.9.4-1.9.8-2.8,1.1,6.3,2.4,12.8,14.1,20.4,7.5-1,.1-2,.30005-3,.4,4.4,2.1,8.2,5.3,12.5,7.69995a2.48349,2.48349,0,0,0,2.5,0c3.3-2.5,5.6-5.8,8.4-8.69995-1,.1-2,.3-3,.4,3.2,2.3,5.7,5.4,8.5,8.19995a2.51066,2.51066,0,0,0,3.9-.5c3.4-5.19995,7.2-13.9,14.7-10.80005a2.33314,2.33314,0,0,0,2.4-.6c3.9-4.4,6.7-10.69995,11.7-13.8,8-4.9,18.9-2.2,27.6-5.7,2.9-1.19995,1.7-6-1.3-4.8-9.2,3.8-19.8,1.4-28.8,6.19995-5.6,3-8.7,10-12.8,14.6q1.2-.29992,2.4-.6c-10.1-4.1-15.7,5.9-20.4,13.1,1.3-.19995,2.6-.3,3.9-.5-3.1-3.1-5.9-6.4-9.5-9a2.42424,2.42424,0,0,0-3,.4c-2.5,2.6-4.5,5.80005-7.4,8h2.5c-4.3-2.4-8.1-5.6-12.5-7.69995a2.5683,2.5683,0,0,0-3,.4c-2.9,2.6-12.2-7.5-15.5-8.80005a2.427,2.427,0,0,0-2.8,1.1,31.5328,31.5328,0,0,0-2.6,25.1C616.8,1378.2,621.6,1376.9,620.6,1373.9Z" transform="translate(-139.02213 -174.03939)"/><path class="cls-2" d="M751.1,1331.9a27.34568,27.34568,0,0,1,5.5-6.69995c-1,.1-2,.3-3,.4,2.2,1.5,4.1,3.4,6.5,4.6a2.44435,2.44435,0,0,0,3.4-.9c2.3-4.4,8.2-5.1,12.4-6.6,3-1.1,1.7-5.9-1.3-4.80005-5.6,2-12.4,3.1-15.4,8.9,1.1-.30005,2.3-.6,3.4-.9-2.4-1.1-4.3-3.1-6.5-4.6a2.56828,2.56828,0,0,0-3,.4,33.21285,33.21285,0,0,0-6.3,7.69995C745.2,1332.2,749.5,1334.7,751.1,1331.9Z" transform="translate(-139.02213 -174.03939)"/><path class="cls-2" d="M635.4,1406.9a6.0641,6.0641,0,0,0,.6-2.4c-.4.69995-.8,1.4-1.2,2.19995,0,0,4.7.4,5.4.30005,3.3-.6,6.4-1.9,9.7-2.69995,6-1.5,10.7-.4,15-5.6-1,.1-2,.3-3,.4,3.4,1.6,6.8,5.69995,10.9,5.19995A8.209,8.209,0,0,0,676.6,1403c1.9-1.30005,2.7-2.1,5.6-1.6a12.59185,12.59185,0,0,0,2.7.4c4.7-.6,8.6-3.9,12.3-6.5,6-4.19995,11.9-4.9,19-4.30005,5.6.5,11.1,1.1,16.6-.6,4.6-1.4,8.4-5,12.1-8,2.9-2.4,5.9-2.6,9.5-3.19995a70.7231,70.7231,0,0,0,16.9-4.7c3-1.3.4-5.6-2.5-4.3A77.43542,77.43542,0,0,1,753.1,1374.4c-2.8.5-6,.7-8.6,2.1-3.5,1.9-6.3,5.19995-9.7,7.4-5.2,3.30005-11.1,2.9-16.9,2.30005-5.3-.5-10.3-.7-15.5.8-4.8,1.30005-8.7,4.9-12.8,7.5-2.5,1.6-4.4,2.30005-7.3,1.9a9.75182,9.75182,0,0,0-4.8.4c-2.4,1.1-4.3,3.19995-7.1,1.9-2.2-1-3.8-2.80005-6-3.9a2.40545,2.40545,0,0,0-3,.4c-2.7,3.3-5.6,3.3-9.5,3.8a38.309,38.309,0,0,0-8.7,2.2,26.77384,26.77384,0,0,1-4.9,1.1c-1.6.19995-3.1-1-4.7-.5a3.59208,3.59208,0,0,0-2.3,2.69995c-1.5,2.79993,2.8,5.3999,4.1,2.3999Z" transform="translate(-139.02213 -174.03939)"/><path class="cls-12" d="M1854.80005,945.4c8.9,9.1.69995,21.7-5.19995,33.2-15.5,30.2-33.6,58.1-52.6,86.3-26.19995,39-52.3,74.30005-78,112.9-26,39.19995-54.19995,77.4-76.6,113.9-11.6,19-21.6,37.19995-28.19995,59.4-6.4,21.19995-9.5,43-14.9,63-11.5,42.5-37.4,80.3-66.30005,116.69995-32.1,40.30005-58.6,70.69995-90.3,109.6-44.80005,55.1-82.9,110.1-133.5,165.5-26.9,29.5-63.80005,67.2-101.2,58.80005-34.69995-7.80005-80.4-49.7-74.9-94.6,2.19995-17.7,14.6-41.2,24.6-58.2,32.9-55.8,77.1-109.69995,115.5-162.1,26.69995-36.4,53.69995-74.80005,77.19995-108.19995,24.6-34.9,50.9-74,87.5-105.4,20.6-17.7,44.80005-28.80005,70.9-42.30005,24.5-12.69995,44.5-30.4,61.80005-47.5,33.3-32.9,61.3-70.69995,90.5-104.6,29.9-34.69995,58-70,88.5-105.1,19.8-22.8,47.6-53.4,72.6-77,4.6-4.3,22.5-23,30.69995-15.9A12.39865,12.39865,0,0,1,1854.80005,945.4Z" transform="translate(-139.02213 -174.03939)"/><path class="cls-13" d="M1747.9,1075.80005c6,4.6,11.9,9.4,17.2,13.5,2.3,1.80005,5.69995,4.80005,9.69995,8.1,7.4-10.6,14.80005-21.3,22.2-32.4,18.9-28.19995,37.1-56.1,52.6-86.3,5.9-11.5,14.1-24.1,5.19995-33.2a12.18693,12.18693,0,0,0-1.8-1.6c-8.2-7.2-26.1,11.5-30.7,15.9-25,23.6-52.8,54.2-72.6,77-7.19995,8.30005-14.30005,16.69995-21.30005,25a21.013,21.013,0,0,1,2.6,1.30005C1735.9,1065.80005,1742.1,1071.4,1747.9,1075.80005Z" transform="translate(-139.02213 -174.03939)"/><path class="cls-13" d="M1133.1,1770.1c-5.5,44.9,40.19995,86.8,74.9,94.6,37.4,8.4,74.30005-29.30005,101.19995-58.80005,23.5-25.8,44.30005-51.5,64.4-77.19995-12.4-5-24.30005-9.1-36-15.19995A303.778,303.778,0,0,1,1295.4,1686.7c-19.3-14.5-40.6-32.5-59.5-54.1a188.963,188.963,0,0,1-12.8-15.9c-23.4,31.19995-46.2,62.9-65.4,95.30005C1147.7,1729,1135.30005,1752.4,1133.1,1770.1Z" transform="translate(-139.02213 -174.03939)"/><path class="cls-14" d="M1507.9,1432.80005a20.50169,20.50169,0,0,1,4,5.5c4.9,11.6-3.19995,28.19995-8.9,38.80005-6.69995,12.6-12.80005,20.9-22.19995,35.19995-7,10.69995-15.5,25.6-22.19995,35.19995-6.9,10-18.6,27.9-31.5,31-10.9,2.69995-25.80005-7.69995-34.7-13.80005-11.5-7.9-25.19995-16.80005-29-31-2.9-10.9,7.80005-25.1,14.80005-36.1,14.5-23,31.1-45.1,49-67,8.1-9.80005,19.3-27.1,30.19995-30.30005,9.5-2.8,19.5,6.6,26.5,11.6C1493.30005,1418.7,1500.6,1422.80005,1507.9,1432.80005Z" transform="translate(-139.02213 -174.03939)"/><line class="cls-15" x1="300.07788" y1="205.76059" x2="192.17789" y2="113.26059"/><path class="cls-2" d="M407.1,384l1.5,1.3.4.4-11.7,13.5,15.9,16.5,1,1,1.6,1.7L403,433.2l349.3,270L777.7,672l170.6,134.1-13.6,17.3a18.94357,18.94357,0,0,0,26.6-3.2l22.3-28.4a18.94356,18.94356,0,0,0-3.2-26.6l-13.3,17L796.9,648.4l28.4-34.8L479.4,345l-9.2,10.6-.6-.4-9.2-7.2-11-8.7-12.2,14-.4-.4-8.1-7-13-11.3-28.7,32.1Z" transform="translate(-139.02213 -174.03939)"/><polygon class="cls-16" points="670.078 439.661 611.578 513.261 313.278 286.061 280.378 261.061 341.278 188.461 341.478 188.561 670.078 439.661"/><rect class="cls-17" x="497.21771" y="1519.26498" width="223.49371" height="366.48968" transform="translate(-1331.31228 1370.80306) rotate(-65.3161)"/><circle class="cls-2" cx="401.57785" cy="1488.06058" r="59.80002"/><line class="cls-18" x1="376.67789" y1="1434.96061" x2="432.97787" y2="1538.76065"/><circle class="cls-2" cx="546.77786" cy="1556.16056" r="59.80002"/><line class="cls-18" x1="521.8779" y1="1503.06058" x2="578.17789" y2="1606.86063"/><path class="cls-2" d="M1379.4,1323l-315.6,129.69995a41.13724,41.13724,0,0,1-53.8-22.5L995.50006,1395a41.13731,41.13731,0,0,1,22.5-53.80005l315.6-129.69995a41.13735,41.13735,0,0,1,53.8,22.5l14.5,35.19995A41.37471,41.37471,0,0,1,1379.4,1323Z" transform="translate(-139.02213 -174.03939)"/><rect class="cls-19" x="1119.8816" y="1288.52552" width="139.09942" height="94.79967" transform="translate(-557.62105 378.50727) rotate(-22.34617)"/><circle cx="891.8779" cy="1191.16056" r="6.80005"/><circle cx="931.27792" cy="1207.26065" r="6.80005"/><circle cx="915.3779" cy="1245.36063" r="6.80005"/><circle cx="1192.27792" cy="1067.66056" r="6.80005"/><circle cx="1175.67783" cy="1106.86063" r="6.80005"/><circle cx="1213.67783" cy="1122.76065" r="6.80005"/></svg>