<svg xmlns="http://www.w3.org/2000/svg" viewBox="0 0 848.95638 755.53296"><defs><style>.cls-1{fill:#666;}.cls-2{fill:#e5d1bd;}.cls-3{fill:#20252d;}.cls-4{fill:#305399;}.cls-5{fill:#bcbec0;}.cls-6{fill:#404c60;}.cls-7{fill:#3b455a;}.cls-8{fill:#7db5db;}.cls-9{fill:#587bc9;}.cls-10,.cls-14,.cls-31{fill:#fff;}.cls-10{opacity:0.66;}.cls-11{opacity:0.18;}.cls-12{fill:#eacdb0;}.cls-13{fill:#534741;}.cls-15{opacity:0.2;}.cls-16,.cls-29{opacity:0.1;}.cls-17,.cls-25,.cls-28,.cls-29{fill:#272525;}.cls-18{fill:#d7e8f4;}.cls-19,.cls-25{opacity:0.05;}.cls-20{fill:#ebceb1;}.cls-21{fill:#eaf3f9;}.cls-22{opacity:0.04;}.cls-23{fill:#eac5b0;}.cls-24{fill:#ceae9f;}.cls-26{fill:#e3e4e5;}.cls-27{fill:#a3aab0;}.cls-28{opacity:0.03;}.cls-30{fill:#6ca4c4;}.cls-31{opacity:0.3;}</style></defs><g id="Shadow"><path class="cls-1" d="M453.3597,680.1181c-24.4518.084-48.9034.7617-73.3118,3.8918-9.2032,1.1803-18.2134,3.7764-27.4375,4.8235-18.4249,2.0916-36.5199,5.9933-55.0101,7.7931-14.8897,1.4494-29.8421,2.3046-44.6888,4.1435a136.68276,136.68276,0,0,1-43.1417-1.522c-10.2253-2.1086-20.4976-3.2956-30.5514-6.6826-11.2466-3.7888-23.4648-6.4975-35.1827-6.4-16.7095.1389-32.9822.1552-48.9732,6.8449-5.6134,2.3483-12.4852,6.2086-16.7479,11.137-9.758,11.2817-11.0788,39.4319-1.3356,51.1329,16.4107,19.6932,51.4358,27.4203,74.4386,27.785,25.2064.3997,49.6935-1.7576,74.937-3.0262,23.4565-1.1788,46.8545-2.856,70.3498-2.797,47.9868.1207,95.98.0002,143.8805-3.6958,45.0032-3.4725,90.1197-2.2803,135.2218-2.2803,46.2502,0,92.1877.4192,138.1041,7.5062,20.0066,3.088,40.3885,4.1689,60.4951,6.3324,18.0075,1.9376,35.3118-.0382,53.2477-1.8289a114.1331,114.1331,0,0,0,43.7046-13.5025c10.8305-5.9677,30.1384-24.5073,33.4597-38.752,9.3113-39.9346-131.2244-38.9746-152.8021-38.8847-24.1386.1005-48.4686,1.016-72.5882-.0451-10.1458-.4463-20.1424-2.7326-30.0446-5.238-9.863-2.4956-19.8005-1.861-29.8027-2.9098-41.7104-4.3735-83.5139-3.7344-125.3573-3.7344C480.6068,680.2088,466.9832,680.0713,453.3597,680.1181Z" transform="translate(-70.30003 -30.3699)"/></g><g id="Object"><path class="cls-2" d="M319.1662,729.8072c-3.2423.1097-6.3578-.6183-9.5418-.9119-1.6436-31.5677,1.3397-64.6523,2.6337-96.37l24.3285,1.2981a283.46423,283.46423,0,0,0-12.0361,52.1502C324.1768,688.7804,319.6283,729.7916,319.1662,729.8072Z" transform="translate(-70.30003 -30.3699)"/><path class="cls-3" d="M308.6428,722.7718c-2.0018-.3566-3.1823.5343-4.5172,1.7537-.775.7079-1.3019,1.7102-2.2366,2.2171a7.35372,7.35372,0,0,1-2.9628.7177c-5.8502.5881-19.3282.3441-12.1479,10.1283,6.5207,8.8855,23.8384,5.3484,33.842,2.9347a3.44289,3.44289,0,0,0,1.8348-.7667,4.70591,4.70591,0,0,0,1.0124-1.986c1.1416-4.1809,2.7024-9.4016-2.4383-11.1535-2.193-.7473-4.2127.7046-6.5339-.1001C312.5936,725.8578,310.6445,723.1284,308.6428,722.7718Z" transform="translate(-70.30003 -30.3699)"/><path class="cls-4" d="M294.0751,651.5647l49.6136-.9621q20.06715-95.52915,35.3291-191.984c.7885-4.9835,1.5562-10.1663.1201-15.0031-2.7162-9.1483-12.5135-14.3682-21.8942-16.1208-14.5774-2.7235-41.361,1.0693-48.8365,16.2253-7.9006,16.0179-6.5743,44.6255-8.4904,62.3255A1075.94478,1075.94478,0,0,0,294.0751,651.5647Z" transform="translate(-70.30003 -30.3699)"/><path class="cls-2" d="M413.7423,729.8072c3.2424.1097,6.3578-.6183,9.5418-.9119,1.6436-31.5677-1.3396-64.6523-2.6337-96.37l-24.3284,1.2981a283.48052,283.48052,0,0,1,12.0361,52.1502C408.7317,688.7804,413.2802,729.7916,413.7423,729.8072Z" transform="translate(-70.30003 -30.3699)"/><path class="cls-3" d="M424.2658,722.7718c2.0017-.3566,3.1823.5343,4.5171,1.7537.7751.7079,1.3019,1.7102,2.2366,2.2171a7.35413,7.35413,0,0,0,2.9628.7177c5.8502.5881,19.3282.3441,12.1479,10.1283-6.5207,8.8855-23.8384,5.3484-33.8419,2.9347a3.44223,3.44223,0,0,1-1.8348-.7667,4.70719,4.70719,0,0,1-1.0125-1.986c-1.1416-4.1809-2.7023-9.4016,2.4384-11.1535,2.1929-.7473,4.2127.7046,6.5339-.1001C420.3149,725.8578,422.2641,723.1284,424.2658,722.7718Z" transform="translate(-70.30003 -30.3699)"/><path class="cls-4" d="M438.8334,651.5647l-49.6136-.9621q-20.067-95.52915-35.3291-191.984c-.7885-4.9835-1.5562-10.1663-.1201-15.0031,2.7162-9.1483,12.5136-14.3682,21.8942-16.1208,14.5775-2.7235,41.361,1.0693,48.8365,16.2253,7.9006,16.0179,6.5744,44.6255,8.4904,62.3255A1075.92847,1075.92847,0,0,1,438.8334,651.5647Z" transform="translate(-70.30003 -30.3699)"/><path class="cls-2" d="M233.7761,244.6422a3.41186,3.41186,0,0,1,.8935.3676c2.4436,1.6144,2.7512,3.9193,4.6532,6.1339.8483.9878,4.1659.5348,3.3976,3.1429-.2834.9625-1.3118,3.2251-1.936,5.2713-.9102,2.9842-.2601,7.3169.891,10.6616,4.5221,13.1413,12.4958,24.6878,20.7414,35.8616a4.98926,4.98926,0,0,0,1.6813,1.6432c1.2725.6243,2.7804.0858,4.1009-.4294a106.25085,106.25085,0,0,1,18.9311-5.4246c5.7641-1.0858,11.7774-1.6823,17.4464-.177,5.669,1.5052,10.9678,5.4592,12.7323,11.0529a13.92675,13.92675,0,0,1-2.2167,12.4785c-6.6546,8.6242-22.0368,4.5469-31.3507,3.8966a189.05254,189.05254,0,0,1-26.2201-3.6884,8.13509,8.13509,0,0,1-3.0547-1.1057,8.26342,8.26342,0,0,1-2.1612-2.7008,412.58531,412.58531,0,0,1-20.2044-40.0762c-1.6985-3.7622-1.2033-7.9396-2.8053-11.4044-1.0223-2.2111-3.4147-3.2106-4.8412-5.0834a22.69534,22.69534,0,0,1-3.4189-6.8861c-1.2377-4.4191,1.6838-8.1518,3.9156-11.6643a4.92542,4.92542,0,0,1,1.7719-1.9482c1.3719-.7824,2.8907-.578,4.4049-.4293A13.80149,13.80149,0,0,1,233.7761,244.6422Z" transform="translate(-70.30003 -30.3699)"/><path class="cls-5" d="M287.2521,326.7768q-3.14505-12.8325-6.2902-25.6649c.1345.5491,38.2369-11.8888,40.5307-12.5516,8.7533-2.5296,17.8426-5.0848,26.8522-3.7266,19.2382,2.9001,25.3485,27.7725,8.1021,38.1486-18.7224,11.2641-43.3196,16.3263-64.9894,13.988a2.75487,2.75487,0,0,1-1.3485-.3916,2.80979,2.80979,0,0,1-.8706-1.6977Z" transform="translate(-70.30003 -30.3699)"/><path class="cls-5" d="M396.4273,302.3434a118.22848,118.22848,0,0,1,29.1723,45.6194c10.593,29.734,10.797,61.4816,10.8943,92.5917q.0486,15.53115.0972,31.0623c.0325,10.1869-.8688,12.3799-11.9398,11.0369-20.5159-2.4889-41.8437-6.7182-60.433-15.8352-8.8459-4.3385-17.1125-9.8181-26.3877-13.2343-13.4902-4.9685-27.3217-2.719-40.669-5.952,3.3859-10.2341,8.4473-19.5796,10.8016-30.3163a222.55586,222.55586,0,0,0,4.2106-32.7059c1.2958-19.1791,3.6832-38.2451,5.1213-57.3525,1.0301-13.6854-.7731-24.8939,13.7838-33.8703,7.9243-4.8864,22.3401-13.2488,33.5211-10.987C376.4646,284.8004,389.0164,295.29,396.4273,302.3434Z" transform="translate(-70.30003 -30.3699)"/><path class="cls-2" d="M348.5873,258.7233c2.504,5.4731,6.5958,10.0346,9.9367,15.0411,3.2504,4.8708,4.4191,9.2776,5.2814,14.9254.6228,4.0789,2.0808,7.267,6.9938,7.9652,9.2667,1.3169,6.6168-6.3397,8.7218-11.9095,2.4062-6.3667,7.5369-11.3975,11.1225-17.0802,10.3609-16.4205,7.4039-48.877-14.1313-55.8029C352.9661,204.2898,340.9884,242.1145,348.5873,258.7233Z" transform="translate(-70.30003 -30.3699)"/><path class="cls-6" d="M386.1219,242.833c2.6734.1079,5.6132.3195,7.5958,2.115,1.9827,1.7956,1.7674,5.7113-.8496,6.1343-2.373.3836-5.4448-2.0921-6.894-.285-.8469,1.0562-.1033,2.6015.5394,3.8367a22.54088,22.54088,0,0,1,2.0538,15.2849c.9762.9044,2.4985-.0343,3.3563-.9764a49.20181,49.20181,0,0,0,9.7612-16.0307,9.8296,9.8296,0,0,0,3.5884,3.4737c-.887-2.2155-.3257-4.6399.2218-6.9003,2.012-8.3063,3.3817-18.038-2.4193-24.8256-3.1034-3.6314-7.8233-5.7215-12.5695-6.5995-4.7463-.8779-9.584-.6649-14.367-.4483-2.0471.0926-4.5685.5336-5.06,2.4272,4.4884,1.7999,9.1324,5.3055,11.3795,9.5557C383.1486,230.8997,385.8493,242.822,386.1219,242.833Z" transform="translate(-70.30003 -30.3699)"/><path class="cls-7" d="M376.6362,222.8752q.24555.17835.4822.3585c2.0343,1.5485,3.942,3.4322,6.4044,4.119,3.5489.9899,7.3616-.7207,10.8551.4881,3.9057,1.3513,6.4729,6.0213,9.324,8.7857a41.31873,41.31873,0,0,0,16.6934,9.7587,41.74866,41.74866,0,0,0,9.7877,1.7489,17.31283,17.31283,0,0,0,4.9815-.0248c1.9676-.5301,1.8999-1.4243-.1963-2.096-6.5741-2.1064-8.6351-11.34-8.1381-17.4608.3922-4.8309,2.0585-9.881.2159-14.3639-1.4077-3.4249-4.4301-5.193-7.3518-7.1522-3.2226-2.1609-6.7164-1.5789-10.3753-2.6179-3.8173-1.084-6.9269-4.0897-10.8204-4.8565-4.1121-.8099-8.2219,1.0131-12.3361,1.8123a25.5268,25.5268,0,0,1-10.3155-.127c-3.0303-.6665-5.9876-1.8933-9.0902-1.8645-4.5755.0424-8.7837,2.8981-11.4537,6.614-3.777,5.2565-6.2186,14.2506-4.8879,21.1714-.2064-1.0739,3.4075-4.9648,4.1512-5.8019,1.5693-1.7662,3.4637-3.4221,5.8593-3.7076C365.8485,217.0123,372.2767,219.7095,376.6362,222.8752Z" transform="translate(-70.30003 -30.3699)"/><path class="cls-8" d="M402.0605,362.3597l46.9445,38.4315a35.70156,35.70156,0,0,1,5.198,50.2206l-.0001.0001a35.70162,35.70162,0,0,1-50.2582,4.8211l-46.9446-38.4314Z" transform="translate(-70.30003 -30.3699)"/><path class="cls-9" d="M403.405,363.4604,356.4604,325.029a35.70144,35.70144,0,0,0-50.2582,4.8211l-.0001.0001a35.70156,35.70156,0,0,0,5.198,50.2206l46.9446,38.4315Z" transform="translate(-70.30003 -30.3699)"/><path class="cls-10" d="M327.6469,329.4861a25.19786,25.19786,0,0,1,24.1916,6.5155c3.177,3.1089,7.6319-2.1042,4.4613-5.2065a32.17356,32.17356,0,0,0-30.9311-7.8146C321.1019,324.1554,323.3958,330.6567,327.6469,329.4861Z" transform="translate(-70.30003 -30.3699)"/><path class="cls-10" d="M314.5406,329.0097a3.38132,3.38132,0,0,0,1.2859,2.1173l.1449.1068a3.35106,3.35106,0,0,0,2.402.6002,3.19827,3.19827,0,0,0,2.6946-3.6626,3.38322,3.38322,0,0,0-1.2859-2.1173l-.1449-.1067a3.35256,3.35256,0,0,0-2.402-.6003,3.19841,3.19841,0,0,0-2.6946,3.6626Z" transform="translate(-70.30003 -30.3699)"/><g class="cls-11"><path class="cls-10" d="M320.6563,373.3965l45.6,37.3307,1.3446,1.1008,45.6,37.3307a35.85507,35.85507,0,0,0,36.8186,5.2776,35.75732,35.75732,0,0,1-46.5931.9724l-45.6-37.3307-1.3446-1.1008-45.6-37.3307a35.70157,35.70157,0,0,1-5.1979-50.2207,35.18728,35.18728,0,0,1,13.4396-10.0988,35.56275,35.56275,0,0,0,1.5328,54.0695Z" transform="translate(-70.30003 -30.3699)"/></g><path class="cls-2" d="M381.5058,436.2233a3.41029,3.41029,0,0,1-.045-.9651c.4285-2.8972,2.3868-4.1513,3.5884-6.8117.5359-1.1867-1.2785-4.0008,1.4097-4.4085.992-.1505,3.4772-.1762,5.5953-.4767,3.089-.4381,6.7395-2.8607,9.2825-5.3188a98.72615,98.72615,0,0,0,9.8231-10.6267,167.446,167.446,0,0,0,16.2584-26.1803,45.24974,45.24974,0,0,1-22.768-40.7738,10.48283,10.48283,0,0,1,1.1607-4.9528,9.04186,9.04186,0,0,1,3.1587-2.9238c13.085-7.977,20.0831,4.7624,26.1521,14.7915a149.79889,149.79889,0,0,1,10.0605,19.6071c3.9562,9.4577.8343,17.7166-4.6414,26.0742-5.8026,8.8564-11.8394,17.7245-19.4224,25.1762-3.6854,3.6215-7.7875,6.2888-11.8734,9.3689-4.0379,3.0441-2.4571,4.6715-5.3081,8.2431-1.5907,1.9927-2.8359,4.3247-4.7769,5.9932-3.4802,2.9915-8.0985,1.9241-12.2254,1.3885a4.92582,4.92582,0,0,1-2.5151-.781c-1.2894-.9119-1.7469-2.3745-2.2531-3.8093A13.81272,13.81272,0,0,1,381.5058,436.2233Z" transform="translate(-70.30003 -30.3699)"/><path class="cls-5" d="M433.2926,353.0133q-10.2957,8.28015-20.5914,16.5604c.4405-.3543-26.9533-29.613-28.5246-31.4108-5.9962-6.8604-12.1578-14.0143-14.74-22.7522-5.5138-18.6578,14.4358-34.7197,31.1355-23.4848,18.1288,12.1963,33.1248,32.3401,40.1766,52.9634a2.75621,2.75621,0,0,1,.2158,1.3875,2.81011,2.81011,0,0,1-1.1698,1.5073Q436.5436,350.3986,433.2926,353.0133Z" transform="translate(-70.30003 -30.3699)"/><path class="cls-12" d="M575.4051,284.9864a17.81528,17.81528,0,0,1,20.4906,1.3161l32.1523,25.9093c9.9853,8.0472,18.0023,18.0459,31.5719,18.2921,9.1231.1655,29.8225,6.4472,32.7037,16.7112a16.68009,16.68009,0,0,1,.0031,6.7487c-.3316,2.4262-1.5499,5.5753-3.9735,5.2257a4.76562,4.76562,0,0,1-2.7477-2.085c-2.142-2.6832-4.6412-5.5111-8.0332-6.042-5.6004-.8765-13.0249,2.9297-19.0053,3.2075-8.7131.4048-17.4407,1.3388-26.1382,2.011l-58.0887-41.6249A17.81564,17.81564,0,0,1,575.4051,284.9864Z" transform="translate(-70.30003 -30.3699)"/><path class="cls-8" d="M561.6784,278.7766c6.4818-7.6721,16.5383-11.5406,27.3925-7.0514q6.41835,2.65455,12.6301,5.7762c3.775,1.8972,32.2896,30.5007,31.3056,31.7132q-15.428,19.0089-30.8559,38.0179c-10.8372-6.1856-21.7819-12.4494-30.9164-20.9504-10.0295-9.3338-19.8281-22.4511-15.5443-36.4316A31.51068,31.51068,0,0,1,561.6784,278.7766Z" transform="translate(-70.30003 -30.3699)"/><path class="cls-12" d="M584.1729,601.7067l.7689,46.7583c-.3142,12.973.8546,25.9061,1.6438,38.8365.7331,12.0108-1.6879,24.3898,4.0105,35.5213,1.7868,3.4904,5.5895,5.9217,8.4824,1.8899,2.2292-3.1069,1.2034-8.484,1.7541-12.0907,4.1389-27.1059,11.8429-53.5402,15.6867-80.6971C620.5456,603.4776,609.5401,604.2283,584.1729,601.7067Z" transform="translate(-70.30003 -30.3699)"/><polygon class="cls-3" points="516.529 684.46 513.523 692.26 528.316 705.281 541.867 705.839 546.25 698.689 528.024 682.842 516.529 684.46"/><path class="cls-12" d="M551.0487,602.1621l-8.5287,45.982c-2.9561,20.5691-9.6761,40.6012-12.6323,61.1713-.6793,4.7294-.3371,9.9033-2.3138,14.365-1.9335,4.3643-5.7191,4.5372-9.0596,1.5759-4.4751-3.9672-2.4104-11.0553-2.3282-16.4743.5474-36.0985-2.292-71.6854-2.9751-107.8428a1.6104,1.6104,0,0,1,.3784-1.3183,1.55574,1.55574,0,0,1,1.1075-.214C518.2076,599.6413,550.8646,603.1551,551.0487,602.1621Z" transform="translate(-70.30003 -30.3699)"/><polygon class="cls-3" points="445.781 686.38 441.092 693.3 452.564 709.324 465.64 712.926 471.523 706.95 457.345 687.397 445.781 686.38"/><polygon class="cls-13" points="562.064 601.088 555.685 534.239 552.609 490.805 542.265 455.329 486.413 446.661 417.362 458.497 414.042 471.913 427.332 596.096 493.934 601.088 493.031 523.797 503.305 571.704 502.869 601.088 562.064 601.088"/><path class="cls-14" d="M499.7797,343.5408q-.14085,3.3855-.1959,6.7646c-.8081,45.854,1.7196,92.2921,2.0099,138.5262a513.23565,513.23565,0,0,1,71.5821-6.111c5.5469-.084,30.7662,3.8105,34.2776.4987,4.7649-4.4942-.4755-3.6478-.1267-9.5032.4512-7.5763-3.1888-13.7806-1.8138-22.7579,1.616-10.5511,4.8307-20.9872,6.6824-31.5365,5.0845-28.8639,3.8714-55.7703.1211-84.7847-2.1811-16.8747-5.1075-35.1779-14.3281-49.8507-6.5921-10.4901-20.0728-14.9613-32.0967-16.2416-24.5415-2.6131-49.0097,10.2265-58.3958,33.5015C502.2063,315.1629,500.3699,329.3641,499.7797,343.5408Z" transform="translate(-70.30003 -30.3699)"/><path class="cls-8" d="M573.2274,284.0429,555.5491,316.26q1.3857,48.8178,2.7715,97.6358.63855,22.498,1.2772,44.9961c.1479,5.208.2769,10.417.4435,15.6244.0748,2.3376-.5706,6.2724.7626,8.18,2.8943,4.1409,13.4742,2.8499,18.0895,3.213,7.1972.5661,14.4994,1.1544,21.2778,3.6391,4.5134,1.6544,8.791,4.1461,13.5514,4.8141a4.0181,4.0181,0,0,0,3.1055-.5072c.9392-.7591,1.0991-2.1053,1.1883-3.3096,2.1866-29.5312.1817-59.3779.8272-89.0481.6657-30.5959.7811-61.6938-7.3497-91.4489-3.0688-11.2302-7.4907-22.4554-14.6409-31.7515-8.6157-11.2014-15.2023-12.6787-28.7602-13.1747-3.9416-.1443-8.1133-.8159-6.5517,4.8981C562.7965,274.6145,570.1267,280.3538,573.2274,284.0429Z" transform="translate(-70.30003 -30.3699)"/><path class="cls-8" d="M534.7666,287.0728l17.6783,32.217c-.3701,0-2.2418,78.9735-2.3931,84.3037q-.8631,30.4077-1.7263,60.8154c-.1599,5.6345.5975,12.2346-.5046,17.7733-1.5387,7.733-9.6788,6.2104-16.6158,6.8358-15.1725,1.3679-31.1476,3.9584-46.3623,3.1901-4.389-.2217,1.3872-91.8105,1.3791-100.3572-.0295-30.7405-6.3713-64.8457,9.244-92.7223,4.5431-8.1105,12.5524-21.1137,21.3939-25.1184,8.2385-3.7316,20.0331-4.3668,28.9764-6.4584l.4659,5.796Z" transform="translate(-70.30003 -30.3699)"/><path class="cls-7" d="M557.5062,210.0669a35.66489,35.66489,0,0,1,7.2887,15.0129c.3418,1.4534.7624,3.1272,2.1108,3.7682,1.4437.6863.7132,2.9298,1.4437,1.508.7304-1.4217,3.1932-6.3459,3.0448-7.9374a58.94253,58.94253,0,0,0-2.1007-11.0198c-.9118-3.1267-2.1921-6.332-4.7357-8.3661a18.28279,18.28279,0,0,0-5.1589-2.5805,23.462,23.462,0,0,0-8.1239-1.946c-4.8274.0133-7.3709,2.2269-2.6412,4.7003A28.95733,28.95733,0,0,1,557.5062,210.0669Z" transform="translate(-70.30003 -30.3699)"/><path class="cls-12" d="M540.1994,278.1081c.4578,2.2498.4381,4.6777,2.7594,6.0511a6.94685,6.94685,0,0,0,3.769.7139,22.14972,22.14972,0,0,0,9.6384-2.5411,8.9182,8.9182,0,0,0,3.207-2.552c.945-1.3267.8048-2.389.5856-3.8507-.2569-1.7131-.2402-3.5066-.3438-5.2734-.2267-3.8639-.7267-7.7076-1.3366-11.5281,5.4058-2.0151,11.6351-5.0645,12.4382-11.2784a19.53788,19.53788,0,0,0-.4618-5.9302q-2.21145-12.1791-4.4227-24.3582c-.5099-2.8081-1.05-5.6992-2.5025-8.1199-2.5488-4.2478-7.3452-6.1594-11.8679-7.0779-11.5415-2.344-23.9974.1923-32.7112,8.2794a18.38156,18.38156,0,0,0-5.3703,7.9253c-1.495,4.896-.161,10.3396,1.1741,15.4105q1.8486,7.02075,3.6971,14.0417c1.4174,5.3834,3.4249,11.509,8.207,13.5892,2.539,1.1045,5.4992.8354,7.8127,2.4488,4.0381,2.816,3.4016,8.2839,5.194,12.2831A8.38209,8.38209,0,0,1,540.1994,278.1081Z" transform="translate(-70.30003 -30.3699)"/><path class="cls-7" d="M571.8094,238.3143c-.3751-1.4862-1.8651-5.7677-3.6025-2.5709a4.61119,4.61119,0,0,0-.2606,2.8578,10.39594,10.39594,0,0,1,.2453,2.9202c-.3032,2.2156-2.4296,3.5996-4.4908,3.9515a5.01727,5.01727,0,0,1-2.4775-.1113,7.525,7.525,0,0,1-2.1141-1.3162q-2.40675-1.8951-4.8134-3.7902c-2.7578-2.1717-7.0398-.1972-10.0179.7789a19.91038,19.91038,0,0,0-9.1896,5.7119c-.2456.2884-.4825.5877-.7201.8864a10.72417,10.72417,0,0,1-1.8964,1.9974c-2.4677,1.8374-6.0941,1.0931-8.4672-1.0218-1.088-.9693-2.1782-2.2755-3.57-2.2088a2.83554,2.83554,0,0,0-2.3342,2.1034c-1.347,4.1369.6565,12.4303,3.8671,15.1973,2.4863,2.1428,5.6493,3.5832,7.5357,6.2694,1.2714,1.8107,1.93,4.1438,3.7374,5.4198,2.0956,1.4795,4.9205,1.0053,7.4854,1.0438,2.5648.0387,5.6794,1.2839,5.8148,3.8456l4.1802,1.8124a2.25716,2.25716,0,0,0,.8915.2476c.8322-.0048,1.3865-.9123,1.4618-1.7411.0752-.8289-.1515-1.6653-.0589-2.4923.2642-2.3577,2.8094-3.6145,4.8917-4.7515a26.27413,26.27413,0,0,0,10.0837-9.8327c.8743-1.5096.0223-2.5826.4503-3.9178.3939-1.2281,1.4302-1.9672,2.0872-3.1319a21.42555,21.42555,0,0,0,2.2738-10.1077A31.85668,31.85668,0,0,0,571.8094,238.3143ZM550.789,255.7527c-2.2509.63-4.8079,1.0069-6.7253,2.4284-1.2651.938-2.4819-1.1833-1.2331-2.1091,2.0862-1.5468,4.8617-1.9897,7.3091-2.6749A1.22246,1.22246,0,0,1,550.789,255.7527Z" transform="translate(-70.30003 -30.3699)"/><path class="cls-7" d="M561.8054,193.6978c-.1967-1.6286-.4227-3.2222-1.6009-4.2681-1.0851-.9632-2.7568-1.1906-3.6134-2.3617-.4019-.5493-.5731-1.2506-1.0246-1.76-.7824-.8827-2.1277-.9241-3.3045-.8439a79.76315,79.76315,0,0,0-7.9127,1.1048c-2.0886.3568-3.8162,1.7422-5.9447,2.0399a77.19159,77.19159,0,0,0-8.0457,1.4046,32.991,32.991,0,0,0-14.0398,7.0791c-6.8426,6.0326-10.4923,13.7987-9.9929,22.9147.477,8.7087,5.3557,19.278,11.602,25.3995-.456-2.2563-2.7665-7.3449-2.6396-9.5954a19.52646,19.52646,0,0,1,.9348-6.5449,25.7942,25.7942,0,0,1,7.126-11.0322c5.1546-4.7708,11.5869-7.9949,18.2031-10.227,5.4793-1.8486,11.2068-3.7135,17.0434-3.8512,4.5178-.1067,8.7013.0219,4.5182-5.1149A8.23647,8.23647,0,0,1,561.8054,193.6978Z" transform="translate(-70.30003 -30.3699)"/><path class="cls-9" d="M708.1781,517.8525a42.48032,42.48032,0,0,0,1.961-34.6207l-17.5587-46.1123-35.7486-18.4749-39.1533-20.2343-35.7486-18.4749L534.1582,392.285a42.48,42.48,0,0,0-27.1069,21.6253L415.9194,590.2494l.0783.0426c-.227.3607-.4684.7121-.6648,1.0922-10.3873,20.0993,26.2158,59.6613,81.7555,88.3642s108.9841,35.6773,119.3714,15.578c.1964-.3801.3435-.7803.5064-1.1741l.0801.0393Z" transform="translate(-70.30003 -30.3699)"/><g class="cls-15"><path class="cls-14" d="M490.4597,464.844l23.9266-46.2977a32.19827,32.19827,0,0,1,43.3867-13.8216l28.8146,14.8914S537.4967,399.9979,490.4597,464.844Z" transform="translate(-70.30003 -30.3699)"/></g><path class="cls-7" d="M547.42169,340.82194H748.83237a3.84874,3.84874,0,0,1,3.84874,3.84874v85.63989a3.84874,3.84874,0,0,1-3.84874,3.84874H547.42155a3.84876,3.84876,0,0,1-3.84876-3.84876V344.67084a3.84889,3.84889,0,0,1,3.84889-3.84889Z" transform="translate(179.94693 -284.68068) rotate(27.32986)"/><rect class="cls-5" x="554.76553" y="305.37321" width="8.56124" height="72.16108" transform="translate(148.86959 -248.92259) rotate(27.33007)"/><rect class="cls-5" x="571.01633" y="313.77162" width="8.56119" height="72.16106" transform="translate(154.5394 -255.44611) rotate(27.33007)"/><rect class="cls-5" x="587.12823" y="322.09822" width="8.56119" height="72.16106" transform="translate(160.16075 -261.9139) rotate(27.33007)"/><rect class="cls-5" x="603.37898" y="330.49663" width="8.56124" height="72.16103" transform="translate(165.83055 -268.43743) rotate(27.33007)"/><rect class="cls-5" x="619.62978" y="338.89503" width="8.56124" height="72.16103" transform="translate(171.50037 -274.96097) rotate(27.33007)"/><rect class="cls-5" x="635.88058" y="347.29343" width="8.56124" height="72.16103" transform="translate(177.17018 -281.48451) rotate(27.33007)"/><rect class="cls-5" x="651.67323" y="355.45501" width="8.56124" height="72.16108" transform="translate(182.68013 -287.82414) rotate(27.33007)"/><rect class="cls-5" x="667.92403" y="363.85341" width="8.56124" height="72.16108" transform="translate(188.34995 -294.34768) rotate(27.33007)"/><rect class="cls-5" x="684.17478" y="372.25183" width="8.56124" height="72.16103" transform="translate(194.01975 -300.8712) rotate(27.33007)"/><rect class="cls-5" x="700.42558" y="380.65023" width="8.56124" height="72.16103" transform="translate(199.68957 -307.39474) rotate(27.33007)"/><rect class="cls-5" x="716.67639" y="389.04859" width="8.56121" height="72.16108" transform="translate(205.35937 -313.91829) rotate(27.33007)"/><rect class="cls-5" x="732.92719" y="397.44699" width="8.56121" height="72.16108" transform="translate(211.02918 -320.44183) rotate(27.33007)"/><g class="cls-16"><polygon class="cls-17" points="478.253 358.194 639.839 452.862 634.548 438.967 478.253 358.194"/></g><rect class="cls-18" x="486.58934" y="435.1667" width="156.79512" height="226.3979" transform="translate(-251.86185 768.15589) rotate(-62.67012)"/><g class="cls-19"><path class="cls-17" d="M418.5368,615.0573c11.1882,20.1359,40.4014,44.9751,78.5516,64.6911,55.5397,28.7029,108.9841,35.6773,119.3714,15.578.1964-.3801.3435-.7803.5064-1.1741l.0801.0393,78.3243-151.5567S591.4606,704.4231,418.5368,615.0573Z" transform="translate(-70.30003 -30.3699)"/></g><path class="cls-12" d="M522.4354,308.3087a17.8153,17.8153,0,0,1,10.5871,17.5929q-1.4937,20.5911-2.9875,41.1821c-.5592,7.7087-3.067,17.4108-1.0597,24.7265,3.5483,12.9316,12.3185,26.2681,18.5607,38.0951,3.1698,6.0054,6.2537,14.8896,11.2024,19.5859.9277.8804,11.6093,6.1665,11.5171,6.4991-.0056.0293-.565,2.9271-.565,2.9271l-2.9089-.6115-1.7371,1.1579,7.7715,4.1722-5.183,8.5566-11.6219.095c-3.3375-6.537-5.0654-14.0629-9.9043-19.7107-2.0465-2.3886-4.4638-4.4267-6.7047-6.6338-3.849-3.7909-7.1635-8.0666-10.6391-12.1901-3.3626-3.9895-7.5095-7.3382-10.7641-11.3093-7.2623-8.8613-14.4636-17.7734-21.6944-26.6605l1.1357-71.4537A17.81561,17.81561,0,0,1,522.4354,308.3087Z" transform="translate(-70.30003 -30.3699)"/><path class="cls-8" d="M519.7229,293.4889c9.9978.9589,18.9047,7.0225,21.3957,18.5012q1.473,6.78765,2.4445,13.6715c.5902,4.1834-6.6836,43.9117-8.2407,43.7933l-48.8227-3.7134c-1.0869-12.4309-2.1708-24.9945-.3848-37.3443,1.9609-13.5597,7.1634-29.0843,21.0949-33.5245A31.50987,31.50987,0,0,1,519.7229,293.4889Z" transform="translate(-70.30003 -30.3699)"/><path class="cls-12" d="M679.2465,355.1314a7.78564,7.78564,0,0,1-.3085,2.1624q-1.12065,3.87015-2.6023,7.6226a47.21028,47.21028,0,0,1,7.7614,2.4296,56.55082,56.55082,0,0,0,7.5251-8.2304,8.60551,8.60551,0,0,0,1.5248-2.7216c1.045-3.6923-.5283-9.2716-4.1998-10.3153-2.0692-.5882-4.1794-.8854-6.2425-1.6363-1.6549-.6024-3.7362-1.9674-5.5748-1.5906-3.0547.6262-3.6365,4.905-3.9774,7.4054-.2056,1.5082-1.6257,10.603,2.0427,7.1568.7832-.7358,1.1979-1.7947,1.9674-2.5447C678.7357,353.3359,679.2145,354.019,679.2465,355.1314Z" transform="translate(-70.30003 -30.3699)"/><path class="cls-5" d="M262.7083,687.7307a9.75389,9.75389,0,0,0-1.0131-1.871c-2.2914-3.3585-6.0516-5.5927-9.7032-7.6973-9.1668-5.2833-18.5713-10.5063-28.999-13.1479-15.6406-3.9622-32.0271-1.7023-47.3905,2.2047-13.9127,3.5382-30.2053,6.9154-43.1787,12.6623-4.7885,2.1211-9.804,6.0545-8.9607,10.8844a11.64682,11.64682,0,0,0,2.6517,4.9512,74.49317,74.49317,0,0,0,11.8048,11.9255,35.45973,35.45973,0,0,0,9.4762,5.7924c4.0838,1.558,8.5605,1.9771,12.9689,2.2816,20.3117,1.4033,41.02.5748,60.8422-3.9652C230.9327,709.5238,268.0287,701.0371,262.7083,687.7307Z" transform="translate(-70.30003 -30.3699)"/><path class="cls-9" d="M175.332,516.3556c5.1895-.5806,10.4752-.6669,15.5682-.9929,5.5784-.357,11.7353-4.4885,16.7831-2.8024,3.3254,1.1107,6.0009,3.5736,8.4971,6.0355,40.4113,39.8557,61.832,98.1854,56.8195,154.7223-.5676,6.4023-1.6828,13.3985-5.2818,18.8777-6.6198,10.0782-21.7846-1.4675-30.4561-3.8968l-18.5733-5.2032a171.46521,171.46521,0,0,0-18.5063-4.4525c-21.4618-3.5082-43.1192,1.2972-63.5815,7.6317-4.7357,1.466-10.8613,4.9098-15.7629,5.1858-4.314.2429-4.4883.716-4.5057-3.9206-.0227-6.0618,4.6205-12.6521,6.7092-18.2a284.65954,284.65954,0,0,0,15.545-61.2317c3.1693-22.9357,3.5743-46.4957,10.3435-68.7976,2.3305-7.6781,4.3206-15.7055,11.9897-19.2725A45.95161,45.95161,0,0,1,175.332,516.3556Z" transform="translate(-70.30003 -30.3699)"/><path class="cls-20" d="M162.7242,484.2345c13.0931,4.5336,28.6824-1.9633,41.0747,4.0845,8.0574,3.9322,12.6772,12.6218,12.8828,21.0507.1713,7.0272-.4838,16.3117-7.3313,20.7501-4.6665,3.0249-10.5468,4.0852-16.2362,5.0334-5.1956.8659-10.7558,1.6688-15.6508-.199-4.3033-1.6421-7.3919-5.1053-9.9035-8.6386-5.043-7.0946-9.2962-18.924-8.7266-27.3114C159.1788,493.9145,160.9391,489.0332,162.7242,484.2345Z" transform="translate(-70.30003 -30.3699)"/><path class="cls-7" d="M195.1765,488.5025q-.77325-.1251-1.5463-.2181a52.72587,52.72587,0,0,0-22.2635,2.1646c-4.9033,1.5597-10.1559,4.572-10.8455,10.2201a23.67909,23.67909,0,0,0,.7394,7.6428q.9849,4.731,1.97,9.4619a3.43859,3.43859,0,0,1,.0618,1.7166c-.5258,1.6782-3.1088,1.4942-4.4158.3158-4.7636-4.2969-11.0185-11.3449-13.4325-17.2401-1.9688-4.8082-1.3192-11.02-4.3367-15.3293-1.9946-2.8486-3.5484-7.2734-6.5502-8.9535-4.1183-2.3048-8.3398-4.7647-11.1115-8.5844s-3.7016-9.3898-.9258-13.2066c2.6419-3.6328,7.6425-4.5899,12.1342-4.5504s9.116.7667,13.3874-.6231c1.8509-.6023,3.5925-1.5933,5.5235-1.8632,6.3177-.8792,15.887,1.5598,21.4213,4.7819,5.1612,3.0048,10.0466,6.8212,15.8808,8.0985,4.68,1.0246,9.5745.3125,14.3184.9821a26.94915,26.94915,0,0,1,19.0812,13.1416c4.5038,7.741,5.8693,18.3112.9783,26.031a91.49472,91.49472,0,0,0-6.0988,12.1953c-.64,1.4475-4.8377,7.159-5.4222,2.1422-.4535-3.8942.3612-7.856-.1189-11.7469C212.4347,495.598,204.0189,489.9338,195.1765,488.5025Z" transform="translate(-70.30003 -30.3699)"/><path class="cls-18" d="M244.8786,380.647c-14.4284-7.6321-33.1088-13.4664-53.9031-16.0893-20.7941-2.6228-40.3381-1.61-56.2099,2.2002l-33.9362-4.2806-4.3231,37.4645c1.4388,22.1985,37.3615,43.9723,83.722,49.82,46.3606,5.8477,86.565-6.3238,93.4711-27.4697l5.1155-37.3645Z" transform="translate(-70.30003 -30.3699)"/><g class="cls-16"><path class="cls-17" d="M245.8684,412.7264l-.0001.0009s-28.7111,41.6925-90.3754,32.1891a182.363,182.363,0,0,0,24.7354,4.8454c46.3606,5.8477,86.565-6.3238,93.4711-27.4697l5.1155-37.3645C277.2436,397.385,264.657,407.1823,245.8684,412.7264Z" transform="translate(-70.30003 -30.3699)"/></g><path class="cls-21" d="M195.1958,331.1005c-49.1495-6.1995-91.3987,7.8485-94.3665,31.377-2.2135,17.5489,18.0541,35.414,48.8918,45.934l65.2649-73.7248A184.76766,184.76766,0,0,0,195.1958,331.1005Z" transform="translate(-70.30003 -30.3699)"/><path class="cls-21" d="M227.4217,338.1613,162.002,412.0604a183.54589,183.54589,0,0,0,22.4466,4.244c49.1495,6.1995,91.3987-7.8485,94.3664-31.3766C281.088,366.9078,259.6598,348.5529,227.4217,338.1613Z" transform="translate(-70.30003 -30.3699)"/><path class="cls-18" d="M215.1443,334.7377l-65.2657,73.7257q5.7489,1.9539,11.9636,3.5519l65.4143-73.8934Q221.42285,336.2481,215.1443,334.7377Z" transform="translate(-70.30003 -30.3699)"/><path class="cls-5" d="M131.5778,583.7368c-8.0405,20.3851-9.7978,43.8769-8.0652,66.4661a311.54064,311.54064,0,0,0,5.2318,36.3888c2.1904,11.1108,6.1233,22.4894,7.1956,33.66,6.8717-.1243,13.7675,2.0603,20.54.8902a2.394,2.394,0,0,0,1.0823-.3862,2.54335,2.54335,0,0,0,.7181-1.2289c1.5164-4.3093,3.2009-7.8822,4.1635-12.4327q1.65255-7.8111,3.0204-15.679,2.749-15.8028,4.3612-31.7756a454.89246,454.89246,0,0,0,1.9325-64.358q-.1185-2.8977-.2744-5.7937C169.6891,556.1494,142.1904,556.8306,131.5778,583.7368Z" transform="translate(-70.30003 -30.3699)"/><path class="cls-3" d="M135.2693,734.4846a3.40428,3.40428,0,0,0,.6147.9257c2.9013,3.1047,9.2872,6.3503,13.1074,8.2604a20.477,20.477,0,0,0,3.549,1.9241c2.9987,1.1458,6.3337.8231,9.5206.4374,3.0355-.3673,6.7806-1.4328,7.2473-4.4547.2763-1.7884-.8048-3.4752-1.836-4.9623a7.49186,7.49186,0,0,0-2.2598-2.4021,8.72846,8.72846,0,0,0-2.001-.7102,25.8355,25.8355,0,0,1-6.9059-3.089,99.5647,99.5647,0,0,0-.4709-13.9854c.0705.675-11.507.1266-12.5356-.006-4.7105-.6073-4.7924,2.1268-5.9267,6.4602C136.5251,726.1199,133.8813,731.4236,135.2693,734.4846Z" transform="translate(-70.30003 -30.3699)"/><path class="cls-5" d="M174.9621,584.0575c-5.5021,21.2115-4.39,44.7427.0764,66.9536,4.8148,23.9438,13.3358,46.8732,22.0626,69.561q10.984-1.6194,21.9682-3.2386c3.4743-20.1299,3.504-41.662,3.0962-62.0854a454.87977,454.87977,0,0,0-5.9108-64.5762q-.4731-2.88225-.9836-5.7583C209.4363,552.0408,182.2245,556.0606,174.9621,584.0575Z" transform="translate(-70.30003 -30.3699)"/><path class="cls-3" d="M220.6436,732.5041q-7.1145,4.48725-14.2292,8.9744a20.47691,20.47691,0,0,1-3.549,1.9242c-2.9986,1.1457-6.3336.823-9.5205.4374-3.0356-.3674-6.7806-1.4328-7.2474-4.4547-.2762-1.7885.8048-3.4753,1.836-4.9624a7.49079,7.49079,0,0,1,2.2599-2.402,8.72231,8.72231,0,0,1,2.001-.7103,25.83236,25.83236,0,0,0,6.9059-3.089,99.56572,99.56572,0,0,1,.4709-13.9854,47.43629,47.43629,0,0,0,15.4659-.4925C216.3234,720.5721,218.6815,726.5226,220.6436,732.5041Z" transform="translate(-70.30003 -30.3699)"/><path class="cls-20" d="M111.571,426.3515a3.877,3.877,0,0,1,2.47-1.4545,35.30978,35.30978,0,0,0,7.9208-3.0285,5.09611,5.09611,0,0,1,2.0964-.7616,3.57151,3.57151,0,0,1,3.5692,4.1484c-.5593,2.0522-3.2784,3.3399-4.6154,4.753-1.4009,1.4806.15,3.91,2.0539,3.6685a3.608,3.608,0,0,0,2.4377-1.7321c.2661-.4099.5167-.8854.9733-1.0596,3.2823-1.252-.2086,7.3537-1.4322,8.2772a17.52361,17.52361,0,0,0-4.5959,5.6973c-1.0951,1.9857-3.1037,5.48-2.8442,7.6822-.7449.681-.4458,1.6767-.8514,2.7539a22.11152,22.11152,0,0,0-9.7918-2.9111,77.82587,77.82587,0,0,1,1.5967-22.8777A9.16713,9.16713,0,0,1,111.571,426.3515Z" transform="translate(-70.30003 -30.3699)"/><path class="cls-9" d="M106.4783,453.6229c-1.5624,8.9648-4.1582,17.965-5.6134,26.9482-1.835,11.3273-3.2291,22.7224-4.3696,34.1393a38.11288,38.11288,0,0,0-.1206,9.6787c.8833,5.63,5.2012,10.6908,9.589,14.0629a253.19436,253.19436,0,0,0,40.7051,25.5285c.7588.3807,7.9174-17.8273,8.4706-19.5103,2.2613-6.8786,3.2589-13.6487,4.3879-20.754a1.83881,1.83881,0,0,0-.0863-1.2191,1.85989,1.85989,0,0,0-1.4765-.663q-13.98525-1.6458-27.8312-4.275c-3.8437-.7299-8.7176-.5426-10.7409-4.3983-1.5225-2.9012-1.0517-6.378-.6527-9.4912q1.0416-8.1258,1.7502-16.2897,1.44645-16.64955,1.5066-33.3811c.0059-1.7029-13.1875-5.0677-14.7963-5.1438C107.0002,450.443,106.7556,452.0324,106.4783,453.6229Z" transform="translate(-70.30003 -30.3699)"/><path class="cls-20" d="M264.52,435.2781a4.0583,4.0583,0,0,0-2.5856-1.5226,36.95668,36.95668,0,0,1-8.2915-3.1703,5.33506,5.33506,0,0,0-2.1946-.7972c-2.315-.0956-4.2889,2.3146-3.7362,4.3426.5855,2.1483,3.4319,3.4962,4.8314,4.9754,1.4665,1.55-.1569,4.093-2.1499,3.8402a3.77693,3.77693,0,0,1-2.5519-1.8131c-.2785-.4291-.5408-.9269-1.0189-1.1093-3.4359-1.3105.2184,7.6979,1.4993,8.6646a18.34638,18.34638,0,0,1,4.811,5.964c1.1464,2.0786,3.249,5.7365,2.9774,8.0417.7797.7129.4666,1.7553.8912,2.8828a23.14684,23.14684,0,0,1,10.2501-3.0473,81.46728,81.46728,0,0,0-1.6715-23.9485A9.5931,9.5931,0,0,0,264.52,435.2781Z" transform="translate(-70.30003 -30.3699)"/><path class="cls-9" d="M266.1547,462.1428c1.4211,8.1535,3.782,16.3392,5.1055,24.5095,1.6689,10.3023,2.9369,20.6662,3.9742,31.05a34.66349,34.66349,0,0,1,.1097,8.8027c-.8034,5.1206-4.7305,9.7234-8.7213,12.7904a230.27716,230.27716,0,0,1-37.0216,23.2183c-.6901.3463-7.2008-16.2141-7.704-17.7448-1.0235-3.1132-2.2706-6.1671-3.2177-9.2131-.9091-2.9238.0326-6.2298-1.8349-8.8937-1.1784-1.6811-3.1953-2.5659-4.5967-4.0661-.7368-.7886-1.2371-2.1708-.3956-2.8466a2.17418,2.17418,0,0,1,1.2025-.3617,20.07206,20.07206,0,0,1,9.1912,1.3896c3.7784,1.5301,6.0331,2.2636,10.0952,1.6334q6.1668-.9567,12.2992-2.1175c3.4958-.6639,7.9287-.4935,9.7689-4.0003,1.3847-2.6387.9566-5.8009.5937-8.6323q-.9474-7.3905-1.5918-14.8156-1.31565-15.143-1.3703-30.3603c-.0054-1.5489,11.9941-4.6091,13.4573-4.6784C265.6801,459.2506,265.9026,460.6962,266.1547,462.1428Z" transform="translate(-70.30003 -30.3699)"/><path class="cls-2" d="M766.3051,717.9708c-3.0712.2038-5.8811-.875-8.8572-1.2098a152.89271,152.89271,0,0,1,3.5463-30.9772c4.6289,5.1388,8.5268,2.1517,8.3692,11.8067C769.3124,700.7159,765.703,713.2151,766.3051,717.9708Z" transform="translate(-70.30003 -30.3699)"/><path class="cls-3" d="M756.7758,711.5315c-3.4926-1.2498-4.2805,7.0907-4.3072,9.0516a14.58819,14.58819,0,0,1-.176,3.5201,9.41952,9.41952,0,0,1-1.9647,3.3242l-5.0726,6.377a11.07682,11.07682,0,0,0-1.941,3.0857c-1.0098,2.8528.6581,6.2363,3.3599,7.6017,9.3737,4.735,17.9361-6.7307,19.9663-14.3003.3111-1.1602.5382-2.341.7651-3.5206.4692-2.4403,2.3163-7.7612,1.3476-10.1449-1.1303-2.7815-4.5533-.7662-6.7961-1.8147C759.8761,713.7385,758.1888,712.0387,756.7758,711.5315Z" transform="translate(-70.30003 -30.3699)"/><path class="cls-7" d="M823.3694,544.7262c-8.7386,23.7912-18.8225,47.0618-24.5734,71.9665-7.1042,30.7655-18.5582,60.7671-24.4366,91.6008a76.06332,76.06332,0,0,1-11.3796-.484c-4.3271-.5107-11.1944-1.6783-12.756-6.4031-.7981-2.4149.0479-6.342.1697-8.8505.39-8.0344.964-16.0609,1.5548-24.0826,1.6717-22.6967,2.8179-45.6715,6.9926-68.0466,4.3917-23.5383,8.5973-47.1573,12.4611-70.6921,1.9971-12.1638,4.4566-24.2519,7.4822-36.2027.7795-3.0792,8.8977-34.8166,10.491-34.563a148.85759,148.85759,0,0,1,53.0818,19.0424c1.6008.9494,3.1461,2.0807,3.7028,3.7711.5567,1.6905.0522,3.1469-.464,4.6809-4.9231,14.629-11.4867,28.3482-16.7357,42.9205C827.134,534.4534,825.2808,539.5226,823.3694,544.7262Z" transform="translate(-70.30003 -30.3699)"/><path class="cls-2" d="M836.279,713.9443c2.9392.9137,5.9231.5192,8.8953.8869a152.88391,152.88391,0,0,0,3.7677-30.9511c-5.6987,3.9191-8.7935.1062-10.8894,9.5323C837.3741,696.4636,837.9724,709.4597,836.279,713.9443Z" transform="translate(-70.30003 -30.3699)"/><path class="cls-3" d="M847.9712,711.6022c.3878,5.6877,5.2751,11.5126,8.095,16.4621a3.51046,3.51046,0,0,1-.2635,4.6147,7.31515,7.31515,0,0,1-2.7822,2.9938,6.97581,6.97581,0,0,1-4.0059.2238q-3.3708-.5067-6.6858-1.32a4.56429,4.56429,0,0,1-1.5743-.6084,4.717,4.717,0,0,1-1.2402-1.5634c-1.7336-2.9732-3.1793-5.0685-3.3262-8.5005-.1517-3.5452.0494-7.2414-.8324-10.7051-.4337-1.6797-1.0035-3.8268.3914-4.8582,1.0784-.7975,3.2079.0592,4.4477.1772,2.1879.2082,4.1792-.0595,6.2483.9432a2.8945,2.8945,0,0,1,1.1121.8344A2.41974,2.41974,0,0,1,847.9712,711.6022Z" transform="translate(-70.30003 -30.3699)"/><path class="cls-7" d="M821.1433,532.1727c2.9559,25.1723,7.3413,50.1518,7.1322,75.711-.2583,31.5741,3.8915,63.4185,2.4252,94.7733a76.07335,76.07335,0,0,0,11.1792,2.1803c4.3271.5113,11.2774.9757,13.8967-3.2553,1.3388-2.1625,1.4309-6.1788,1.8968-8.6466,1.4924-7.9042,2.804-15.8435,4.0982-23.7822,3.6617-22.4617,7.8992-45.0714,9.0518-67.8034,1.2125-23.9138,2.6249-47.8627,4.35-71.65.8916-12.2944,1.3157-24.6229,1.1574-36.9497-.0408-3.1761-.5421-35.9315-2.1507-36.0561a148.85553,148.85553,0,0,0-56.0574,6.1528c-1.7779.5503-3.5443,1.2905-4.4795,2.8047-.9351,1.5142-.7838,3.0482-.6392,4.6602,1.3798,15.3734,4.5668,30.2441,6.2766,45.6382C819.8754,521.3055,820.4968,526.6669,821.1433,532.1727Z" transform="translate(-70.30003 -30.3699)"/><path class="cls-4" d="M814.8494,327.0661q-.46245.15645-.9194.3296c-5.0885,1.931-9.4165,5.406-13.6504,8.8259-6.3594,5.1369-9.4913,7.3889-11.9474,14.9964a184.65885,184.65885,0,0,0-5.1276,21.8988c-7.2013,37.5354-8.5928,74.9144-13.7616,112.7324-1.4069,10.2942-2.4933,22.3958,5.1197,29.4664,13.5082-10.5129,30.4881-11.1198,46.8716-11.1344,11.5051-.0103,22.7537-3.7366,34.2864-2.4525,11.0218,1.2273,20.6486-1.5274,31.8339-.7994,2.6969.1755,6.133.146,7.1959-2.3389.5332-1.2466-1.8767-6.9249-2.1745-8.4919-.5835-3.0704-.9751-6.1741-1.2751-9.284-1.0798-11.1935-2.6303-22.0775-4.2293-33.2074a73.39568,73.39568,0,0,1-1.0501-11.7838,101.78333,101.78333,0,0,1,1.0694-10.5072c2.4775-20.097.2554-40.645-5.3944-60.0899-1.1784-4.0557-1.6528-8.7729-3.2428-12.5677a55.39169,55.39169,0,0,0-6.025-10.0519c-4.6224-6.5216-10.6498-12.1287-18.2456-14.9303-10.0791-3.7176-21.9259-3.7478-32.4439-2.1829A39.699,39.699,0,0,0,814.8494,327.0661Z" transform="translate(-70.30003 -30.3699)"/><path class="cls-2" d="M743.777,248.2251a2.91189,2.91189,0,0,1,2.7363,1.8769c.5357,1.5693-.0589,3.2762-.6482,4.8262-2.3652,6.2208-5.305,12.1849-5.9166,18.7721-.3338,3.5948.5964,9.933-4.2628,10.9229a10.19228,10.19228,0,0,1-3.5797.2961,8.78461,8.78461,0,0,1-2.7461-1.0465c-.676-.3622-1.8356-.7758-2.0556-1.4947-1.2093-4.0337.283-11.1061-.1013-15.5415-.2336-2.6963-2.5305-35.0983-1.0641-35.1138q3.3399-.08865,6.6798-.1772a2.391,2.391,0,0,1,1.2648.1981,2.33168,2.33168,0,0,1,.874,1.2907,39.26857,39.26857,0,0,1,2.4944,13.8534,7.21615,7.21615,0,0,0,.5742,3.6583c.6228,1.0837,2.2103,1.7141,3.1546.8952.7696-.6675.7459-1.9121,1.4296-2.6674A1.67428,1.67428,0,0,1,743.777,248.2251Z" transform="translate(-70.30003 -30.3699)"/><path class="cls-4" d="M721.6751,331.3119c.2234-20.9499,1.2571-57.5371,5.508-57.7905a51.212,51.212,0,0,1,19.8714,2.7894c-.2858,14.7505-1.9967,30.6414,2.5377,44.9485,3.7051,11.6902,16.0176,11.5127,26.189,10.7802,14.2228-1.0242,27.66-1.9863,41.8833-4.2518a4.39106,4.39106,0,0,1,2.8123.1744,4.08908,4.08908,0,0,1,1.6361,2.5938,39.5913,39.5913,0,0,1,1.2499,6.5429c.963,8.2684.3069,16.9304-3.3749,24.3962-3.6819,7.4658-10.7241,13.5504-18.9704,14.6875-4.7423.6539-9.542-.3073-14.2326-1.2641-10.1585-2.0722-19.2069-6.5372-28.9839-10.0396a243.84687,243.84687,0,0,1-33.2784-14.9381,4.20048,4.20048,0,0,1-2.8873-4.5912C721.6182,344.1049,721.5966,338.674,721.6751,331.3119Z" transform="translate(-70.30003 -30.3699)"/><path class="cls-12" d="M823.4061,326.536a4.11423,4.11423,0,0,0,.7822,1.0566,8.99171,8.99171,0,0,0,5.0356,2.3333,22.30678,22.30678,0,0,0,7.3027-.5149c3.2537-.6207,3.1388-2.5257,3.6103-5.4793.2577-1.6138.4188-3.2402.5404-4.8694.0667-.893-.2792-4.0908.2901-4.7165.3864-.4247,1.959-.2816,2.6482-.6414a7.595,7.595,0,0,0,2.6609-2.6412,21.33117,21.33117,0,0,0,2.2108-5.4154q1.48785-4.88385,2.9758-9.7675a51.71368,51.71368,0,0,0,2.3583-10.1435c.4909-5.2188-.3526-12.5862-4.2919-16.4022-3.5932-3.4808-8.8359-4.6999-13.6438-5.3142a28.4278,28.4278,0,0,0-18.4639,3.731,15.21434,15.21434,0,0,0-5.6363,5.5669c-2.0213,3.7509-1.8676,8.4338-1.6503,12.8118q.3009,6.0618.6018,12.1234c.2307,4.648.8094,10.0042,4.292,12.5246,1.849,1.3382,4.2666,1.6244,5.8493,3.3405,1.9825,2.1495,1.854,5.3746,1.937,8.1004C822.8628,323.7766,822.746,325.2512,823.4061,326.536Z" transform="translate(-70.30003 -30.3699)"/><path class="cls-7" d="M843.5585,274.2954a6.80389,6.80389,0,0,1,.5441,1.1812c.742,2.1425.2407,4.561.9654,6.7094,1.1489,3.4063,5.1238,5.4535,5.7227,8.9981.4898,2.8987-1.4909,5.6545-1.658,8.5896-.1825,3.2065,1.8709,6.2416,1.5523,9.4066a20.94751,20.94751,0,0,1-3.6623,8.8167c.5085-.6826,5.1109-.4395,6.3049-1.1688,1.8295-1.1173,2.0378-1.8214,2.5822-3.7276.5404-1.8927.1216-3.7581.9638-5.6971,1.0332-2.3786,3.1566-4.1248,3.8999-6.6614,1.0145-3.4616-.8273-7.1136-.6835-10.7179.2177-5.4556,4.9327-10.5951,3.2216-15.78-1.0039-3.0418-3.9576-4.9859-5.6186-7.7247-1.2612-2.0796-1.7267-4.5308-2.6014-6.8002s-2.3791-4.5401-4.7118-5.2284a39.54883,39.54883,0,0,0-4.0184-.4729c-2.2964-.4272-4.2044-2.0119-6.417-2.7604-3.165-1.0709-8.7488,2.1298-10.5962,4.8123-1.8338,2.6627-.9084,4.9263.9663,7.2805C833.4365,267.2711,840.9814,269.8371,843.5585,274.2954Z" transform="translate(-70.30003 -30.3699)"/><path class="cls-7" d="M796.6114,250.7866a37.981,37.981,0,0,0-4.4627,2.9724c-5.6364,4.3825-9.9558,10.9752-10.007,18.1148-.0317,4.4133,1.4789,9.1388-.5599,13.0531-2.5473,4.8906-9.385,6.0183-12.4572,10.5974-6.3268,9.4301,8.0808,23.1138,1.9024,32.6417-3.3139,5.1103-11.5705,6.662-12.559,12.6719-.5195,3.1579,1.4009,6.2431,3.7712,8.3935a20.1231,20.1231,0,0,0,17.2177,4.7415c2.948-.5955,9.4123-3.1616,11.7045-.1693a11.615,11.615,0,0,1,1.4482,3.3421c1.7238,4.9161,6.4792,9.2807,11.6282,8.4882a30.82938,30.82938,0,0,0,5.4065-1.8616c2.0968-.7396,4.3537-1.0885,6.2842-2.1914,1.9306-1.1028,3.5089-3.2985,2.959-5.4529-.1385-.5423-.4021-1.0455-.5516-1.5849-.7674-2.7691,1.5532-5.3697,2.2254-8.1634,1.1073-4.6026-3.538-9.5486-4.2647-14.1681-.9042-5.7489,2.316-11.4925-.2881-17.0675-.9141-1.957-3.6055-5.5678-1.5382-7.6874,1.3039-1.7616,4.3817-2.3345,4.4611-4.5248a5.05693,5.05693,0,0,0-1.2467-2.7634,12.6027,12.6027,0,0,1-.9288-11.4538,16.37974,16.37974,0,0,1,8.1333-8.3844c4.2014-2.0348,3.5246-3.0611,4.7456-7.0837,1.1237-3.7019,3.2244-4.5702,6.5571-5.9195,2.9922-1.2115,3.9539-1.9664,5.058-4.7668.8079-2.0491,1.803-4.5035.631-6.7907-2.5394-4.9549-10.691-12.3412-16.2055-13.1293-4.7875-.6842-9.6144.6504-14.2279,2.1009A74.998,74.998,0,0,0,796.6114,250.7866Z" transform="translate(-70.30003 -30.3699)"/><path class="cls-22" d="M845.9125,289.8284a1.192,1.192,0,0,1-.0319.6551c-.7918,2.2297-5.2074,3.5553-7.1684,2.466-1.08-.6-1.6483-1.9871-.3065-2.7291.6153-.3403,2.1083.0217,2.8336-.0605a11.14184,11.14184,0,0,0,3.1492-.8351,1.58836,1.58836,0,0,1,.8728-.2027A.86189.86189,0,0,1,845.9125,289.8284Z" transform="translate(-70.30003 -30.3699)"/><path class="cls-22" d="M826.0929,291.7385a1.19312,1.19312,0,0,1-.1459.6395c-1.1694,2.0568-5.7488,2.5901-7.4892,1.1748-.9585-.7796-1.2755-2.2446.1754-2.7407.6653-.2275,2.072.39,2.8005.4359a11.14071,11.14071,0,0,0,3.2467-.2718,1.58931,1.58931,0,0,1,.8948-.047A.862.862,0,0,1,826.0929,291.7385Z" transform="translate(-70.30003 -30.3699)"/><circle class="cls-23" cx="837.6221" cy="419.9149" r="71.55253" transform="translate(-121.89087 684.90859) rotate(-45)"/><path class="cls-24" d="M786.8412,369.5052c-1.5451,1.5564-2.9907,3.175-4.3632,4.8322l101.1241,100.386c1.6471-1.3846,3.255-2.842,4.8001-4.3985,1.5459-1.5572,2.9908-3.175,4.3639-4.833L791.6421,365.106C789.9942,366.4912,788.387,367.948,786.8412,369.5052Z" transform="translate(-70.30003 -30.3699)"/><path class="cls-25" d="M872.9727,357.7229a96.24814,96.24814,0,0,1-59.6208,129.5418,71.56883,71.56883,0,0,0,59.6208-129.5418Z" transform="translate(-70.30003 -30.3699)"/><path class="cls-2" d="M830.1959,412.3335a2.89026,2.89026,0,0,1,1.8665-2.6388c1.4792-.4565,3.0333.2228,4.4422.889,5.6548,2.6738,11.0451,5.9087,17.1209,6.8495,3.3158.5134,9.2325-.0982,9.9241,4.8044a10.97192,10.97192,0,0,1,.108,3.5901,9.14427,9.14427,0,0,1-1.0974,2.6902c-.3671.6571-.8042,1.7944-1.4807,1.9782-3.7941,1.0057-10.2786-.8389-14.4067-.6773-6.579.2577-14.7946,2.0236-20.551-2.038a5.69406,5.69406,0,0,1-1.9207-2.0336c-.8195-1.652-.3346-3.6714.1672-5.465a2.12813,2.12813,0,0,1,.4527-.9609,1.7147,1.7147,0,0,1,.6687-.3655c2.1242-.7428,4.6849.2846,6.5901-.7625a2.30557,2.30557,0,0,0,.9759-3.1056c-.5828-.8021-1.7373-.8408-2.4054-1.5614A1.74463,1.74463,0,0,1,830.1959,412.3335Z" transform="translate(-70.30003 -30.3699)"/><path class="cls-4" d="M899.4143,440.5404c-19.4036-1.2724-53.2605-4.1372-53.2978-8.3955a54.7179,54.7179,0,0,1,3.5084-19.7067c.258-.6815,12.5254,1.1172,13.8237,1.2222a119.14283,119.14283,0,0,0,15.074.4543c9.6285-.4424,19.1589-4.8455,28.7609-1.7347,5.0171,1.6253,9.6286,5.4885,11.2891,10.8437,1.3801,4.4509.9313,15.3999-3.7784,17.7478a4.82685,4.82685,0,0,1-2.3733.3117C911.2667,441.2381,906.2329,440.9876,899.4143,440.5404Z" transform="translate(-70.30003 -30.3699)"/><path class="cls-26" d="M213.3564,151.5857,276.6107,96.02c20.6343-18.1261,51.7745-16.413,69.5539,3.8265l.0001.0001c17.7793,20.2394,15.465,51.3409-5.1692,69.4671l-63.2544,55.5657Z" transform="translate(-70.30003 -30.3699)"/><path class="cls-8" d="M215.1679,149.9944l-63.2544,55.5657c-20.6342,18.1261-22.9488,49.2275-5.1694,69.467l.0002.0002c17.7792,20.2394,48.9197,21.9526,69.5539,3.8265l63.2544-55.5657Z" transform="translate(-70.30003 -30.3699)"/><path class="cls-10" d="M151.2537,245.7538c-1.2175-12.2438,4.5479-24.2036,14.5125-31.5192,4.9723-3.6504-1.0819-10.8467-6.0437-7.2039a44.85046,44.85046,0,0,0-17.8534,40.4124C142.4723,253.5069,151.8546,251.7954,151.2537,245.7538Z" transform="translate(-70.30003 -30.3699)"/><path class="cls-10" d="M147.5466,263.4929a4.72638,4.72638,0,0,0,3.1813-1.2907l.1792-.1741a4.674,4.674,0,0,0,1.3776-3.1397,4.35083,4.35083,0,0,0-4.3553-4.4636,4.73105,4.73105,0,0,0-3.1815,1.2907l-.179.1744a4.67551,4.67551,0,0,0-1.3775,3.1396,4.35066,4.35066,0,0,0,4.3552,4.4634Z" transform="translate(-70.30003 -30.3699)"/><g class="cls-11"><path class="cls-10" d="M209.9327,264.3147l61.4427-53.9744,1.8117-1.5914,61.4426-53.9742a49.83528,49.83528,0,0,0,15.7754-48.9784c12.8152,20.0109,9.1907,47.1779-9.5515,63.6419l-61.4428,53.9744-1.8116,1.5914-61.4426,53.9742c-20.6345,18.1263-51.7748,16.413-69.5542-3.8266a47.80123,47.80123,0,0,1-10.6059-20.4889,48.21382,48.21382,0,0,0,4.3822,5.8255C158.158,280.7277,189.2983,282.4409,209.9327,264.3147Z" transform="translate(-70.30003 -30.3699)"/></g><path class="cls-27" d="M669.4768,281.047,565.5183,122.4139a17.23325,17.23325,0,0,1,4.9679-23.8597l99.7391-65.3629a17.23311,17.23311,0,0,1,23.8597,4.9678L798.0435,196.7922a17.233,17.233,0,0,1-4.9679,23.8597l-99.7391,65.363A17.23325,17.23325,0,0,1,669.4768,281.047Z" transform="translate(-70.30003 -30.3699)"/><path class="cls-18" d="M667.4821,282.3542,563.5236,123.7211a17.23325,17.23325,0,0,1,4.9679-23.8597l99.7391-65.3629a17.23311,17.23311,0,0,1,23.8597,4.9678L796.0488,198.0994a17.233,17.233,0,0,1-4.9679,23.8597l-99.7391,65.363A17.23325,17.23325,0,0,1,667.4821,282.3542Z" transform="translate(-70.30003 -30.3699)"/><path class="cls-28" d="M677.9911,289.6882a17.178,17.178,0,0,0,13.3508-2.366l99.7392-65.363a17.23328,17.23328,0,0,0,4.9677-23.8598L692.0904,39.4664a17.16514,17.16514,0,0,0-9.9012-7.1825Z" transform="translate(-70.30003 -30.3699)"/><circle class="cls-29" cx="617.9932" cy="125.1055" r="20.24019" transform="translate(299.24247 674.25197) rotate(-78.23838)"/><circle class="cls-8" cx="614.3736" cy="124.3519" r="20.24016" transform="translate(297.09846 670.10838) rotate(-78.23838)"/><path class="cls-30" d="M594.5582,120.2262c-.1264.6074-.2197,1.2141-.2897,1.8187l39.4601,8.2161c.1772-.5823.3338-1.1759.4603-1.7832.1265-.6077.2197-1.2141.2898-1.8191l-39.4602-8.216C594.8413,119.0253,594.6848,119.6186,594.5582,120.2262Z" transform="translate(-70.30003 -30.3699)"/><circle class="cls-29" cx="675.65495" cy="87.3175" r="20.24018" transform="translate(-19.26805 328.94043) rotate(-30.89452)"/><circle class="cls-29" cx="655.2787" cy="182.00045" r="20.2402" transform="translate(377.0577 799.15137) rotate(-87.72039)"/><circle class="cls-29" cx="712.9404" cy="144.21245" r="20.24017" transform="translate(52.86556 539.57359) rotate(-47.25917)"/><circle class="cls-29" cx="691.1312" cy="236.7088" r="20.24015" transform="translate(248.2119 834.70843) rotate(-78.23838)"/><circle class="cls-29" cx="748.79295" cy="198.9208" r="20.24014" transform="translate(396.66648 890.23935) rotate(-83.54617)"/><circle class="cls-8" cx="672.03535" cy="86.5639" r="20.24018" transform="translate(82.06098 491.00821) rotate(-47.25917)"/><path class="cls-30" d="M652.22,82.4382c-.1265.6074-.2198,1.2141-.2898,1.8187l39.4602,8.2161c.1771-.5823.3338-1.1759.4602-1.7832.1265-.6077.2198-1.2141.2898-1.8191l-39.4601-8.216C652.503,81.2373,652.3465,81.8306,652.22,82.4382Z" transform="translate(-70.30003 -30.3699)"/><circle class="cls-8" cx="651.6591" cy="181.2468" r="20.24013" transform="translate(271.08333 751.90847) rotate(-78.23838)"/><path class="cls-30" d="M631.8437,177.1211c-.1264.6074-.2197,1.2141-.2897,1.8188l39.4601,8.216c.1772-.5823.3338-1.1758.4603-1.7832.1265-.6076.2197-1.2141.2897-1.819l-39.4601-8.2161C632.1268,175.9202,631.9702,176.5135,631.8437,177.1211Z" transform="translate(-70.30003 -30.3699)"/><circle class="cls-8" cx="709.32085" cy="143.4588" r="20.24012" transform="translate(395.02914 794.39981) rotate(-81.73022)"/><path class="cls-30" d="M689.5055,139.3331c-.1265.6074-.2198,1.2141-.2898,1.8188l39.4602,8.216c.1771-.5823.3337-1.1758.4602-1.7832.1265-.6076.2198-1.2141.2898-1.819l-39.4601-8.2161C689.7885,138.1322,689.632,138.7255,689.5055,139.3331Z" transform="translate(-70.30003 -30.3699)"/><circle class="cls-8" cx="687.5116" cy="235.95515" r="20.24022" transform="translate(305.47366 862.21795) rotate(-83.54617)"/><path class="cls-30" d="M667.6962,231.8295c-.1264.6073-.2197,1.2141-.2897,1.8187l39.4601,8.2161c.1772-.5824.3338-1.1759.4603-1.7833.1265-.6076.2197-1.2141.2898-1.819l-39.4602-8.216C667.9793,230.6286,667.8228,231.2218,667.6962,231.8295Z" transform="translate(-70.30003 -30.3699)"/><circle class="cls-8" cx="745.17335" cy="198.16715" r="20.24024" transform="matrix(0.20384, -0.979, 0.979, 0.20384, 328.97101, 856.93086)"/><path class="cls-30" d="M725.358,194.0415c-.1265.6073-.2198,1.2141-.2898,1.8187l39.4602,8.2161c.1771-.5824.3338-1.1759.4602-1.7833.1265-.6076.2198-1.2141.2898-1.819l-39.4601-8.216C725.6411,192.8406,725.4845,193.4338,725.358,194.0415Z" transform="translate(-70.30003 -30.3699)"/><path class="cls-31" d="M631.4987,120.2308a18.4328,18.4328,0,0,0-27.6918-10.9941A26.28093,26.28093,0,0,1,631.4987,120.2308Z" transform="translate(-70.30003 -30.3699)"/><path class="cls-31" d="M689.6229,82.1397a18.43276,18.43276,0,0,0-27.6917-10.9941A26.281,26.281,0,0,1,689.6229,82.1397Z" transform="translate(-70.30003 -30.3699)"/><path class="cls-31" d="M669.2272,177.8018a18.43276,18.43276,0,0,0-27.6917-10.9941A26.281,26.281,0,0,1,669.2272,177.8018Z" transform="translate(-70.30003 -30.3699)"/><path class="cls-31" d="M727.3515,139.7107a18.4328,18.4328,0,0,0-27.6918-10.9941A26.28122,26.28122,0,0,1,727.3515,139.7107Z" transform="translate(-70.30003 -30.3699)"/><path class="cls-31" d="M705.0798,232.5101A18.433,18.433,0,0,0,677.388,221.516,26.28122,26.28122,0,0,1,705.0798,232.5101Z" transform="translate(-70.30003 -30.3699)"/><path class="cls-31" d="M763.204,194.419a18.43273,18.43273,0,0,0-27.6918-10.994A26.281,26.281,0,0,1,763.204,194.419Z" transform="translate(-70.30003 -30.3699)"/></g></svg>